SplineFontDB: 3.2
FontName: FontAwesome5Free-Solid
FullName: Font Awesome 5 Free Solid
FamilyName: Font Awesome 5 Free Solid
Weight: Black
Copyright: Copyright (c) Font Awesome
Version: 329.984 (Font Awesome version: 5.9.0)
ItalicAngle: 0
UnderlinePosition: -195
UnderlineWidth: 25
Ascent: 448
Descent: 64
InvalidEm: 0
sfntRevision: 0x0149fbe7
LayerCount: 2
Layer: 0 1 "Back" 1
Layer: 1 1 "Fore" 0
XUID: [1021 602 9287959 11839872]
StyleMap: 0x0000
FSType: 0
OS2Version: 4
OS2_WeightWidthSlopeOnly: 0
OS2_UseTypoMetrics: 1
CreationTime: 1559679398
ModificationTime: 1679522781
PfmFamily: 17
TTFWeight: 900
TTFWidth: 5
LineGap: 0
VLineGap: 0
Panose: 2 0 5 3 0 0 0 0 0 0
OS2TypoAscent: 448
OS2TypoAOffset: 0
OS2TypoDescent: -64
OS2TypoDOffset: 0
OS2TypoLinegap: 46
OS2WinAscent: 460
OS2WinAOffset: 0
OS2WinDescent: 84
OS2WinDOffset: 0
HheadAscent: 448
HheadAOffset: 0
HheadDescent: -64
HheadDOffset: 0
OS2SubXSize: 332
OS2SubYSize: 358
OS2SubXOff: 0
OS2SubYOff: 71
OS2SupXSize: 332
OS2SupYSize: 358
OS2SupXOff: 0
OS2SupYOff: 245
OS2StrikeYSize: 25
OS2StrikeYPos: 132
OS2CapHeight: 421
OS2XHeight: 314
OS2Vendor: 'PfEd'
OS2CodePages: 80000001.00000000
OS2UnicodeRanges: 00000001.10000000.00000000.00000000

StartChar: hyphen
Encoding: 45 45 4
Width: 219
GlyphClass: 2
Flags: W
LayerCount: 2
Fore
SplineSet
182 211 m 1,0,-1
 182 176 l 1,1,-1
 37 176 l 1,2,-1
 37 211 l 1,3,-1
 182 211 l 1,0,-1
EndSplineSet
Validated: 1
EndChar

StartChar: period
Encoding: 46 46 5
Width: 119
GlyphClass: 2
Flags: W
LayerCount: 2
Fore
SplineSet
86 56 m 1,0,-1
 33 56 l 1,1,-1
 33 109 l 1,2,-1
 86 109 l 1,3,-1
 86 56 l 1,0,-1
EndSplineSet
Validated: 1
EndChar

StartChar: zero
Encoding: 48 48 6
Width: 307
GlyphClass: 2
Flags: W
LayerCount: 2
Fore
SplineSet
26 238 m 0,0,1
 26 425 26 425 154 425 c 0,2,3
 216 425 216 425 248.5 377.5 c 128,-1,4
 281 330 281 330 281 239 c 0,5,6
 281 52 281 52 154 52 c 0,7,8
 26 52 26 52 26 238 c 0,0,1
239 239 m 0,9,10
 239 389 239 389 154 389 c 128,-1,11
 69 389 69 389 69 239 c 0,12,13
 69 87 69 87 154 87 c 128,-1,14
 239 87 239 87 239 239 c 0,9,10
EndSplineSet
Validated: 1
EndChar

StartChar: one
Encoding: 49 49 7
Width: 335
GlyphClass: 2
Flags: W
LayerCount: 2
Fore
SplineSet
164 421 m 1,0,-1
 188 421 l 1,1,-1
 188 91 l 1,2,-1
 269 91 l 1,3,-1
 269 56 l 1,4,-1
 66 56 l 1,5,-1
 66 91 l 1,6,-1
 146 91 l 1,7,-1
 146 368 l 1,8,-1
 71 321 l 1,9,-1
 71 361 l 1,10,-1
 164 421 l 1,0,-1
EndSplineSet
Validated: 1
EndChar

StartChar: two
Encoding: 50 50 8
Width: 310
GlyphClass: 2
Flags: W
LayerCount: 2
Fore
SplineSet
201 204 m 2,0,-1
 97 91 l 1,1,-1
 277 91 l 1,2,-1
 277 56 l 1,3,-1
 42 56 l 1,4,-1
 42 88 l 1,5,-1
 170 229 l 2,6,7
 219 284 219 284 219 327 c 0,8,9
 219 389 219 389 152 389 c 0,10,11
 100 389 100 389 49 347 c 1,12,-1
 33 380 l 1,13,14
 80 425 80 425 153 425 c 0,15,16
 203 425 203 425 232.5 399 c 128,-1,17
 262 373 262 373 262 329 c 0,18,19
 262 271 262 271 201 204 c 2,0,-1
EndSplineSet
Validated: 1
EndChar

StartChar: three
Encoding: 51 51 9
Width: 297
GlyphClass: 2
Flags: W
LayerCount: 2
Fore
SplineSet
270 155 m 0,0,1
 270 107 270 107 238 79.5 c 128,-1,2
 206 52 206 52 150 52 c 0,3,4
 75 52 75 52 27 97 c 1,5,-1
 44 130 l 1,6,7
 94 88 94 88 149 88 c 0,8,9
 228 88 228 88 228 156 c 0,10,11
 228 223 228 223 144 223 c 2,12,-1
 102 223 l 1,13,-1
 102 259 l 1,14,-1
 136 259 l 2,15,16
 220 259 220 259 220 328 c 0,17,18
 220 357 220 357 202 373 c 128,-1,19
 184 389 184 389 152 389 c 0,20,21
 100 389 100 389 49 347 c 1,22,-1
 33 380 l 1,23,24
 80 425 80 425 154 425 c 0,25,26
 203 425 203 425 232.5 400 c 128,-1,27
 262 375 262 375 262 332 c 0,28,29
 262 266 262 266 204 243 c 1,30,31
 270 225 270 225 270 155 c 0,0,1
EndSplineSet
Validated: 1
EndChar

StartChar: four
Encoding: 52 52 10
Width: 315
GlyphClass: 2
Flags: W
LayerCount: 2
Fore
SplineSet
235 421 m 1,0,-1
 235 170 l 1,1,-1
 290 170 l 1,2,-1
 290 135 l 1,3,-1
 235 135 l 1,4,-1
 235 56 l 1,5,-1
 193 56 l 1,6,-1
 193 135 l 1,7,-1
 25 135 l 1,8,-1
 25 167 l 1,9,-1
 201 421 l 1,10,-1
 235 421 l 1,0,-1
193 170 m 1,11,-1
 193 349 l 1,12,-1
 69 170 l 1,13,-1
 193 170 l 1,11,-1
EndSplineSet
Validated: 1
EndChar

StartChar: five
Encoding: 53 53 11
Width: 322
GlyphClass: 2
Flags: W
LayerCount: 2
Fore
SplineSet
283 169 m 128,-1,1
 283 117 283 117 249 84.5 c 128,-1,2
 215 52 215 52 159 52 c 0,3,4
 87 52 87 52 39 97 c 1,5,-1
 55 130 l 1,6,7
 106 88 106 88 159 88 c 0,8,9
 197 88 197 88 219 109.5 c 128,-1,10
 241 131 241 131 241 169 c 0,11,12
 241 205 241 205 219.5 227.5 c 128,-1,13
 198 250 198 250 162 250 c 0,14,15
 111 250 111 250 79 207 c 1,16,-1
 50 207 l 1,17,-1
 50 421 l 1,18,-1
 268 421 l 1,19,-1
 268 386 l 1,20,-1
 92 386 l 1,21,-1
 92 256 l 1,22,23
 123 285 123 285 169 285 c 0,24,25
 221 285 221 285 252 253 c 128,-1,0
 283 221 283 221 283 169 c 128,-1,1
EndSplineSet
Validated: 1
EndChar

StartChar: six
Encoding: 54 54 12
Width: 311
GlyphClass: 2
Flags: W
LayerCount: 2
Fore
SplineSet
283 169 m 0,0,1
 283 119 283 119 249.5 85.5 c 128,-1,2
 216 52 216 52 165 52 c 0,3,4
 99 52 99 52 63.5 98 c 128,-1,5
 28 144 28 144 28 229 c 0,6,7
 28 321 28 321 65 373 c 128,-1,8
 102 425 102 425 168 425 c 128,-1,9
 234 425 234 425 282 380 c 1,10,-1
 266 347 l 1,11,12
 217 389 217 389 169 389 c 0,13,14
 122 389 122 389 96 347 c 128,-1,15
 70 305 70 305 70 230 c 2,16,-1
 70 222 l 1,17,18
 96 285 96 285 169 285 c 0,19,20
 219 285 219 285 251 252.5 c 128,-1,21
 283 220 283 220 283 169 c 0,0,1
241 169 m 0,22,23
 241 205 241 205 219.5 227.5 c 128,-1,24
 198 250 198 250 163 250 c 0,25,26
 127 250 127 250 104.5 227 c 128,-1,27
 82 204 82 204 82 169 c 0,28,29
 82 132 82 132 104.5 109.5 c 128,-1,30
 127 87 127 87 163 87 c 0,31,32
 198 87 198 87 219.5 109.5 c 128,-1,33
 241 132 241 132 241 169 c 0,22,23
EndSplineSet
Validated: 1
EndChar

StartChar: seven
Encoding: 55 55 13
Width: 307
GlyphClass: 2
Flags: W
LayerCount: 2
Fore
SplineSet
228 385 m 1,0,-1
 33 385 l 1,1,-1
 33 421 l 1,2,-1
 274 421 l 1,3,-1
 274 389 l 1,4,-1
 103 56 l 1,5,-1
 58 56 l 1,6,-1
 228 385 l 1,0,-1
EndSplineSet
Validated: 1
EndChar

StartChar: eight
Encoding: 56 56 14
Width: 307
GlyphClass: 2
Flags: W
LayerCount: 2
Fore
SplineSet
284 153 m 0,0,1
 284 107 284 107 248.5 79.5 c 128,-1,2
 213 52 213 52 154 52 c 0,3,4
 94 52 94 52 58.5 79.5 c 128,-1,5
 23 107 23 107 23 153 c 0,6,7
 23 186 23 186 43.5 210 c 128,-1,8
 64 234 64 234 99 243 c 1,9,10
 31 263 31 263 31 328 c 0,11,12
 31 371 31 371 65 398 c 128,-1,13
 99 425 99 425 154 425 c 0,14,15
 208 425 208 425 242 398 c 128,-1,16
 276 371 276 371 276 328 c 0,17,18
 276 264 276 264 209 243 c 1,19,20
 245 234 245 234 264.5 210 c 128,-1,21
 284 186 284 186 284 153 c 0,0,1
154 255 m 1,22,23
 191 260 191 260 212.5 278 c 128,-1,24
 234 296 234 296 234 325 c 0,25,26
 234 355 234 355 212.5 372.5 c 128,-1,27
 191 390 191 390 154 390 c 0,28,29
 116 390 116 390 94.5 372.5 c 128,-1,30
 73 355 73 355 73 325 c 0,31,32
 73 296 73 296 94.5 278 c 128,-1,33
 116 260 116 260 154 255 c 1,22,23
243 155 m 0,34,35
 243 185 243 185 219 203 c 128,-1,36
 195 221 195 221 154 226 c 1,37,38
 65 216 65 216 65 155 c 0,39,40
 65 87 65 87 154 87 c 128,-1,41
 243 87 243 87 243 155 c 0,34,35
EndSplineSet
Validated: 1
EndChar

StartChar: nine
Encoding: 57 57 15
Width: 305
GlyphClass: 2
Flags: W
LayerCount: 2
Fore
SplineSet
280 247 m 0,0,1
 280 155 280 155 243 103.5 c 128,-1,2
 206 52 206 52 139 52 c 0,3,4
 73 52 73 52 25 97 c 1,5,-1
 41 129 l 1,6,7
 92 87 92 87 139 87 c 128,-1,8
 186 87 186 87 212 129 c 128,-1,9
 238 171 238 171 238 247 c 2,10,-1
 238 254 l 1,11,12
 226 225 226 225 199.5 208.5 c 128,-1,13
 173 192 173 192 138 192 c 0,14,15
 88 192 88 192 56.5 224 c 128,-1,16
 25 256 25 256 25 307 c 128,-1,17
 25 358 25 358 58.5 391.5 c 128,-1,18
 92 425 92 425 142 425 c 0,19,20
 208 425 208 425 244 378.5 c 128,-1,21
 280 332 280 332 280 247 c 0,0,1
226 308 m 0,22,23
 226 345 226 345 203.5 367 c 128,-1,24
 181 389 181 389 144 389 c 0,25,26
 109 389 109 389 88 367 c 128,-1,27
 67 345 67 345 67 308 c 128,-1,28
 67 271 67 271 88.5 249 c 128,-1,29
 110 227 110 227 145 227 c 0,30,31
 181 227 181 227 203.5 249.5 c 128,-1,32
 226 272 226 272 226 308 c 0,22,23
EndSplineSet
Validated: 1
EndChar

StartChar: A
Encoding: 65 65 16
Width: 376
GlyphClass: 2
Flags: W
LayerCount: 2
Fore
SplineSet
206 421 m 1,0,-1
 367 56 l 1,1,-1
 324 56 l 1,2,-1
 284 150 l 1,3,-1
 93 150 l 1,4,-1
 53 56 l 1,5,-1
 9 56 l 1,6,-1
 169 421 l 1,7,-1
 206 421 l 1,0,-1
269 185 m 1,8,-1
 188 372 l 1,9,-1
 108 185 l 1,10,-1
 269 185 l 1,8,-1
EndSplineSet
Validated: 1
EndChar

StartChar: B
Encoding: 66 66 17
Width: 363
GlyphClass: 2
Flags: W
LayerCount: 2
Fore
SplineSet
318 155 m 0,0,1
 318 108 318 108 286.5 82 c 128,-1,2
 255 56 255 56 197 56 c 2,3,-1
 45 56 l 1,4,-1
 45 421 l 1,5,-1
 191 421 l 2,6,7
 247 421 247 421 278 396 c 128,-1,8
 309 371 309 371 309 325 c 0,9,10
 309 265 309 265 252 243 c 1,11,12
 318 225 318 225 318 155 c 0,0,1
185 386 m 2,13,-1
 87 386 l 1,14,-1
 87 259 l 1,15,-1
 185 259 l 2,16,17
 268 259 268 259 268 323 c 0,18,19
 268 386 268 386 185 386 c 2,13,-1
276 156 m 0,20,21
 276 223 276 223 193 223 c 2,22,-1
 87 223 l 1,23,-1
 87 91 l 1,24,-1
 193 91 l 2,25,26
 276 91 276 91 276 156 c 0,20,21
EndSplineSet
Validated: 1
EndChar

StartChar: C
Encoding: 67 67 18
Width: 357
GlyphClass: 2
Flags: W
LayerCount: 2
Fore
SplineSet
32 239 m 128,-1,1
 32 325 32 325 77.5 375 c 128,-1,2
 123 425 123 425 201 425 c 0,3,4
 277 425 277 425 325 379 c 1,5,-1
 309 346 l 1,6,7
 262 388 262 388 201 388 c 0,8,9
 141 388 141 388 108 349.5 c 128,-1,10
 75 311 75 311 75 239 c 128,-1,11
 75 167 75 167 108 127.5 c 128,-1,12
 141 88 141 88 201 88 c 0,13,14
 260 88 260 88 309 130 c 1,15,-1
 325 98 l 1,16,17
 279 52 279 52 201 52 c 128,-1,18
 123 52 123 52 77.5 102.5 c 128,-1,0
 32 153 32 153 32 239 c 128,-1,1
EndSplineSet
Validated: 1
EndChar

StartChar: D
Encoding: 68 68 19
Width: 396
GlyphClass: 2
Flags: W
LayerCount: 2
Fore
SplineSet
167 56 m 2,0,-1
 45 56 l 1,1,-1
 45 421 l 1,2,-1
 167 421 l 2,3,4
 255 421 255 421 303 373.5 c 128,-1,5
 351 326 351 326 351 239 c 0,6,7
 351 151 351 151 303 103.5 c 128,-1,8
 255 56 255 56 167 56 c 2,0,-1
87 385 m 1,9,-1
 87 92 l 1,10,-1
 165 92 l 2,11,12
 307 92 307 92 307 239 c 0,13,14
 307 385 307 385 165 385 c 2,15,-1
 87 385 l 1,9,-1
EndSplineSet
Validated: 1
EndChar

StartChar: E
Encoding: 69 69 20
Width: 320
GlyphClass: 2
Flags: W
LayerCount: 2
Fore
SplineSet
275 91 m 1,0,-1
 275 56 l 1,1,-1
 45 56 l 1,2,-1
 45 421 l 1,3,-1
 275 421 l 1,4,-1
 275 386 l 1,5,-1
 87 386 l 1,6,-1
 87 259 l 1,7,-1
 265 259 l 1,8,-1
 265 223 l 1,9,-1
 87 223 l 1,10,-1
 87 91 l 1,11,-1
 275 91 l 1,0,-1
EndSplineSet
Validated: 1
EndChar

StartChar: F
Encoding: 70 70 21
Width: 315
GlyphClass: 2
Flags: W
LayerCount: 2
Fore
SplineSet
87 223 m 1,0,-1
 87 56 l 1,1,-1
 45 56 l 1,2,-1
 45 421 l 1,3,-1
 270 421 l 1,4,-1
 270 385 l 1,5,-1
 87 385 l 1,6,-1
 87 259 l 1,7,-1
 260 259 l 1,8,-1
 260 223 l 1,9,-1
 87 223 l 1,0,-1
EndSplineSet
Validated: 1
EndChar

StartChar: G
Encoding: 71 71 22
Width: 365
GlyphClass: 2
Flags: W
LayerCount: 2
Fore
SplineSet
204 213 m 1,0,-1
 204 246 l 1,1,-1
 333 246 l 1,2,-1
 333 77 l 1,3,4
 286 52 286 52 206 52 c 0,5,6
 124 52 124 52 78 101.5 c 128,-1,7
 32 151 32 151 32 239 c 0,8,9
 32 325 32 325 78 375 c 128,-1,10
 124 425 124 425 203 425 c 0,11,12
 281 425 281 425 329 379 c 1,13,-1
 312 346 l 1,14,15
 263 389 263 389 203 389 c 0,16,17
 141 389 141 389 108 350.5 c 128,-1,18
 75 312 75 312 75 239 c 0,19,20
 75 165 75 165 109 126 c 128,-1,21
 143 87 143 87 207 87 c 0,22,23
 253 87 253 87 295 102 c 1,24,-1
 295 213 l 1,25,-1
 204 213 l 1,0,-1
EndSplineSet
Validated: 1
EndChar

StartChar: H
Encoding: 72 72 23
Width: 392
GlyphClass: 2
Flags: W
LayerCount: 2
Fore
SplineSet
87 259 m 1,0,-1
 305 259 l 1,1,-1
 305 421 l 1,2,-1
 347 421 l 1,3,-1
 347 56 l 1,4,-1
 305 56 l 1,5,-1
 305 223 l 1,6,-1
 87 223 l 1,7,-1
 87 56 l 1,8,-1
 45 56 l 1,9,-1
 45 421 l 1,10,-1
 87 421 l 1,11,-1
 87 259 l 1,0,-1
EndSplineSet
Validated: 1
EndChar

StartChar: I
Encoding: 73 73 24
Width: 132
GlyphClass: 2
Flags: W
LayerCount: 2
Fore
SplineSet
87 421 m 1,0,-1
 87 56 l 1,1,-1
 45 56 l 1,2,-1
 45 421 l 1,3,-1
 87 421 l 1,0,-1
EndSplineSet
Validated: 1
EndChar

StartChar: J
Encoding: 74 74 25
Width: 126
GlyphClass: 2
Flags: W
LayerCount: 2
Fore
SplineSet
-3 -35 m 1,0,-1
 -3 1 l 1,1,2
 29 -3 29 -3 34 -3 c 0,3,4
 60 -3 60 -3 70.5 11.5 c 128,-1,5
 81 26 81 26 81 62 c 2,6,-1
 81 421 l 1,7,-1
 123 421 l 1,8,-1
 123 61 l 2,9,10
 123 8 123 8 104 -15.5 c 128,-1,11
 85 -39 85 -39 41 -39 c 0,12,13
 21 -39 21 -39 -3 -35 c 1,0,-1
EndSplineSet
Validated: 1
EndChar

StartChar: K
Encoding: 75 75 26
Width: 375
GlyphClass: 2
Flags: W
LayerCount: 2
Fore
SplineSet
320 421 m 1,0,-1
 130 243 l 1,1,-1
 330 56 l 1,2,-1
 275 56 l 1,3,-1
 87 230 l 1,4,-1
 87 56 l 1,5,-1
 45 56 l 1,6,-1
 45 421 l 1,7,-1
 87 421 l 1,8,-1
 87 253 l 1,9,-1
 266 421 l 1,10,-1
 320 421 l 1,0,-1
EndSplineSet
Validated: 1
EndChar

StartChar: L
Encoding: 76 76 27
Width: 315
GlyphClass: 2
Flags: W
LayerCount: 2
Fore
SplineSet
270 92 m 1,0,-1
 270 56 l 1,1,-1
 45 56 l 1,2,-1
 45 421 l 1,3,-1
 87 421 l 1,4,-1
 87 92 l 1,5,-1
 270 92 l 1,0,-1
EndSplineSet
Validated: 1
EndChar

StartChar: M
Encoding: 77 77 28
Width: 435
GlyphClass: 2
Flags: W
LayerCount: 2
Fore
SplineSet
80 421 m 1,0,-1
 218 106 l 1,1,-1
 355 421 l 1,2,-1
 390 421 l 1,3,-1
 390 56 l 1,4,-1
 351 56 l 1,5,-1
 351 327 l 1,6,-1
 232 56 l 1,7,-1
 203 56 l 1,8,-1
 83 325 l 1,9,-1
 84 56 l 1,10,-1
 45 56 l 1,11,-1
 45 421 l 1,12,-1
 80 421 l 1,0,-1
EndSplineSet
Validated: 1
EndChar

StartChar: N
Encoding: 78 78 29
Width: 382
GlyphClass: 2
Flags: W
LayerCount: 2
Fore
SplineSet
77 421 m 1,0,-1
 297 127 l 1,1,-1
 297 421 l 1,2,-1
 337 421 l 1,3,-1
 337 56 l 1,4,-1
 305 56 l 1,5,-1
 84 349 l 1,6,-1
 84 56 l 1,7,-1
 45 56 l 1,8,-1
 45 421 l 1,9,-1
 77 421 l 1,0,-1
EndSplineSet
Validated: 1
EndChar

StartChar: O
Encoding: 79 79 30
Width: 396
GlyphClass: 2
Flags: W
LayerCount: 2
Fore
SplineSet
32 238 m 128,-1,1
 32 324 32 324 76.5 374.5 c 128,-1,2
 121 425 121 425 198 425 c 128,-1,3
 275 425 275 425 319.5 375 c 128,-1,4
 364 325 364 325 364 239 c 128,-1,5
 364 153 364 153 319 102.5 c 128,-1,6
 274 52 274 52 198 52 c 128,-1,7
 122 52 122 52 77 102 c 128,-1,0
 32 152 32 152 32 238 c 128,-1,1
320 239 m 128,-1,9
 320 311 320 311 288 350 c 128,-1,10
 256 389 256 389 198 389 c 0,11,12
 139 389 139 389 107 350 c 128,-1,13
 75 311 75 311 75 239 c 128,-1,14
 75 167 75 167 107 127.5 c 128,-1,15
 139 88 139 88 198 88 c 0,16,17
 256 88 256 88 288 127.5 c 128,-1,8
 320 167 320 167 320 239 c 128,-1,9
EndSplineSet
Validated: 1
EndChar

StartChar: P
Encoding: 80 80 31
Width: 355
GlyphClass: 2
Flags: W
LayerCount: 2
Fore
SplineSet
87 56 m 1,0,-1
 45 56 l 1,1,-1
 45 421 l 1,2,-1
 190 421 l 2,3,4
 247 421 247 421 278.5 394 c 128,-1,5
 310 367 310 367 310 319 c 128,-1,6
 310 271 310 271 278 243.5 c 128,-1,7
 246 216 246 216 190 216 c 2,8,-1
 87 216 l 1,9,-1
 87 56 l 1,0,-1
87 386 m 1,10,-1
 87 251 l 1,11,-1
 187 251 l 2,12,13
 268 251 268 251 268 319 c 0,14,15
 268 386 268 386 187 386 c 2,16,-1
 87 386 l 1,10,-1
EndSplineSet
Validated: 1
EndChar

StartChar: Q
Encoding: 81 81 32
Width: 396
GlyphClass: 2
Flags: W
LayerCount: 2
Fore
SplineSet
325 -15 m 1,0,-1
 296 -42 l 1,1,2
 250 -7 250 -7 216 53 c 1,3,4
 208 52 208 52 198 52 c 0,5,6
 122 52 122 52 77 102 c 128,-1,7
 32 152 32 152 32 238 c 128,-1,8
 32 324 32 324 76.5 374.5 c 128,-1,9
 121 425 121 425 198 425 c 128,-1,10
 275 425 275 425 319.5 375 c 128,-1,11
 364 325 364 325 364 239 c 0,12,13
 364 172 364 172 336.5 126 c 128,-1,14
 309 80 309 80 259 62 c 1,15,16
 282 21 282 21 325 -15 c 1,0,-1
198 88 m 0,17,18
 256 88 256 88 288 127.5 c 128,-1,19
 320 167 320 167 320 239 c 128,-1,20
 320 311 320 311 288 350 c 128,-1,21
 256 389 256 389 198 389 c 0,22,23
 139 389 139 389 107 350 c 128,-1,24
 75 311 75 311 75 239 c 128,-1,25
 75 167 75 167 107 127.5 c 128,-1,26
 139 88 139 88 198 88 c 0,17,18
EndSplineSet
Validated: 1
EndChar

StartChar: R
Encoding: 82 82 33
Width: 376
GlyphClass: 2
Flags: W
LayerCount: 2
Fore
SplineSet
285 179 m 2,0,-1
 331 56 l 1,1,-1
 287 56 l 1,2,-1
 242 177 l 2,3,4
 234 199 234 199 219.5 207 c 128,-1,5
 205 215 205 215 178 215 c 2,6,-1
 87 215 l 1,7,-1
 87 56 l 1,8,-1
 45 56 l 1,9,-1
 45 421 l 1,10,-1
 190 421 l 2,11,12
 249 421 249 421 280.5 394.5 c 128,-1,13
 312 368 312 368 312 319 c 0,14,15
 312 246 312 246 239 224 c 1,16,17
 271 219 271 219 285 179 c 2,0,-1
87 386 m 1,18,-1
 87 250 l 1,19,-1
 186 250 l 2,20,21
 270 250 270 250 270 319 c 0,22,23
 270 386 270 386 186 386 c 2,24,-1
 87 386 l 1,18,-1
EndSplineSet
Validated: 1
EndChar

StartChar: S
Encoding: 83 83 34
Width: 320
GlyphClass: 2
Flags: W
LayerCount: 2
Fore
SplineSet
25 98 m 1,0,-1
 40 130 l 1,1,2
 92 88 92 88 161 88 c 0,3,4
 205 88 205 88 229.5 105 c 128,-1,5
 254 122 254 122 253 153 c 0,6,7
 252 180 252 180 232 191.5 c 128,-1,8
 212 203 212 203 161 215 c 0,9,10
 112 227 112 227 92 235 c 0,11,12
 31 260 31 260 31 319 c 0,13,14
 31 366 31 366 67.5 395.5 c 128,-1,15
 104 425 104 425 164 425 c 0,16,17
 244 425 244 425 290 379 c 1,18,-1
 273 346 l 1,19,20
 223 389 223 389 164 389 c 0,21,22
 121 389 121 389 97 371 c 128,-1,23
 73 353 73 353 73 321 c 0,24,25
 73 294 73 294 93 280 c 128,-1,26
 113 266 113 266 159 255 c 0,27,28
 190 248 190 248 232 234 c 0,29,30
 295 214 295 214 295 155 c 0,31,32
 295 108 295 108 258.5 80 c 128,-1,33
 222 52 222 52 161 52 c 0,34,35
 74 52 74 52 25 98 c 1,0,-1
EndSplineSet
Validated: 33
EndChar

StartChar: T
Encoding: 84 84 35
Width: 309
GlyphClass: 2
Flags: W
LayerCount: 2
Fore
SplineSet
176 385 m 1,0,-1
 176 56 l 1,1,-1
 133 56 l 1,2,-1
 133 385 l 1,3,-1
 6 385 l 1,4,-1
 6 421 l 1,5,-1
 303 421 l 1,6,-1
 303 385 l 1,7,-1
 176 385 l 1,0,-1
EndSplineSet
Validated: 1
EndChar

StartChar: U
Encoding: 85 85 36
Width: 374
GlyphClass: 2
Flags: W
LayerCount: 2
Fore
SplineSet
42 199 m 2,0,-1
 42 421 l 1,1,-1
 84 421 l 1,2,-1
 84 195 l 2,3,4
 84 88 84 88 187 88 c 128,-1,5
 290 88 290 88 290 195 c 2,6,-1
 290 421 l 1,7,-1
 332 421 l 1,8,-1
 332 199 l 2,9,10
 332 127 332 127 295 89.5 c 128,-1,11
 258 52 258 52 187 52 c 0,12,13
 42 52 42 52 42 199 c 2,0,-1
EndSplineSet
Validated: 1
EndChar

StartChar: V
Encoding: 86 86 37
Width: 357
GlyphClass: 2
Flags: W
LayerCount: 2
Fore
SplineSet
46 421 m 1,0,-1
 179 109 l 1,1,-1
 313 421 l 1,2,-1
 356 421 l 1,3,-1
 197 56 l 1,4,-1
 160 56 l 1,5,-1
 1 421 l 1,6,-1
 46 421 l 1,0,-1
EndSplineSet
Validated: 1
EndChar

StartChar: W
Encoding: 87 87 38
Width: 569
GlyphClass: 2
Flags: W
LayerCount: 2
Fore
SplineSet
302 420 m 1,0,-1
 406 115 l 1,1,-1
 510 421 l 1,2,-1
 552 421 l 1,3,-1
 424 56 l 1,4,-1
 389 56 l 1,5,-1
 285 354 l 1,6,-1
 180 56 l 1,7,-1
 145 56 l 1,8,-1
 17 421 l 1,9,-1
 60 421 l 1,10,-1
 163 116 l 1,11,-1
 269 421 l 1,12,-1
 302 420 l 1,0,-1
EndSplineSet
Validated: 1
EndChar

StartChar: X
Encoding: 88 88 39
Width: 334
GlyphClass: 2
Flags: W
LayerCount: 2
Fore
SplineSet
274 421 m 1,0,-1
 324 421 l 1,1,-1
 191 242 l 1,2,-1
 330 56 l 1,3,-1
 280 56 l 1,4,-1
 167 211 l 1,5,-1
 54 56 l 1,6,-1
 4 56 l 1,7,-1
 143 243 l 1,8,-1
 11 421 l 1,9,-1
 61 421 l 1,10,-1
 167 274 l 1,11,-1
 274 421 l 1,0,-1
EndSplineSet
Validated: 1
EndChar

StartChar: Y
Encoding: 89 89 40
Width: 328
GlyphClass: 2
Flags: W
LayerCount: 2
Fore
SplineSet
156 241 m 1,0,-1
 271 421 l 1,1,-1
 319 421 l 1,2,-1
 176 203 l 1,3,-1
 176 56 l 1,4,-1
 134 56 l 1,5,-1
 134 204 l 1,6,-1
 -9 421 l 1,7,-1
 40 421 l 1,8,-1
 156 241 l 1,0,-1
EndSplineSet
Validated: 1
EndChar

StartChar: Z
Encoding: 90 90 41
Width: 309
GlyphClass: 2
Flags: W
LayerCount: 2
Fore
SplineSet
281 421 m 1,0,-1
 281 390 l 1,1,-1
 72 91 l 1,2,-1
 286 91 l 1,3,-1
 286 56 l 1,4,-1
 23 56 l 1,5,-1
 23 87 l 1,6,-1
 232 385 l 1,7,-1
 23 385 l 1,8,-1
 23 421 l 1,9,-1
 281 421 l 1,0,-1
EndSplineSet
Validated: 1
EndChar

StartChar: a
Encoding: 97 97 42
Width: 292
GlyphClass: 2
Flags: W
LayerCount: 2
Fore
SplineSet
226 269 m 1,0,-1
 226 314 l 1,1,-1
 267 314 l 1,2,-1
 267 56 l 1,3,-1
 226 56 l 1,4,-1
 226 103 l 1,5,6
 203 52 203 52 139 52 c 0,7,8
 87 52 87 52 56 88.5 c 128,-1,9
 25 125 25 125 25 185 c 128,-1,10
 25 245 25 245 56.5 282.5 c 128,-1,11
 88 320 88 320 139 320 c 0,12,13
 200 320 200 320 226 269 c 1,0,-1
226 186 m 0,14,15
 226 285 226 285 147 285 c 0,16,17
 109 285 109 285 88 258.5 c 128,-1,18
 67 232 67 232 67 185 c 128,-1,19
 67 138 67 138 88 112.5 c 128,-1,20
 109 87 109 87 147 87 c 128,-1,21
 185 87 185 87 205.5 113 c 128,-1,22
 226 139 226 139 226 186 c 0,14,15
EndSplineSet
Validated: 1
EndChar

StartChar: b
Encoding: 98 98 43
Width: 323
GlyphClass: 2
Flags: W
LayerCount: 2
Fore
SplineSet
283 187 m 128,-1,1
 283 127 283 127 251.5 89.5 c 128,-1,2
 220 52 220 52 168 52 c 0,3,4
 106 52 106 52 81 104 c 1,5,-1
 81 56 l 1,6,-1
 40 56 l 1,7,-1
 40 433 l 1,8,-1
 81 433 l 1,9,-1
 81 268 l 1,10,11
 105 320 105 320 168 320 c 0,12,13
 220 320 220 320 251.5 283.5 c 128,-1,0
 283 247 283 247 283 187 c 128,-1,1
240 187 m 128,-1,15
 240 234 240 234 219 259.5 c 128,-1,16
 198 285 198 285 161 285 c 0,17,18
 123 285 123 285 102 259.5 c 128,-1,19
 81 234 81 234 81 186 c 0,20,21
 81 139 81 139 102 113 c 128,-1,22
 123 87 123 87 161 87 c 0,23,24
 198 87 198 87 219 113.5 c 128,-1,14
 240 140 240 140 240 187 c 128,-1,15
EndSplineSet
Validated: 1
EndChar

StartChar: c
Encoding: 99 99 44
Width: 266
GlyphClass: 2
Flags: W
LayerCount: 2
Fore
SplineSet
25 185 m 128,-1,1
 25 245 25 245 59 282.5 c 128,-1,2
 93 320 93 320 150 320 c 128,-1,3
 207 320 207 320 241 286 c 1,4,-1
 227 255 l 1,5,6
 190 285 190 285 152 285 c 0,7,8
 112 285 112 285 90 258.5 c 128,-1,9
 68 232 68 232 68 185 c 0,10,11
 68 139 68 139 90 113 c 128,-1,12
 112 87 112 87 152 87 c 0,13,14
 189 87 189 87 227 116 c 1,15,-1
 241 86 l 1,16,17
 205 52 205 52 148 52 c 0,18,19
 92 52 92 52 58.5 88.5 c 128,-1,0
 25 125 25 125 25 185 c 128,-1,1
EndSplineSet
Validated: 1
EndChar

StartChar: d
Encoding: 100 100 45
Width: 292
GlyphClass: 2
Flags: W
LayerCount: 2
Fore
SplineSet
225 270 m 1,0,-1
 225 433 l 1,1,-1
 267 433 l 1,2,-1
 267 56 l 1,3,-1
 226 56 l 1,4,-1
 226 103 l 1,5,6
 203 52 203 52 139 52 c 0,7,8
 88 52 88 52 56.5 89.5 c 128,-1,9
 25 127 25 127 25 187 c 128,-1,10
 25 247 25 247 56 283.5 c 128,-1,11
 87 320 87 320 139 320 c 0,12,13
 201 320 201 320 225 270 c 1,0,-1
226 186 m 128,-1,15
 226 233 226 233 205.5 259 c 128,-1,16
 185 285 185 285 147 285 c 128,-1,17
 109 285 109 285 88 259.5 c 128,-1,18
 67 234 67 234 67 187 c 128,-1,19
 67 140 67 140 88 113.5 c 128,-1,20
 109 87 109 87 147 87 c 128,-1,21
 185 87 185 87 205.5 113 c 128,-1,14
 226 139 226 139 226 186 c 128,-1,15
EndSplineSet
Validated: 1
EndChar

StartChar: e
Encoding: 101 101 46
Width: 280
GlyphClass: 2
Flags: W
LayerCount: 2
Fore
SplineSet
255 194 m 2,0,-1
 255 186 l 1,1,-1
 67 186 l 1,2,3
 67 87 67 87 154 87 c 0,4,5
 200 87 200 87 237 117 c 1,6,-1
 251 87 l 1,7,8
 213 52 213 52 154 52 c 0,9,10
 93 52 93 52 59 88 c 128,-1,11
 25 124 25 124 25 186 c 0,12,13
 25 245 25 245 59 282.5 c 128,-1,14
 93 320 93 320 146 320 c 0,15,16
 197 320 197 320 226 286.5 c 128,-1,17
 255 253 255 253 255 194 c 2,0,-1
68 213 m 1,18,-1
 218 213 l 1,19,20
 212 287 212 287 146 287 c 0,21,22
 81 287 81 287 68 213 c 1,18,-1
EndSplineSet
Validated: 1
EndChar

StartChar: f
Encoding: 102 102 47
Width: 169
GlyphClass: 2
Flags: W
LayerCount: 2
Fore
SplineSet
95 348 m 2,0,-1
 95 314 l 1,1,-1
 158 314 l 1,2,-1
 158 281 l 1,3,-1
 95 281 l 1,4,-1
 95 56 l 1,5,-1
 54 56 l 1,6,-1
 54 281 l 1,7,-1
 4 281 l 1,8,-1
 4 314 l 1,9,-1
 54 314 l 1,10,-1
 54 353 l 2,11,12
 54 435 54 435 131 435 c 0,13,14
 147 435 147 435 165 430 c 1,15,-1
 165 395 l 1,16,17
 153 399 153 399 139 399 c 0,18,19
 95 399 95 399 95 348 c 2,0,-1
EndSplineSet
Validated: 1
EndChar

StartChar: g
Encoding: 103 103 48
Width: 294
GlyphClass: 2
Flags: W
LayerCount: 2
Fore
SplineSet
228 269 m 1,0,-1
 228 314 l 1,1,-1
 269 314 l 1,2,-1
 269 58 l 2,3,4
 269 -58 269 -58 153 -58 c 0,5,6
 95 -58 95 -58 52 -32 c 1,7,-1
 59 2 l 1,8,9
 107 -24 107 -24 153 -24 c 0,10,11
 228 -24 228 -24 228 54 c 2,12,-1
 228 115 l 1,13,14
 202 64 202 64 140 64 c 0,15,16
 88 64 88 64 56.5 99 c 128,-1,17
 25 134 25 134 25 192 c 0,18,19
 25 249 25 249 56.5 284.5 c 128,-1,20
 88 320 88 320 140 320 c 0,21,22
 202 320 202 320 228 269 c 1,0,-1
228 192 m 128,-1,24
 228 236 228 236 206.5 260.5 c 128,-1,25
 185 285 185 285 148 285 c 0,26,27
 110 285 110 285 88.5 260.5 c 128,-1,28
 67 236 67 236 67 192 c 128,-1,29
 67 148 67 148 88.5 123 c 128,-1,30
 110 98 110 98 148 98 c 0,31,32
 185 98 185 98 206.5 123 c 128,-1,23
 228 148 228 148 228 192 c 128,-1,24
EndSplineSet
Validated: 1
EndChar

StartChar: h
Encoding: 104 104 49
Width: 301
GlyphClass: 2
Flags: W
LayerCount: 2
Fore
SplineSet
261 218 m 2,0,-1
 261 56 l 1,1,-1
 220 56 l 1,2,-1
 220 216 l 2,3,4
 220 285 220 285 160 285 c 0,5,6
 125 285 125 285 103 262.5 c 128,-1,7
 81 240 81 240 81 203 c 2,8,-1
 81 56 l 1,9,-1
 40 56 l 1,10,-1
 40 433 l 1,11,-1
 81 433 l 1,12,-1
 81 272 l 1,13,14
 107 320 107 320 168 320 c 0,15,16
 261 320 261 320 261 218 c 2,0,-1
EndSplineSet
Validated: 1
EndChar

StartChar: i
Encoding: 105 105 50
Width: 122
GlyphClass: 2
Flags: W
LayerCount: 2
Fore
SplineSet
86 376 m 1,0,-1
 36 376 l 1,1,-1
 36 423 l 1,2,-1
 86 423 l 1,3,-1
 86 376 l 1,0,-1
81 314 m 1,4,-1
 81 56 l 1,5,-1
 40 56 l 1,6,-1
 40 314 l 1,7,-1
 81 314 l 1,4,-1
EndSplineSet
Validated: 1
EndChar

StartChar: j
Encoding: 106 106 51
Width: 114
GlyphClass: 2
Flags: W
LayerCount: 2
Fore
SplineSet
86 376 m 1,0,-1
 36 376 l 1,1,-1
 36 423 l 1,2,-1
 86 423 l 1,3,-1
 86 376 l 1,0,-1
-3 -21 m 0,4,5
 40 -21 40 -21 40 30 c 2,6,-1
 40 314 l 1,7,-1
 81 314 l 1,8,-1
 81 25 l 2,9,10
 81 -14 81 -14 61.5 -35.5 c 128,-1,11
 42 -57 42 -57 6 -57 c 0,12,13
 -10 -57 -10 -57 -28 -52 c 1,14,-1
 -28 -17 l 1,15,16
 -10 -21 -10 -21 -3 -21 c 0,4,5
EndSplineSet
Validated: 1
EndChar

StartChar: k
Encoding: 107 107 52
Width: 308
GlyphClass: 2
Flags: W
LayerCount: 2
Fore
SplineSet
255 313 m 1,0,-1
 126 190 l 1,1,-1
 268 56 l 1,2,-1
 214 56 l 1,3,-1
 81 180 l 1,4,-1
 81 56 l 1,5,-1
 40 56 l 1,6,-1
 40 433 l 1,7,-1
 81 433 l 1,8,-1
 81 195 l 1,9,-1
 203 313 l 1,10,-1
 255 313 l 1,0,-1
EndSplineSet
Validated: 1
EndChar

StartChar: l
Encoding: 108 108 53
Width: 121
GlyphClass: 2
Flags: W
LayerCount: 2
Fore
SplineSet
81 433 m 1,0,-1
 81 56 l 1,1,-1
 40 56 l 1,2,-1
 40 433 l 1,3,-1
 81 433 l 1,0,-1
EndSplineSet
Validated: 1
EndChar

StartChar: m
Encoding: 109 109 54
Width: 447
GlyphClass: 2
Flags: W
LayerCount: 2
Fore
SplineSet
411 218 m 2,0,-1
 411 56 l 1,1,-1
 370 56 l 1,2,-1
 370 216 l 2,3,4
 370 252 370 252 357 268.5 c 128,-1,5
 344 285 344 285 316 285 c 0,6,7
 284 285 284 285 265.5 263 c 128,-1,8
 247 241 247 241 247 203 c 2,9,-1
 247 56 l 1,10,-1
 205 56 l 1,11,-1
 205 216 l 2,12,13
 205 285 205 285 152 285 c 0,14,15
 119 285 119 285 100 263 c 128,-1,16
 81 241 81 241 81 203 c 2,17,-1
 81 56 l 1,18,-1
 40 56 l 1,19,-1
 40 241 l 2,20,21
 40 270 40 270 36 314 c 1,22,-1
 75 314 l 1,23,-1
 79 268 l 1,24,25
 103 320 103 320 161 320 c 0,26,27
 221 320 221 320 240 270 c 1,28,29
 265 320 265 320 326 320 c 0,30,31
 411 320 411 320 411 218 c 2,0,-1
EndSplineSet
Validated: 1
EndChar

StartChar: n
Encoding: 110 110 55
Width: 297
GlyphClass: 2
Flags: W
LayerCount: 2
Fore
SplineSet
261 218 m 2,0,-1
 261 56 l 1,1,-1
 220 56 l 1,2,-1
 220 216 l 2,3,4
 220 285 220 285 160 285 c 0,5,6
 125 285 125 285 103 262.5 c 128,-1,7
 81 240 81 240 81 203 c 2,8,-1
 81 56 l 1,9,-1
 40 56 l 1,10,-1
 40 241 l 2,11,12
 40 270 40 270 36 314 c 1,13,-1
 75 314 l 1,14,-1
 79 267 l 1,15,16
 104 320 104 320 168 320 c 0,17,18
 261 320 261 320 261 218 c 2,0,-1
EndSplineSet
Validated: 1
EndChar

StartChar: o
Encoding: 111 111 56
Width: 293
GlyphClass: 2
Flags: W
LayerCount: 2
Fore
SplineSet
25 186 m 128,-1,1
 25 247 25 247 58 283.5 c 128,-1,2
 91 320 91 320 146 320 c 128,-1,3
 201 320 201 320 234.5 283.5 c 128,-1,4
 268 247 268 247 268 186 c 128,-1,5
 268 125 268 125 234.5 88.5 c 128,-1,6
 201 52 201 52 146 52 c 128,-1,7
 91 52 91 52 58 88.5 c 128,-1,0
 25 125 25 125 25 186 c 128,-1,1
226 186 m 0,8,9
 226 233 226 233 205 259 c 128,-1,10
 184 285 184 285 146 285 c 128,-1,11
 108 285 108 285 87.5 259 c 128,-1,12
 67 233 67 233 67 186 c 0,13,14
 67 87 67 87 146 87 c 0,15,16
 226 87 226 87 226 186 c 0,8,9
EndSplineSet
Validated: 1
EndChar

StartChar: p
Encoding: 112 112 57
Width: 319
GlyphClass: 2
Flags: W
LayerCount: 2
Fore
SplineSet
283 185 m 128,-1,1
 283 125 283 125 251.5 88.5 c 128,-1,2
 220 52 220 52 168 52 c 0,3,4
 106 52 106 52 81 104 c 1,5,-1
 81 -55 l 1,6,-1
 40 -55 l 1,7,-1
 40 241 l 2,8,9
 40 270 40 270 36 314 c 1,10,-1
 75 314 l 1,11,-1
 79 264 l 1,12,13
 103 320 103 320 168 320 c 0,14,15
 220 320 220 320 251.5 282.5 c 128,-1,0
 283 245 283 245 283 185 c 128,-1,1
240 185 m 128,-1,17
 240 232 240 232 219 258.5 c 128,-1,18
 198 285 198 285 161 285 c 0,19,20
 123 285 123 285 102 259.5 c 128,-1,21
 81 234 81 234 81 186 c 0,22,23
 81 139 81 139 102 113 c 128,-1,24
 123 87 123 87 161 87 c 128,-1,25
 199 87 199 87 219.5 112.5 c 128,-1,16
 240 138 240 138 240 185 c 128,-1,17
EndSplineSet
Validated: 1
EndChar

StartChar: q
Encoding: 113 113 58
Width: 296
GlyphClass: 2
Flags: W
LayerCount: 2
Fore
SplineSet
227 265 m 1,0,-1
 232 314 l 1,1,-1
 271 314 l 1,2,3
 267 285 267 285 267 241 c 2,4,-1
 267 -55 l 1,5,-1
 225 -55 l 1,6,-1
 225 102 l 1,7,8
 202 52 202 52 139 52 c 0,9,10
 87 52 87 52 56 88.5 c 128,-1,11
 25 125 25 125 25 185 c 128,-1,12
 25 245 25 245 56.5 282.5 c 128,-1,13
 88 320 88 320 139 320 c 0,14,15
 203 320 203 320 227 265 c 1,0,-1
226 186 m 0,16,17
 226 285 226 285 147 285 c 0,18,19
 109 285 109 285 88 258.5 c 128,-1,20
 67 232 67 232 67 185 c 128,-1,21
 67 138 67 138 88 112.5 c 128,-1,22
 109 87 109 87 147 87 c 128,-1,23
 185 87 185 87 205.5 113 c 128,-1,24
 226 139 226 139 226 186 c 0,16,17
EndSplineSet
Validated: 1
EndChar

StartChar: r
Encoding: 114 114 59
Width: 219
GlyphClass: 2
Flags: W
LayerCount: 2
Fore
SplineSet
183 317 m 1,0,-1
 182 279 l 1,1,2
 168 283 168 283 155 283 c 0,3,4
 119 283 119 283 99 259 c 0,5,6
 81 234 81 234 81 203 c 2,7,-1
 81 56 l 1,8,-1
 40 56 l 1,9,-1
 40 241 l 2,10,11
 40 270 40 270 36 314 c 1,12,-1
 75 314 l 1,13,-1
 79 266 l 1,14,15
 99 320 99 320 160 320 c 0,16,17
 172 320 172 320 183 317 c 1,0,-1
EndSplineSet
Validated: 1
EndChar

StartChar: s
Encoding: 115 115 60
Width: 252
GlyphClass: 2
Flags: W
LayerCount: 2
Fore
SplineSet
24 86 m 1,0,-1
 38 116 l 1,1,2
 76 86 76 86 129 86 c 0,3,4
 188 86 188 86 188 125 c 0,5,6
 188 153 188 153 144 164 c 2,7,-1
 100 174 l 2,8,9
 33 190 33 190 33 243 c 0,10,11
 33 277 33 277 60 298.5 c 128,-1,12
 87 320 87 320 132 320 c 0,13,14
 189 320 189 320 223 286 c 1,15,-1
 209 256 l 1,16,17
 173 286 173 286 132 286 c 0,18,19
 74 286 74 286 74 246 c 0,20,21
 74 216 74 216 114 207 c 2,22,-1
 157 196 l 2,23,24
 228 178 228 178 228 126 c 0,25,26
 228 92 228 92 200.5 72 c 128,-1,27
 173 52 173 52 127 52 c 0,28,29
 63 52 63 52 24 86 c 1,0,-1
EndSplineSet
Validated: 1
EndChar

StartChar: t
Encoding: 116 116 61
Width: 173
GlyphClass: 2
Flags: W
LayerCount: 2
Fore
SplineSet
169 314 m 1,0,-1
 169 281 l 1,1,-1
 95 281 l 1,2,-1
 95 140 l 2,3,4
 95 88 95 88 140 88 c 0,5,6
 153 88 153 88 168 93 c 1,7,-1
 168 58 l 1,8,9
 152 52 152 52 132 52 c 0,10,11
 95 52 95 52 74.5 73.5 c 128,-1,12
 54 95 54 95 54 134 c 2,13,-1
 54 281 l 1,14,-1
 4 281 l 1,15,-1
 4 314 l 1,16,-1
 54 314 l 1,17,-1
 54 380 l 1,18,-1
 95 394 l 1,19,-1
 95 314 l 1,20,-1
 169 314 l 1,0,-1
EndSplineSet
Validated: 1
EndChar

StartChar: u
Encoding: 117 117 62
Width: 293
GlyphClass: 2
Flags: W
LayerCount: 2
Fore
SplineSet
214 168 m 2,0,-1
 214 314 l 1,1,-1
 255 314 l 1,2,-1
 255 56 l 1,3,-1
 215 56 l 1,4,-1
 215 101 l 1,5,6
 190 52 190 52 131 52 c 0,7,8
 38 52 38 52 38 154 c 2,9,-1
 38 314 l 1,10,-1
 80 314 l 1,11,-1
 80 155 l 2,12,13
 80 87 80 87 138 87 c 0,14,15
 172 87 172 87 193 109 c 128,-1,16
 214 131 214 131 214 168 c 2,0,-1
EndSplineSet
Validated: 1
EndChar

StartChar: v
Encoding: 118 118 63
Width: 272
GlyphClass: 2
Flags: W
LayerCount: 2
Fore
SplineSet
50 313 m 1,0,-1
 137 101 l 1,1,-1
 225 313 l 1,2,-1
 266 313 l 1,3,-1
 155 56 l 1,4,-1
 116 56 l 1,5,-1
 6 313 l 1,6,-1
 50 313 l 1,0,-1
EndSplineSet
Validated: 1
EndChar

StartChar: w
Encoding: 119 119 64
Width: 445
GlyphClass: 2
Flags: W
LayerCount: 2
Fore
SplineSet
242 314 m 1,0,-1
 316 105 l 1,1,-1
 390 314 l 1,2,-1
 431 314 l 1,3,-1
 336 56 l 1,4,-1
 296 56 l 1,5,-1
 222 257 l 1,6,-1
 149 56 l 1,7,-1
 109 56 l 1,8,-1
 14 314 l 1,9,-1
 57 314 l 1,10,-1
 130 106 l 1,11,-1
 205 314 l 1,12,-1
 242 314 l 1,0,-1
EndSplineSet
Validated: 1
EndChar

StartChar: x
Encoding: 120 120 65
Width: 274
GlyphClass: 2
Flags: W
LayerCount: 2
Fore
SplineSet
211 314 m 1,0,-1
 262 314 l 1,1,-1
 162 189 l 1,2,-1
 268 56 l 1,3,-1
 218 56 l 1,4,-1
 137 157 l 1,5,-1
 56 56 l 1,6,-1
 6 56 l 1,7,-1
 113 189 l 1,8,-1
 12 314 l 1,9,-1
 62 314 l 1,10,-1
 137 219 l 1,11,-1
 211 314 l 1,0,-1
EndSplineSet
Validated: 1
EndChar

StartChar: y
Encoding: 121 121 66
Width: 272
GlyphClass: 2
Flags: W
LayerCount: 2
Fore
SplineSet
137 101 m 1,0,-1
 225 314 l 1,1,-1
 266 314 l 1,2,-1
 146 32 l 2,3,4
 113 -45 113 -45 28 -60 c 1,5,-1
 19 -28 l 1,6,7
 55 -19 55 -19 74 -6 c 0,8,9
 93 9 93 9 105 36 c 2,10,-1
 115 59 l 1,11,-1
 6 314 l 1,12,-1
 50 314 l 1,13,-1
 137 101 l 1,0,-1
EndSplineSet
Validated: 1
EndChar

StartChar: z
Encoding: 122 122 67
Width: 269
GlyphClass: 2
Flags: W
LayerCount: 2
Fore
SplineSet
238 314 m 1,0,-1
 238 283 l 1,1,-1
 77 89 l 1,2,-1
 243 89 l 1,3,-1
 243 56 l 1,4,-1
 26 56 l 1,5,-1
 26 85 l 1,6,-1
 188 281 l 1,7,-1
 31 281 l 1,8,-1
 31 314 l 1,9,-1
 238 314 l 1,0,-1
EndSplineSet
Validated: 1
EndChar

StartChar: glass-martini
Encoding: 61440 61440 68
Width: 512
GlyphClass: 3
Flags: W
LayerCount: 2
Fore
SplineSet
502 390 m 2,0,-1
 288 176 l 1,1,-1
 288 -16 l 1,2,-1
 344 -16 l 2,3,4
 361 -16 361 -16 372.5 -27.5 c 128,-1,5
 384 -39 384 -39 384 -56 c 0,6,7
 384 -64 384 -64 376 -64 c 2,8,-1
 136 -64 l 2,9,10
 128 -64 128 -64 128 -56 c 0,11,12
 128 -39 128 -39 139.5 -27.5 c 128,-1,13
 151 -16 151 -16 168 -16 c 2,14,-1
 224 -16 l 1,15,-1
 224 176 l 1,16,-1
 10 390 l 2,17,18
 -6 406 -6 406 2.5 427 c 128,-1,19
 11 448 11 448 34 448 c 2,20,-1
 478 448 l 2,21,22
 501 448 501 448 509.5 427 c 128,-1,23
 518 406 518 406 502 390 c 2,0,-1
EndSplineSet
Validated: 545
EndChar

StartChar: music
Encoding: 61441 61441 69
Width: 512
GlyphClass: 3
Flags: W
LayerCount: 2
Fore
SplineSet
512 416 m 2,0,-1
 512 64 l 2,1,2
 512 37 512 37 484 18.5 c 128,-1,3
 456 0 456 0 416 0 c 128,-1,4
 376 0 376 0 348 18.5 c 128,-1,5
 320 37 320 37 320 64 c 128,-1,6
 320 91 320 91 348 109.5 c 128,-1,7
 376 128 376 128 416 128 c 0,8,9
 431 128 431 128 448 124 c 1,10,-1
 448 309 l 1,11,-1
 192 234 l 1,12,-1
 192 0 l 2,13,14
 192 -27 192 -27 164 -45.5 c 128,-1,15
 136 -64 136 -64 96 -64 c 128,-1,16
 56 -64 56 -64 28 -45.5 c 128,-1,17
 0 -27 0 -27 0 0 c 128,-1,18
 0 27 0 27 28 45.5 c 128,-1,19
 56 64 56 64 96 64 c 0,20,21
 111 64 111 64 128 60 c 1,22,-1
 128 322 l 2,23,24
 128 345 128 345 150 352 c 2,25,-1
 470 446 l 2,26,27
 486 451 486 451 499 441.5 c 128,-1,28
 512 432 512 432 512 416 c 2,0,-1
EndSplineSet
Validated: 33
EndChar

StartChar: search
Encoding: 61442 61442 70
Width: 512
GlyphClass: 3
Flags: W
LayerCount: 2
Fore
SplineSet
505 5 m 2,0,1
 512 -2 512 -2 512 -12 c 128,-1,2
 512 -22 512 -22 505 -29 c 2,3,-1
 477 -57 l 2,4,5
 470 -64 470 -64 460 -64 c 128,-1,6
 450 -64 450 -64 443 -57 c 2,7,-1
 343 43 l 2,8,9
 336 50 336 50 336 60 c 2,10,-1
 336 76 l 1,11,12
 280 32 280 32 208 32 c 0,13,14
 122 32 122 32 61 93 c 128,-1,15
 0 154 0 154 0 240 c 128,-1,16
 0 326 0 326 61 387 c 128,-1,17
 122 448 122 448 208 448 c 128,-1,18
 294 448 294 448 355 387 c 128,-1,19
 416 326 416 326 416 240 c 0,20,21
 416 168 416 168 372 112 c 1,22,-1
 388 112 l 2,23,24
 398 112 398 112 405 105 c 2,25,-1
 505 5 l 2,0,1
208 112 m 128,-1,27
 261 112 261 112 298.5 149.5 c 128,-1,28
 336 187 336 187 336 240 c 128,-1,29
 336 293 336 293 298.5 330.5 c 128,-1,30
 261 368 261 368 208 368 c 128,-1,31
 155 368 155 368 117.5 330.5 c 128,-1,32
 80 293 80 293 80 240 c 128,-1,33
 80 187 80 187 117.5 149.5 c 128,-1,26
 155 112 155 112 208 112 c 128,-1,27
EndSplineSet
Validated: 1
EndChar

StartChar: heart
Encoding: 61444 61444 71
Width: 512
GlyphClass: 3
Flags: W
LayerCount: 2
Fore
SplineSet
462 385 m 0,0,1
 509 345 509 345 512 283 c 128,-1,2
 515 221 515 221 472 178 c 2,3,-1
 279 -22 l 2,4,5
 269 -32 269 -32 256 -32 c 128,-1,6
 243 -32 243 -32 233 -22 c 2,7,-1
 40 178 l 2,8,9
 -3 221 -3 221 0 283 c 128,-1,10
 3 345 3 345 50 385 c 0,11,12
 91 420 91 420 144.5 415.5 c 128,-1,13
 198 411 198 411 236 372 c 2,14,-1
 256 352 l 1,15,-1
 276 372 l 2,16,17
 314 411 314 411 367.5 415.5 c 128,-1,18
 421 420 421 420 462 385 c 0,0,1
EndSplineSet
Validated: 33
EndChar

StartChar: star
Encoding: 61445 61445 72
Width: 576
GlyphClass: 3
Flags: W
LayerCount: 2
Fore
SplineSet
259 430 m 2,0,1
 268 448 268 448 288 448 c 128,-1,2
 308 448 308 448 317 430 c 2,3,-1
 382 298 l 1,4,-1
 528 276 l 2,5,6
 548 274 548 274 554 255 c 128,-1,7
 560 236 560 236 546 222 c 2,8,-1
 440 119 l 1,9,-1
 465 -27 l 2,10,11
 468 -46 468 -46 452 -57.5 c 128,-1,12
 436 -69 436 -69 419 -60 c 2,13,-1
 288 8 l 1,14,-1
 157 -60 l 2,15,16
 140 -70 140 -70 124 -58 c 128,-1,17
 108 -46 108 -46 111 -27 c 2,18,-1
 136 119 l 1,19,-1
 30 222 l 2,20,21
 16 236 16 236 22 255 c 128,-1,22
 28 274 28 274 48 276 c 2,23,-1
 194 298 l 1,24,-1
 259 430 l 2,0,1
EndSplineSet
Validated: 33
EndChar

StartChar: user
Encoding: 61447 61447 73
Width: 448
GlyphClass: 3
Flags: W
LayerCount: 2
Fore
SplineSet
224 192 m 128,-1,1
 171 192 171 192 133.5 229.5 c 128,-1,2
 96 267 96 267 96 320 c 128,-1,3
 96 373 96 373 133.5 410.5 c 128,-1,4
 171 448 171 448 224 448 c 128,-1,5
 277 448 277 448 314.5 410.5 c 128,-1,6
 352 373 352 373 352 320 c 128,-1,7
 352 267 352 267 314.5 229.5 c 128,-1,0
 277 192 277 192 224 192 c 128,-1,1
314 160 m 2,8,9
 369 160 369 160 408.5 120.5 c 128,-1,10
 448 81 448 81 448 26 c 2,11,-1
 448 -16 l 2,12,13
 448 -36 448 -36 434 -50 c 128,-1,14
 420 -64 420 -64 400 -64 c 2,15,-1
 48 -64 l 2,16,17
 28 -64 28 -64 14 -50 c 128,-1,18
 0 -36 0 -36 0 -16 c 2,19,-1
 0 26 l 2,20,21
 0 81 0 81 39.5 120.5 c 128,-1,22
 79 160 79 160 134 160 c 2,23,-1
 151 160 l 1,24,25
 186 144 186 144 224 144 c 128,-1,26
 262 144 262 144 297 160 c 1,27,-1
 314 160 l 2,8,9
EndSplineSet
Validated: 1
EndChar

StartChar: film
Encoding: 61448 61448 74
Width: 512
GlyphClass: 3
Flags: W
LayerCount: 2
Fore
SplineSet
488 384 m 2,0,1
 498 384 498 384 505 377 c 128,-1,2
 512 370 512 370 512 360 c 2,3,-1
 512 24 l 2,4,5
 512 14 512 14 505 7 c 128,-1,6
 498 0 498 0 488 0 c 2,7,-1
 480 0 l 1,8,-1
 480 20 l 2,9,10
 480 32 480 32 468 32 c 2,11,-1
 428 32 l 2,12,13
 416 32 416 32 416 20 c 2,14,-1
 416 0 l 1,15,-1
 96 0 l 1,16,-1
 96 20 l 2,17,18
 96 32 96 32 84 32 c 2,19,-1
 44 32 l 2,20,21
 32 32 32 32 32 20 c 2,22,-1
 32 0 l 1,23,-1
 24 0 l 2,24,25
 14 0 14 0 7 7 c 128,-1,26
 0 14 0 14 0 24 c 2,27,-1
 0 360 l 2,28,29
 0 370 0 370 7 377 c 128,-1,30
 14 384 14 384 24 384 c 2,31,-1
 32 384 l 1,32,-1
 32 364 l 2,33,34
 32 352 32 352 44 352 c 2,35,-1
 84 352 l 2,36,37
 96 352 96 352 96 364 c 2,38,-1
 96 384 l 1,39,-1
 416 384 l 1,40,-1
 416 364 l 2,41,42
 416 352 416 352 428 352 c 2,43,-1
 468 352 l 2,44,45
 480 352 480 352 480 364 c 2,46,-1
 480 384 l 1,47,-1
 488 384 l 2,0,1
96 76 m 2,48,-1
 96 116 l 2,49,50
 96 128 96 128 84 128 c 2,51,-1
 44 128 l 2,52,53
 32 128 32 128 32 116 c 2,54,-1
 32 76 l 2,55,56
 32 64 32 64 44 64 c 2,57,-1
 84 64 l 2,58,59
 96 64 96 64 96 76 c 2,48,-1
96 172 m 2,60,-1
 96 212 l 2,61,62
 96 224 96 224 84 224 c 2,63,-1
 44 224 l 2,64,65
 32 224 32 224 32 212 c 2,66,-1
 32 172 l 2,67,68
 32 160 32 160 44 160 c 2,69,-1
 84 160 l 2,70,71
 96 160 96 160 96 172 c 2,60,-1
96 268 m 2,72,-1
 96 308 l 2,73,74
 96 320 96 320 84 320 c 2,75,-1
 44 320 l 2,76,77
 32 320 32 320 32 308 c 2,78,-1
 32 268 l 2,79,80
 32 256 32 256 44 256 c 2,81,-1
 84 256 l 2,82,83
 96 256 96 256 96 268 c 2,72,-1
368 60 m 2,84,-1
 368 156 l 2,85,86
 368 168 368 168 356 168 c 2,87,-1
 156 168 l 2,88,89
 144 168 144 168 144 156 c 2,90,-1
 144 60 l 2,91,92
 144 48 144 48 156 48 c 2,93,-1
 356 48 l 2,94,95
 368 48 368 48 368 60 c 2,84,-1
368 228 m 2,96,-1
 368 324 l 2,97,98
 368 336 368 336 356 336 c 2,99,-1
 156 336 l 2,100,101
 144 336 144 336 144 324 c 2,102,-1
 144 228 l 2,103,104
 144 216 144 216 156 216 c 2,105,-1
 356 216 l 2,106,107
 368 216 368 216 368 228 c 2,96,-1
480 76 m 2,108,-1
 480 116 l 2,109,110
 480 128 480 128 468 128 c 2,111,-1
 428 128 l 2,112,113
 416 128 416 128 416 116 c 2,114,-1
 416 76 l 2,115,116
 416 64 416 64 428 64 c 2,117,-1
 468 64 l 2,118,119
 480 64 480 64 480 76 c 2,108,-1
480 172 m 2,120,-1
 480 212 l 2,121,122
 480 224 480 224 468 224 c 2,123,-1
 428 224 l 2,124,125
 416 224 416 224 416 212 c 2,126,-1
 416 172 l 2,127,128
 416 160 416 160 428 160 c 2,129,-1
 468 160 l 2,130,131
 480 160 480 160 480 172 c 2,120,-1
480 268 m 2,132,-1
 480 308 l 2,133,134
 480 320 480 320 468 320 c 2,135,-1
 428 320 l 2,136,137
 416 320 416 320 416 308 c 2,138,-1
 416 268 l 2,139,140
 416 256 416 256 428 256 c 2,141,-1
 468 256 l 2,142,143
 480 256 480 256 480 268 c 2,132,-1
EndSplineSet
Validated: 1
EndChar

StartChar: th-large
Encoding: 61449 61449 75
Width: 512
GlyphClass: 3
Flags: W
LayerCount: 2
Fore
SplineSet
296 416 m 2,0,-1
 488 416 l 2,1,2
 498 416 498 416 505 409 c 128,-1,3
 512 402 512 402 512 392 c 2,4,-1
 512 232 l 2,5,6
 512 222 512 222 505 215 c 128,-1,7
 498 208 498 208 488 208 c 2,8,-1
 296 208 l 2,9,10
 286 208 286 208 279 215 c 128,-1,11
 272 222 272 222 272 232 c 2,12,-1
 272 392 l 2,13,14
 272 402 272 402 279 409 c 128,-1,15
 286 416 286 416 296 416 c 2,0,-1
216 416 m 2,16,17
 226 416 226 416 233 409 c 128,-1,18
 240 402 240 402 240 392 c 2,19,-1
 240 232 l 2,20,21
 240 222 240 222 233 215 c 128,-1,22
 226 208 226 208 216 208 c 2,23,-1
 24 208 l 2,24,25
 14 208 14 208 7 215 c 128,-1,26
 0 222 0 222 0 232 c 2,27,-1
 0 392 l 2,28,29
 0 402 0 402 7 409 c 128,-1,30
 14 416 14 416 24 416 c 2,31,-1
 216 416 l 2,16,17
0 152 m 2,32,33
 0 162 0 162 7 169 c 128,-1,34
 14 176 14 176 24 176 c 2,35,-1
 216 176 l 2,36,37
 226 176 226 176 233 169 c 128,-1,38
 240 162 240 162 240 152 c 2,39,-1
 240 -8 l 2,40,41
 240 -18 240 -18 233 -25 c 128,-1,42
 226 -32 226 -32 216 -32 c 2,43,-1
 24 -32 l 2,44,45
 14 -32 14 -32 7 -25 c 128,-1,46
 0 -18 0 -18 0 -8 c 2,47,-1
 0 152 l 2,32,33
296 -32 m 2,48,49
 286 -32 286 -32 279 -25 c 128,-1,50
 272 -18 272 -18 272 -8 c 2,51,-1
 272 152 l 2,52,53
 272 162 272 162 279 169 c 128,-1,54
 286 176 286 176 296 176 c 2,55,-1
 488 176 l 2,56,57
 498 176 498 176 505 169 c 128,-1,58
 512 162 512 162 512 152 c 2,59,-1
 512 -8 l 2,60,61
 512 -18 512 -18 505 -25 c 128,-1,62
 498 -32 498 -32 488 -32 c 2,63,-1
 296 -32 l 2,48,49
EndSplineSet
Validated: 513
EndChar

StartChar: th
Encoding: 61450 61450 76
Width: 512
GlyphClass: 3
Flags: W
LayerCount: 2
Fore
SplineSet
149 392 m 2,0,-1
 149 312 l 2,1,2
 149 302 149 302 142 295 c 128,-1,3
 135 288 135 288 125 288 c 2,4,-1
 24 288 l 2,5,6
 14 288 14 288 7 295 c 128,-1,7
 0 302 0 302 0 312 c 2,8,-1
 0 392 l 2,9,10
 0 402 0 402 7 409 c 128,-1,11
 14 416 14 416 24 416 c 2,12,-1
 125 416 l 2,13,14
 135 416 135 416 142 409 c 128,-1,15
 149 402 149 402 149 392 c 2,0,-1
331 152 m 2,16,17
 331 145 331 145 327.5 139.5 c 128,-1,18
 324 134 324 134 318.5 131 c 128,-1,19
 313 128 313 128 307 128 c 2,20,-1
 205 128 l 2,21,22
 195 128 195 128 188 135 c 128,-1,23
 181 142 181 142 181 152 c 2,24,-1
 181 232 l 2,25,26
 181 242 181 242 188 249 c 128,-1,27
 195 256 195 256 205 256 c 2,28,-1
 307 256 l 2,29,30
 317 256 317 256 324 249 c 128,-1,31
 331 242 331 242 331 232 c 2,32,-1
 331 152 l 2,16,17
363 392 m 2,33,34
 363 402 363 402 370 409 c 128,-1,35
 377 416 377 416 387 416 c 2,36,-1
 488 416 l 2,37,38
 498 416 498 416 505 409 c 128,-1,39
 512 402 512 402 512 392 c 2,40,-1
 512 312 l 2,41,42
 512 302 512 302 505 295 c 128,-1,43
 498 288 498 288 488 288 c 2,44,-1
 387 288 l 2,45,46
 377 288 377 288 370 295 c 128,-1,47
 363 302 363 302 363 312 c 2,48,-1
 363 392 l 2,33,34
331 312 m 2,49,50
 331 307 331 307 329 302.5 c 128,-1,51
 327 298 327 298 323.5 295 c 128,-1,52
 320 292 320 292 316 290 c 128,-1,53
 312 288 312 288 307 288 c 2,54,-1
 205 288 l 2,55,56
 195 288 195 288 188 295 c 128,-1,57
 181 302 181 302 181 312 c 2,58,-1
 181 392 l 2,59,60
 181 402 181 402 188 409 c 128,-1,61
 195 416 195 416 205 416 c 2,62,-1
 307 416 l 2,63,64
 317 416 317 416 324 409 c 128,-1,65
 331 402 331 402 331 392 c 2,66,-1
 331 312 l 2,49,50
125 256 m 2,67,68
 135 256 135 256 142 249 c 128,-1,69
 149 242 149 242 149 232 c 2,70,-1
 149 152 l 2,71,72
 149 142 149 142 142 135 c 128,-1,73
 135 128 135 128 125 128 c 2,74,-1
 24 128 l 2,75,76
 14 128 14 128 7 135 c 128,-1,77
 0 142 0 142 0 152 c 2,78,-1
 0 232 l 2,79,80
 0 242 0 242 7 249 c 128,-1,81
 14 256 14 256 24 256 c 2,82,-1
 125 256 l 2,67,68
0 72 m 2,83,84
 0 82 0 82 7 89 c 128,-1,85
 14 96 14 96 24 96 c 2,86,-1
 125 96 l 2,87,88
 135 96 135 96 142 89 c 128,-1,89
 149 82 149 82 149 72 c 2,90,-1
 149 -8 l 2,91,92
 149 -18 149 -18 142 -25 c 128,-1,93
 135 -32 135 -32 125 -32 c 2,94,-1
 24 -32 l 2,95,96
 14 -32 14 -32 7 -25 c 128,-1,97
 0 -18 0 -18 0 -8 c 2,98,-1
 0 72 l 2,83,84
387 128 m 2,99,100
 377 128 377 128 370 135 c 128,-1,101
 363 142 363 142 363 152 c 2,102,-1
 363 232 l 2,103,104
 363 242 363 242 370 249 c 128,-1,105
 377 256 377 256 387 256 c 2,106,-1
 488 256 l 2,107,108
 498 256 498 256 505 249 c 128,-1,109
 512 242 512 242 512 232 c 2,110,-1
 512 152 l 2,111,112
 512 142 512 142 505 135 c 128,-1,113
 498 128 498 128 488 128 c 2,114,-1
 387 128 l 2,99,100
387 -32 m 2,115,116
 377 -32 377 -32 370 -25 c 128,-1,117
 363 -18 363 -18 363 -8 c 2,118,-1
 363 72 l 2,119,120
 363 82 363 82 370 89 c 128,-1,121
 377 96 377 96 387 96 c 2,122,-1
 488 96 l 2,123,124
 498 96 498 96 505 89 c 128,-1,125
 512 82 512 82 512 72 c 2,126,-1
 512 -8 l 2,127,128
 512 -18 512 -18 505 -25 c 128,-1,129
 498 -32 498 -32 488 -32 c 2,130,-1
 387 -32 l 2,115,116
181 72 m 2,131,132
 181 82 181 82 188 89 c 128,-1,133
 195 96 195 96 205 96 c 2,134,-1
 307 96 l 2,135,136
 317 96 317 96 324 89 c 128,-1,137
 331 82 331 82 331 72 c 2,138,-1
 331 -8 l 2,139,140
 331 -18 331 -18 324 -25 c 128,-1,141
 317 -32 317 -32 307 -32 c 2,142,-1
 205 -32 l 2,143,144
 195 -32 195 -32 188 -25 c 128,-1,145
 181 -18 181 -18 181 -8 c 2,146,-1
 181 72 l 2,131,132
EndSplineSet
Validated: 1
EndChar

StartChar: th-list
Encoding: 61451 61451 77
Width: 512
GlyphClass: 3
Flags: W
LayerCount: 2
Fore
SplineSet
149 232 m 2,0,-1
 149 152 l 2,1,2
 149 142 149 142 142 135 c 128,-1,3
 135 128 135 128 125 128 c 2,4,-1
 24 128 l 2,5,6
 14 128 14 128 7 135 c 128,-1,7
 0 142 0 142 0 152 c 2,8,-1
 0 232 l 2,9,10
 0 242 0 242 7 249 c 128,-1,11
 14 256 14 256 24 256 c 2,12,-1
 125 256 l 2,13,14
 135 256 135 256 142 249 c 128,-1,15
 149 242 149 242 149 232 c 2,0,-1
0 72 m 2,16,17
 0 82 0 82 7 89 c 128,-1,18
 14 96 14 96 24 96 c 2,19,-1
 125 96 l 2,20,21
 135 96 135 96 142 89 c 128,-1,22
 149 82 149 82 149 72 c 2,23,-1
 149 -8 l 2,24,25
 149 -18 149 -18 142 -25 c 128,-1,26
 135 -32 135 -32 125 -32 c 2,27,-1
 24 -32 l 2,28,29
 14 -32 14 -32 7 -25 c 128,-1,30
 0 -18 0 -18 0 -8 c 2,31,-1
 0 72 l 2,16,17
125 416 m 2,32,33
 135 416 135 416 142 409 c 128,-1,34
 149 402 149 402 149 392 c 2,35,-1
 149 312 l 2,36,37
 149 302 149 302 142 295 c 128,-1,38
 135 288 135 288 125 288 c 2,39,-1
 24 288 l 2,40,41
 14 288 14 288 7 295 c 128,-1,42
 0 302 0 302 0 312 c 2,43,-1
 0 392 l 2,44,45
 0 402 0 402 7 409 c 128,-1,46
 14 416 14 416 24 416 c 2,47,-1
 125 416 l 2,32,33
205 -32 m 2,48,49
 195 -32 195 -32 188 -25 c 128,-1,50
 181 -18 181 -18 181 -8 c 2,51,-1
 181 72 l 2,52,53
 181 82 181 82 188 89 c 128,-1,54
 195 96 195 96 205 96 c 2,55,-1
 488 96 l 2,56,57
 498 96 498 96 505 89 c 128,-1,58
 512 82 512 82 512 72 c 2,59,-1
 512 -8 l 2,60,61
 512 -18 512 -18 505 -25 c 128,-1,62
 498 -32 498 -32 488 -32 c 2,63,-1
 205 -32 l 2,48,49
181 392 m 2,64,65
 181 402 181 402 188 409 c 128,-1,66
 195 416 195 416 205 416 c 2,67,-1
 488 416 l 2,68,69
 498 416 498 416 505 409 c 128,-1,70
 512 402 512 402 512 392 c 2,71,-1
 512 312 l 2,72,73
 512 302 512 302 505 295 c 128,-1,74
 498 288 498 288 488 288 c 2,75,-1
 205 288 l 2,76,77
 195 288 195 288 188 295 c 128,-1,78
 181 302 181 302 181 312 c 2,79,-1
 181 392 l 2,64,65
205 128 m 2,80,81
 195 128 195 128 188 135 c 128,-1,82
 181 142 181 142 181 152 c 2,83,-1
 181 232 l 2,84,85
 181 242 181 242 188 249 c 128,-1,86
 195 256 195 256 205 256 c 2,87,-1
 488 256 l 2,88,89
 498 256 498 256 505 249 c 128,-1,90
 512 242 512 242 512 232 c 2,91,-1
 512 152 l 2,92,93
 512 142 512 142 505 135 c 128,-1,94
 498 128 498 128 488 128 c 2,95,-1
 205 128 l 2,80,81
EndSplineSet
Validated: 513
EndChar

StartChar: check
Encoding: 61452 61452 78
Width: 512
GlyphClass: 3
Flags: W
LayerCount: 2
Fore
SplineSet
174 9 m 2,0,-1
 7 175 l 2,1,2
 0 182 0 182 0 193 c 128,-1,3
 0 204 0 204 7 211 c 2,4,-1
 44 247 l 2,5,6
 51 255 51 255 61.5 255 c 128,-1,7
 72 255 72 255 80 247 c 2,8,-1
 192 135 l 1,9,-1
 432 375 l 2,10,11
 440 383 440 383 450.5 383 c 128,-1,12
 461 383 461 383 468 375 c 2,13,-1
 505 339 l 2,14,15
 512 332 512 332 512 321 c 128,-1,16
 512 310 512 310 505 303 c 2,17,-1
 210 9 l 2,18,19
 203 1 203 1 192 1 c 128,-1,20
 181 1 181 1 174 9 c 2,0,-1
EndSplineSet
Validated: 1
EndChar

StartChar: times
Encoding: 61453 61453 79
Width: 352
GlyphClass: 3
Flags: W
LayerCount: 2
Fore
SplineSet
243 192 m 1,0,-1
 343 92 l 2,1,2
 352 83 352 83 352 70 c 128,-1,3
 352 57 352 57 343 47 c 2,4,-1
 321 25 l 2,5,6
 311 16 311 16 298 16 c 128,-1,7
 285 16 285 16 276 25 c 2,8,-1
 176 125 l 1,9,-1
 76 25 l 2,10,11
 67 16 67 16 54 16 c 128,-1,12
 41 16 41 16 31 25 c 2,13,-1
 9 47 l 2,14,15
 0 57 0 57 0 70 c 128,-1,16
 0 83 0 83 9 92 c 2,17,-1
 109 192 l 1,18,-1
 9 292 l 2,19,20
 0 301 0 301 0 314 c 128,-1,21
 0 327 0 327 9 337 c 2,22,-1
 31 359 l 2,23,24
 41 368 41 368 54 368 c 128,-1,25
 67 368 67 368 76 359 c 2,26,-1
 176 259 l 1,27,-1
 276 359 l 2,28,29
 285 368 285 368 298 368 c 128,-1,30
 311 368 311 368 321 359 c 2,31,-1
 343 337 l 2,32,33
 352 327 352 327 352 314 c 128,-1,34
 352 301 352 301 343 292 c 2,35,-1
 243 192 l 1,0,-1
EndSplineSet
Validated: 1
EndChar

StartChar: search-plus
Encoding: 61454 61454 80
Width: 512
GlyphClass: 3
Flags: W
LayerCount: 2
Fore
SplineSet
304 256 m 2,0,-1
 304 224 l 2,1,2
 304 212 304 212 292 212 c 2,3,-1
 236 212 l 1,4,-1
 236 156 l 2,5,6
 236 144 236 144 224 144 c 2,7,-1
 192 144 l 2,8,9
 180 144 180 144 180 156 c 2,10,-1
 180 212 l 1,11,-1
 124 212 l 2,12,13
 112 212 112 212 112 224 c 2,14,-1
 112 256 l 2,15,16
 112 268 112 268 124 268 c 2,17,-1
 180 268 l 1,18,-1
 180 324 l 2,19,20
 180 336 180 336 192 336 c 2,21,-1
 224 336 l 2,22,23
 236 336 236 336 236 324 c 2,24,-1
 236 268 l 1,25,-1
 292 268 l 2,26,27
 304 268 304 268 304 256 c 2,0,-1
505 -29 m 2,28,-1
 477 -57 l 2,29,30
 470 -64 470 -64 460 -64 c 128,-1,31
 450 -64 450 -64 443 -57 c 2,32,-1
 343 43 l 2,33,34
 336 50 336 50 336 60 c 2,35,-1
 336 76 l 1,36,37
 280 32 280 32 208 32 c 0,38,39
 122 32 122 32 61 93 c 128,-1,40
 0 154 0 154 0 240 c 128,-1,41
 0 326 0 326 61 387 c 128,-1,42
 122 448 122 448 208 448 c 128,-1,43
 294 448 294 448 355 387 c 128,-1,44
 416 326 416 326 416 240 c 0,45,46
 416 168 416 168 372 112 c 1,47,-1
 388 112 l 2,48,49
 398 112 398 112 405 105 c 2,50,-1
 505 5 l 2,51,52
 512 -2 512 -2 512 -12 c 128,-1,53
 512 -22 512 -22 505 -29 c 2,28,-1
344 240 m 128,-1,55
 344 296 344 296 304 336 c 128,-1,56
 264 376 264 376 208 376 c 128,-1,57
 152 376 152 376 112 336 c 128,-1,58
 72 296 72 296 72 240 c 128,-1,59
 72 184 72 184 112 144 c 128,-1,60
 152 104 152 104 208 104 c 128,-1,61
 264 104 264 104 304 144 c 128,-1,54
 344 184 344 184 344 240 c 128,-1,55
EndSplineSet
Validated: 513
EndChar

StartChar: search-minus
Encoding: 61456 61456 81
Width: 512
GlyphClass: 3
Flags: W
LayerCount: 2
Fore
SplineSet
304 256 m 2,0,-1
 304 224 l 2,1,2
 304 212 304 212 292 212 c 2,3,-1
 124 212 l 2,4,5
 112 212 112 212 112 224 c 2,6,-1
 112 256 l 2,7,8
 112 268 112 268 124 268 c 2,9,-1
 292 268 l 2,10,11
 304 268 304 268 304 256 c 2,0,-1
505 -29 m 2,12,-1
 477 -57 l 2,13,14
 470 -64 470 -64 460 -64 c 128,-1,15
 450 -64 450 -64 443 -57 c 2,16,-1
 343 43 l 2,17,18
 336 50 336 50 336 60 c 2,19,-1
 336 76 l 1,20,21
 280 32 280 32 208 32 c 0,22,23
 122 32 122 32 61 93 c 128,-1,24
 0 154 0 154 0 240 c 128,-1,25
 0 326 0 326 61 387 c 128,-1,26
 122 448 122 448 208 448 c 128,-1,27
 294 448 294 448 355 387 c 128,-1,28
 416 326 416 326 416 240 c 0,29,30
 416 168 416 168 372 112 c 1,31,-1
 388 112 l 2,32,33
 398 112 398 112 405 105 c 2,34,-1
 505 5 l 2,35,36
 512 -2 512 -2 512 -12 c 128,-1,37
 512 -22 512 -22 505 -29 c 2,12,-1
344 240 m 128,-1,39
 344 296 344 296 304 336 c 128,-1,40
 264 376 264 376 208 376 c 128,-1,41
 152 376 152 376 112 336 c 128,-1,42
 72 296 72 296 72 240 c 128,-1,43
 72 184 72 184 112 144 c 128,-1,44
 152 104 152 104 208 104 c 128,-1,45
 264 104 264 104 304 144 c 128,-1,38
 344 184 344 184 344 240 c 128,-1,39
EndSplineSet
Validated: 513
EndChar

StartChar: power-off
Encoding: 61457 61457 82
Width: 512
GlyphClass: 3
Flags: W
LayerCount: 2
Fore
SplineSet
400 394 m 0,0,1
 448 360 448 360 476 306.5 c 128,-1,2
 504 253 504 253 504 192 c 0,3,4
 504 89 504 89 431.5 16.5 c 128,-1,5
 359 -56 359 -56 256 -56 c 0,6,7
 189 -56 189 -56 132 -23 c 128,-1,8
 75 10 75 10 41.5 67 c 128,-1,9
 8 124 8 124 8 192 c 0,10,11
 8 233 8 233 21 271 c 128,-1,12
 34 309 34 309 57 340 c 128,-1,13
 80 371 80 371 112 394 c 0,14,15
 121 400 121 400 131.5 397.5 c 128,-1,16
 142 395 142 395 147 386 c 2,17,-1
 163 358 l 2,18,19
 167 350 167 350 165 341 c 128,-1,20
 163 332 163 332 156 327 c 0,21,22
 140 315 140 315 127.5 300.5 c 128,-1,23
 115 286 115 286 106.5 269 c 128,-1,24
 98 252 98 252 93 232.5 c 128,-1,25
 88 213 88 213 88 192 c 0,26,27
 88 123 88 123 137 73.5 c 128,-1,28
 186 24 186 24 256 24 c 0,29,30
 325 24 325 24 374.5 73 c 128,-1,31
 424 122 424 122 424 193 c 0,32,33
 424 232 424 232 406 267.5 c 128,-1,34
 388 303 388 303 356 327 c 0,35,36
 349 332 349 332 347 341 c 128,-1,37
 345 350 345 350 349 358 c 2,38,-1
 365 386 l 2,39,40
 370 395 370 395 380.5 397.5 c 128,-1,41
 391 400 391 400 400 394 c 0,0,1
296 184 m 2,42,43
 296 174 296 174 289 167 c 128,-1,44
 282 160 282 160 272 160 c 2,45,-1
 240 160 l 2,46,47
 230 160 230 160 223 167 c 128,-1,48
 216 174 216 174 216 184 c 2,49,-1
 216 424 l 2,50,51
 216 434 216 434 223 441 c 128,-1,52
 230 448 230 448 240 448 c 2,53,-1
 272 448 l 2,54,55
 282 448 282 448 289 441 c 128,-1,56
 296 434 296 434 296 424 c 2,57,-1
 296 184 l 2,42,43
EndSplineSet
Validated: 545
EndChar

StartChar: signal
Encoding: 61458 61458 83
Width: 640
GlyphClass: 3
Flags: W
LayerCount: 2
Fore
SplineSet
216 160 m 2,0,1
 223 160 223 160 227.5 155.5 c 128,-1,2
 232 151 232 151 232 144 c 2,3,-1
 232 -48 l 2,4,5
 232 -55 232 -55 227.5 -59.5 c 128,-1,6
 223 -64 223 -64 216 -64 c 2,7,-1
 168 -64 l 2,8,9
 161 -64 161 -64 156.5 -59.5 c 128,-1,10
 152 -55 152 -55 152 -48 c 2,11,-1
 152 144 l 2,12,13
 152 151 152 151 156.5 155.5 c 128,-1,14
 161 160 161 160 168 160 c 2,15,-1
 216 160 l 2,0,1
88 64 m 2,16,17
 95 64 95 64 99.5 59.5 c 128,-1,18
 104 55 104 55 104 48 c 2,19,-1
 104 -48 l 2,20,21
 104 -55 104 -55 99.5 -59.5 c 128,-1,22
 95 -64 95 -64 88 -64 c 2,23,-1
 40 -64 l 2,24,25
 33 -64 33 -64 28.5 -59.5 c 128,-1,26
 24 -55 24 -55 24 -48 c 2,27,-1
 24 48 l 2,28,29
 24 55 24 55 28.5 59.5 c 128,-1,30
 33 64 33 64 40 64 c 2,31,-1
 88 64 l 2,16,17
344 256 m 2,32,33
 351 256 351 256 355.5 251.5 c 128,-1,34
 360 247 360 247 360 240 c 2,35,-1
 360 -48 l 2,36,37
 360 -55 360 -55 355.5 -59.5 c 128,-1,38
 351 -64 351 -64 344 -64 c 2,39,-1
 296 -64 l 2,40,41
 289 -64 289 -64 284.5 -59.5 c 128,-1,42
 280 -55 280 -55 280 -48 c 2,43,-1
 280 240 l 2,44,45
 280 247 280 247 284.5 251.5 c 128,-1,46
 289 256 289 256 296 256 c 2,47,-1
 344 256 l 2,32,33
472 352 m 2,48,49
 479 352 479 352 483.5 347.5 c 128,-1,50
 488 343 488 343 488 336 c 2,51,-1
 488 -48 l 2,52,53
 488 -55 488 -55 483.5 -59.5 c 128,-1,54
 479 -64 479 -64 472 -64 c 2,55,-1
 424 -64 l 2,56,57
 417 -64 417 -64 412.5 -59.5 c 128,-1,58
 408 -55 408 -55 408 -48 c 2,59,-1
 408 336 l 2,60,61
 408 343 408 343 412.5 347.5 c 128,-1,62
 417 352 417 352 424 352 c 2,63,-1
 472 352 l 2,48,49
600 448 m 2,64,65
 607 448 607 448 611.5 443.5 c 128,-1,66
 616 439 616 439 616 432 c 2,67,-1
 616 -48 l 2,68,69
 616 -55 616 -55 611.5 -59.5 c 128,-1,70
 607 -64 607 -64 600 -64 c 2,71,-1
 552 -64 l 2,72,73
 545 -64 545 -64 540.5 -59.5 c 128,-1,74
 536 -55 536 -55 536 -48 c 2,75,-1
 536 432 l 2,76,77
 536 439 536 439 540.5 443.5 c 128,-1,78
 545 448 545 448 552 448 c 2,79,-1
 600 448 l 2,64,65
EndSplineSet
Validated: 1
EndChar

StartChar: cog
Encoding: 61459 61459 84
Width: 512
GlyphClass: 3
Flags: W
LayerCount: 2
Fore
SplineSet
487 132 m 2,0,1
 496 128 496 128 493 118 c 0,2,3
 476 65 476 65 438 24 c 0,4,5
 432 17 432 17 424 21 c 2,6,-1
 381 46 l 1,7,8
 354 23 354 23 320 11 c 1,9,-1
 320 -38 l 2,10,11
 320 -48 320 -48 311 -50 c 0,12,13
 256 -62 256 -62 202 -50 c 0,14,15
 192 -48 192 -48 192 -38 c 2,16,-1
 192 11 l 1,17,18
 158 23 158 23 131 46 c 1,19,-1
 89 21 l 2,20,21
 80 17 80 17 74 24 c 0,22,23
 36 65 36 65 19 118 c 0,24,25
 16 127 16 127 25 132 c 2,26,-1
 67 157 l 1,27,28
 64 174 64 174 64 192 c 128,-1,29
 64 210 64 210 67 227 c 1,30,-1
 25 252 l 2,31,32
 16 256 16 256 19 266 c 0,33,34
 36 319 36 319 74 360 c 0,35,36
 80 367 80 367 89 362 c 2,37,-1
 131 338 l 1,38,39
 158 361 158 361 192 373 c 1,40,-1
 192 422 l 2,41,42
 192 432 192 432 201 434 c 0,43,44
 256 446 256 446 311 434 c 0,45,46
 320 432 320 432 320 422 c 2,47,-1
 320 373 l 1,48,49
 354 361 354 361 381 338 c 1,50,-1
 423 363 l 2,51,52
 432 367 432 367 438 360 c 0,53,54
 476 319 476 319 493 266 c 0,55,56
 496 256 496 256 487 252 c 2,57,-1
 445 227 l 1,58,59
 451 192 451 192 445 157 c 1,60,-1
 487 132 l 2,0,1
256 112 m 128,-1,62
 289 112 289 112 312.5 135.5 c 128,-1,63
 336 159 336 159 336 192 c 128,-1,64
 336 225 336 225 312.5 248.5 c 128,-1,65
 289 272 289 272 256 272 c 128,-1,66
 223 272 223 272 199.5 248.5 c 128,-1,67
 176 225 176 225 176 192 c 128,-1,68
 176 159 176 159 199.5 135.5 c 128,-1,61
 223 112 223 112 256 112 c 128,-1,62
EndSplineSet
Validated: 33
EndChar

StartChar: home
Encoding: 61461 61461 85
Width: 576
GlyphClass: 3
Flags: W
LayerCount: 2
Fore
SplineSet
280 300 m 2,0,1
 284 302 284 302 288 302 c 128,-1,2
 292 302 292 302 296 300 c 2,3,-1
 480 148 l 1,4,-1
 480 -16 l 2,5,6
 480 -23 480 -23 475.5 -27.5 c 128,-1,7
 471 -32 471 -32 464 -32 c 2,8,-1
 352 -32 l 2,9,10
 345 -32 345 -32 340.5 -27 c 128,-1,11
 336 -22 336 -22 336 -16 c 2,12,-1
 336 80 l 2,13,14
 336 84 336 84 334 88 c 128,-1,15
 332 92 332 92 328 94 c 128,-1,16
 324 96 324 96 320 96 c 2,17,-1
 256 96 l 2,18,19
 249 96 249 96 244.5 91.5 c 128,-1,20
 240 87 240 87 240 80 c 2,21,-1
 240 -16 l 2,22,23
 240 -22 240 -22 235.5 -27 c 128,-1,24
 231 -32 231 -32 224 -32 c 2,25,-1
 112 -32 l 2,26,27
 105 -32 105 -32 100.5 -27.5 c 128,-1,28
 96 -23 96 -23 96 -16 c 2,29,-1
 96 148 l 1,30,-1
 280 300 l 2,0,1
572 197 m 2,31,32
 576 193 576 193 576 187 c 0,33,34
 576 183 576 183 573 180 c 2,35,-1
 548 149 l 2,36,37
 544 144 544 144 539 144 c 256,38,39
 534 144 534 144 531 147 c 2,40,-1
 296 341 l 2,41,42
 292 343 292 343 288 343 c 128,-1,43
 284 343 284 343 280 341 c 2,44,-1
 45 147 l 2,45,46
 42 144 42 144 38 144 c 0,47,48
 32 144 32 144 28 149 c 2,49,-1
 3 180 l 2,50,51
 0 183 0 183 0 187 c 0,52,53
 0 193 0 193 4 197 c 2,54,-1
 257 405 l 2,55,56
 271 416 271 416 288 416 c 128,-1,57
 305 416 305 416 318 405 c 2,58,-1
 408 331 l 1,59,-1
 408 404 l 2,60,61
 408 409 408 409 411.5 412.5 c 128,-1,62
 415 416 415 416 420 416 c 2,63,-1
 476 416 l 2,64,65
 481 416 481 416 484.5 412.5 c 128,-1,66
 488 409 488 409 488 404 c 2,67,-1
 488 265 l 1,68,-1
 572 197 l 2,31,32
EndSplineSet
Validated: 1
EndChar

StartChar: clock
Encoding: 61463 61463 86
Width: 512
GlyphClass: 3
Flags: W
LayerCount: 2
Fore
SplineSet
256 440 m 128,-1,1
 359 440 359 440 431.5 367.5 c 128,-1,2
 504 295 504 295 504 192 c 128,-1,3
 504 89 504 89 431.5 16.5 c 128,-1,4
 359 -56 359 -56 256 -56 c 128,-1,5
 153 -56 153 -56 80.5 16.5 c 128,-1,6
 8 89 8 89 8 192 c 128,-1,7
 8 295 8 295 80.5 367.5 c 128,-1,0
 153 440 153 440 256 440 c 128,-1,1
313 90 m 2,8,9
 323 83 323 83 330 92 c 2,10,-1
 358 131 l 2,11,12
 365 141 365 141 356 148 c 2,13,-1
 292 194 l 1,14,-1
 292 332 l 2,15,16
 292 344 292 344 280 344 c 2,17,-1
 232 344 l 2,18,19
 220 344 220 344 220 332 c 2,20,-1
 220 164 l 2,21,22
 220 158 220 158 225 154 c 2,23,-1
 313 90 l 2,8,9
EndSplineSet
Validated: 33
EndChar

StartChar: road
Encoding: 61464 61464 87
Width: 576
GlyphClass: 3
Flags: W
LayerCount: 2
Fore
SplineSet
573 45 m 2,0,1
 580 29 580 29 571 14.5 c 128,-1,2
 562 0 562 0 545 0 c 2,3,-1
 349 0 l 1,4,-1
 338 98 l 2,5,6
 338 104 338 104 333.5 108 c 128,-1,7
 329 112 329 112 322 112 c 2,8,-1
 254 112 l 2,9,10
 250 112 250 112 246.5 110 c 128,-1,11
 243 108 243 108 240.5 105 c 128,-1,12
 238 102 238 102 238 98 c 2,13,-1
 227 0 l 1,14,-1
 31 0 l 2,15,16
 14 0 14 0 5 14.5 c 128,-1,17
 -4 29 -4 29 3 45 c 2,18,-1
 143 365 l 2,19,20
 151 384 151 384 170 384 c 2,21,-1
 268 384 l 1,22,-1
 265 361 l 2,23,24
 265 357 265 357 267.5 354.5 c 128,-1,25
 270 352 270 352 273 352 c 2,26,-1
 303 352 l 2,27,28
 306 352 306 352 308.5 354.5 c 128,-1,29
 311 357 311 357 311 361 c 2,30,-1
 308 384 l 1,31,-1
 406 384 l 2,32,33
 425 384 425 384 433 365 c 2,34,-1
 573 45 l 2,0,1
260 313 m 2,35,-1
 256 269 l 2,36,37
 255 264 255 264 258.5 260 c 128,-1,38
 262 256 262 256 268 256 c 2,39,-1
 308 256 l 2,40,41
 314 256 314 256 317.5 260 c 128,-1,42
 321 264 321 264 320 269 c 2,43,-1
 316 313 l 2,44,45
 315 320 315 320 308 320 c 2,46,-1
 268 320 l 2,47,48
 261 320 261 320 260 313 c 2,35,-1
316 144 m 2,49,50
 320 144 320 144 324 146.5 c 128,-1,51
 328 149 328 149 330 153 c 128,-1,52
 332 157 332 157 332 162 c 2,53,-1
 326 210 l 2,54,55
 326 216 326 216 321.5 220 c 128,-1,56
 317 224 317 224 311 224 c 2,57,-1
 265 224 l 2,58,59
 259 224 259 224 254.5 220 c 128,-1,60
 250 216 250 216 250 210 c 2,61,-1
 244 162 l 2,62,63
 244 157 244 157 246 153 c 128,-1,64
 248 149 248 149 252 146.5 c 128,-1,65
 256 144 256 144 260 144 c 2,66,-1
 316 144 l 2,49,50
EndSplineSet
Validated: 33
EndChar

StartChar: download
Encoding: 61465 61465 88
Width: 512
GlyphClass: 3
Flags: W
LayerCount: 2
Fore
SplineSet
216 448 m 2,0,-1
 296 448 l 2,1,2
 306 448 306 448 313 441 c 128,-1,3
 320 434 320 434 320 424 c 2,4,-1
 320 256 l 1,5,-1
 408 256 l 2,6,7
 421 256 421 256 426 243.5 c 128,-1,8
 431 231 431 231 422 222 c 2,9,-1
 270 70 l 2,10,11
 264 64 264 64 256 64 c 128,-1,12
 248 64 248 64 242 70 c 2,13,-1
 90 222 l 2,14,15
 81 231 81 231 86 243.5 c 128,-1,16
 91 256 91 256 104 256 c 2,17,-1
 192 256 l 1,18,-1
 192 424 l 2,19,20
 192 434 192 434 199 441 c 128,-1,21
 206 448 206 448 216 448 c 2,0,-1
512 72 m 2,22,-1
 512 -40 l 2,23,24
 512 -50 512 -50 505 -57 c 128,-1,25
 498 -64 498 -64 488 -64 c 2,26,-1
 24 -64 l 2,27,28
 14 -64 14 -64 7 -57 c 128,-1,29
 0 -50 0 -50 0 -40 c 2,30,-1
 0 72 l 2,31,32
 0 82 0 82 7 89 c 128,-1,33
 14 96 14 96 24 96 c 2,34,-1
 171 96 l 1,35,-1
 220 47 l 2,36,37
 235 32 235 32 256 32 c 128,-1,38
 277 32 277 32 292 47 c 2,39,-1
 341 96 l 1,40,-1
 488 96 l 2,41,42
 498 96 498 96 505 89 c 128,-1,43
 512 82 512 82 512 72 c 2,22,-1
388 -16 m 128,-1,45
 388 -8 388 -8 382 -2 c 128,-1,46
 376 4 376 4 368 4 c 128,-1,47
 360 4 360 4 354 -2 c 128,-1,48
 348 -8 348 -8 348 -16 c 128,-1,49
 348 -24 348 -24 354 -30 c 128,-1,50
 360 -36 360 -36 368 -36 c 128,-1,51
 376 -36 376 -36 382 -30 c 128,-1,44
 388 -24 388 -24 388 -16 c 128,-1,45
452 -16 m 128,-1,53
 452 -8 452 -8 446 -2 c 128,-1,54
 440 4 440 4 432 4 c 128,-1,55
 424 4 424 4 418 -2 c 128,-1,56
 412 -8 412 -8 412 -16 c 128,-1,57
 412 -24 412 -24 418 -30 c 128,-1,58
 424 -36 424 -36 432 -36 c 128,-1,59
 440 -36 440 -36 446 -30 c 128,-1,52
 452 -24 452 -24 452 -16 c 128,-1,53
EndSplineSet
Validated: 33
EndChar

StartChar: inbox
Encoding: 61468 61468 89
Width: 576
GlyphClass: 3
Flags: W
LayerCount: 2
Fore
SplineSet
568 204 m 2,0,1
 576 192 576 192 576 177 c 2,2,-1
 576 48 l 2,3,4
 576 28 576 28 562 14 c 128,-1,5
 548 0 548 0 528 0 c 2,6,-1
 48 0 l 2,7,8
 28 0 28 0 14 14 c 128,-1,9
 0 28 0 28 0 48 c 2,10,-1
 0 177 l 2,11,12
 0 192 0 192 8 204 c 2,13,-1
 114 363 l 2,14,15
 118 368 118 368 124.5 373 c 128,-1,16
 131 378 131 378 139 381 c 128,-1,17
 147 384 147 384 154 384 c 2,18,-1
 422 384 l 2,19,20
 433 384 433 384 444.5 377.5 c 128,-1,21
 456 371 456 371 462 363 c 2,22,-1
 568 204 l 2,0,1
162 320 m 1,23,-1
 77 192 l 1,24,-1
 200 192 l 1,25,-1
 232 128 l 1,26,-1
 344 128 l 1,27,-1
 376 192 l 1,28,-1
 499 192 l 1,29,-1
 414 320 l 1,30,-1
 162 320 l 1,23,-1
EndSplineSet
Validated: 1
EndChar

StartChar: redo
Encoding: 61470 61470 90
Width: 512
GlyphClass: 3
Flags: W
LayerCount: 2
Fore
SplineSet
500 448 m 2,0,1
 505 448 505 448 508.5 444.5 c 128,-1,2
 512 441 512 441 512 436 c 2,3,-1
 512 236 l 2,4,5
 512 231 512 231 508.5 227.5 c 128,-1,6
 505 224 505 224 500 224 c 2,7,-1
 300 224 l 2,8,9
 295 224 295 224 291.5 227.5 c 128,-1,10
 288 231 288 231 288 236 c 2,11,-1
 288 283 l 2,12,13
 288 288 288 288 291.5 291.5 c 128,-1,14
 295 295 295 295 300 295 c 2,15,16
 300 295 300 295 301 295 c 2,17,-1
 402 290 l 1,18,19
 380 322 380 322 337.5 345 c 128,-1,20
 295 368 295 368 256 368 c 0,21,22
 183 368 183 368 131.5 316.5 c 128,-1,23
 80 265 80 265 80 192 c 128,-1,24
 80 119 80 119 131.5 67.5 c 128,-1,25
 183 16 183 16 256 16 c 0,26,27
 284 16 284 16 318 29 c 128,-1,28
 352 42 352 42 372 60 c 0,29,30
 376 63 376 63 380 63 c 0,31,32
 385 63 385 63 389 59 c 2,33,-1
 423 25 l 2,34,35
 426 22 426 22 426 17 c 0,36,37
 426 11 426 11 422 8 c 0,38,39
 408 -5 408 -5 387.5 -17 c 128,-1,40
 367 -29 367 -29 344.5 -37.5 c 128,-1,41
 322 -46 322 -46 299 -51 c 128,-1,42
 276 -56 276 -56 256 -56 c 0,43,44
 189 -56 189 -56 131.5 -23 c 128,-1,45
 74 10 74 10 41 67 c 128,-1,46
 8 124 8 124 8 192 c 0,47,48
 8 294 8 294 81 367 c 128,-1,49
 154 440 154 440 256 440 c 0,50,51
 287 440 287 440 323.5 428.5 c 128,-1,52
 360 417 360 417 392.5 396.5 c 128,-1,53
 425 376 425 376 445 353 c 1,54,-1
 441 435 l 2,55,56
 441 436 441 436 441 436 c 2,57,58
 441 441 441 441 444.5 444.5 c 128,-1,59
 448 448 448 448 453 448 c 2,60,-1
 500 448 l 2,0,1
EndSplineSet
Validated: 1
EndChar

StartChar: sync
Encoding: 61473 61473 91
Width: 512
GlyphClass: 3
Flags: W
LayerCount: 2
Fore
SplineSet
441 435 m 2,0,1
 441 436 441 436 441 436 c 2,2,3
 441 441 441 441 444.5 444.5 c 128,-1,4
 448 448 448 448 453 448 c 2,5,-1
 500 448 l 2,6,7
 512 448 512 448 512 436 c 2,8,-1
 512 236 l 2,9,10
 512 231 512 231 508.5 227.5 c 128,-1,11
 505 224 505 224 500 224 c 2,12,-1
 300 224 l 2,13,14
 295 224 295 224 291.5 227.5 c 128,-1,15
 288 231 288 231 288 236 c 2,16,-1
 288 283 l 2,17,18
 288 288 288 288 291.5 291.5 c 128,-1,19
 295 295 295 295 300 295 c 2,20,-1
 402 290 l 1,21,22
 380 322 380 322 337.5 345 c 128,-1,23
 295 368 295 368 256 368 c 0,24,25
 198 368 198 368 148 328.5 c 128,-1,26
 98 289 98 289 85 233 c 0,27,28
 83 224 83 224 73 224 c 2,29,-1
 24 224 l 2,30,31
 19 224 19 224 15.5 227.5 c 128,-1,32
 12 231 12 231 12 236 c 0,33,34
 12 237 12 237 12 238 c 0,35,36
 29 325 29 325 97.5 382.5 c 128,-1,37
 166 440 166 440 256 440 c 0,38,39
 287 440 287 440 323.5 428.5 c 128,-1,40
 360 417 360 417 392.5 396.5 c 128,-1,41
 425 376 425 376 445 353 c 1,42,-1
 441 435 l 2,0,1
256 16 m 0,43,44
 313 16 313 16 363 55.5 c 128,-1,45
 413 95 413 95 427 151 c 0,46,47
 429 160 429 160 439 160 c 2,48,-1
 488 160 l 2,49,50
 493 160 493 160 496.5 156.5 c 128,-1,51
 500 153 500 153 500 148 c 0,52,53
 500 147 500 147 499 146 c 0,54,55
 483 59 483 59 414.5 1.5 c 128,-1,56
 346 -56 346 -56 256 -56 c 0,57,58
 208 -56 208 -56 153 -30.5 c 128,-1,59
 98 -5 98 -5 67 31 c 1,60,-1
 71 -51 l 2,61,62
 71 -52 71 -52 71 -52 c 2,63,64
 71 -57 71 -57 67.5 -60.5 c 128,-1,65
 64 -64 64 -64 59 -64 c 2,66,-1
 12 -64 l 2,67,68
 0 -64 0 -64 0 -52 c 2,69,-1
 0 148 l 2,70,71
 0 153 0 153 3.5 156.5 c 128,-1,72
 7 160 7 160 12 160 c 2,73,-1
 212 160 l 2,74,75
 217 160 217 160 220.5 156.5 c 128,-1,76
 224 153 224 153 224 148 c 2,77,-1
 224 101 l 2,78,79
 224 96 224 96 220.5 92.5 c 128,-1,80
 217 89 217 89 212 89 c 2,81,-1
 110 94 l 1,82,83
 131 62 131 62 174 39 c 128,-1,84
 217 16 217 16 256 16 c 0,43,44
EndSplineSet
Validated: 1
EndChar

StartChar: list-alt
Encoding: 61474 61474 92
Width: 512
GlyphClass: 3
Flags: W
LayerCount: 2
Fore
SplineSet
464 -32 m 2,0,-1
 48 -32 l 2,1,2
 28 -32 28 -32 14 -18 c 128,-1,3
 0 -4 0 -4 0 16 c 2,4,-1
 0 368 l 2,5,6
 0 388 0 388 14 402 c 128,-1,7
 28 416 28 416 48 416 c 2,8,-1
 464 416 l 2,9,10
 484 416 484 416 498 402 c 128,-1,11
 512 388 512 388 512 368 c 2,12,-1
 512 16 l 2,13,14
 512 -4 512 -4 498 -18 c 128,-1,15
 484 -32 484 -32 464 -32 c 2,0,-1
128 328 m 128,-1,17
 111 328 111 328 99.5 316.5 c 128,-1,18
 88 305 88 305 88 288 c 128,-1,19
 88 271 88 271 99.5 259.5 c 128,-1,20
 111 248 111 248 128 248 c 128,-1,21
 145 248 145 248 156.5 259.5 c 128,-1,22
 168 271 168 271 168 288 c 128,-1,23
 168 305 168 305 156.5 316.5 c 128,-1,16
 145 328 145 328 128 328 c 128,-1,17
128 232 m 128,-1,25
 111 232 111 232 99.5 220.5 c 128,-1,26
 88 209 88 209 88 192 c 128,-1,27
 88 175 88 175 99.5 163.5 c 128,-1,28
 111 152 111 152 128 152 c 128,-1,29
 145 152 145 152 156.5 163.5 c 128,-1,30
 168 175 168 175 168 192 c 128,-1,31
 168 209 168 209 156.5 220.5 c 128,-1,24
 145 232 145 232 128 232 c 128,-1,25
128 136 m 128,-1,33
 111 136 111 136 99.5 124.5 c 128,-1,34
 88 113 88 113 88 96 c 128,-1,35
 88 79 88 79 99.5 67.5 c 128,-1,36
 111 56 111 56 128 56 c 128,-1,37
 145 56 145 56 156.5 67.5 c 128,-1,38
 168 79 168 79 168 96 c 128,-1,39
 168 113 168 113 156.5 124.5 c 128,-1,32
 145 136 145 136 128 136 c 128,-1,33
416 272 m 2,40,-1
 416 304 l 2,41,42
 416 316 416 316 404 316 c 2,43,-1
 204 316 l 2,44,45
 192 316 192 316 192 304 c 2,46,-1
 192 272 l 2,47,48
 192 260 192 260 204 260 c 2,49,-1
 404 260 l 2,50,51
 416 260 416 260 416 272 c 2,40,-1
416 176 m 2,52,-1
 416 208 l 2,53,54
 416 220 416 220 404 220 c 2,55,-1
 204 220 l 2,56,57
 192 220 192 220 192 208 c 2,58,-1
 192 176 l 2,59,60
 192 164 192 164 204 164 c 2,61,-1
 404 164 l 2,62,63
 416 164 416 164 416 176 c 2,52,-1
416 80 m 2,64,-1
 416 112 l 2,65,66
 416 124 416 124 404 124 c 2,67,-1
 204 124 l 2,68,69
 192 124 192 124 192 112 c 2,70,-1
 192 80 l 2,71,72
 192 68 192 68 204 68 c 2,73,-1
 404 68 l 2,74,75
 416 68 416 68 416 80 c 2,64,-1
EndSplineSet
Validated: 513
EndChar

StartChar: lock
Encoding: 61475 61475 93
Width: 448
GlyphClass: 3
Flags: W
LayerCount: 2
Fore
SplineSet
400 224 m 2,0,1
 420 224 420 224 434 210 c 128,-1,2
 448 196 448 196 448 176 c 2,3,-1
 448 -16 l 2,4,5
 448 -36 448 -36 434 -50 c 128,-1,6
 420 -64 420 -64 400 -64 c 2,7,-1
 48 -64 l 2,8,9
 28 -64 28 -64 14 -50 c 128,-1,10
 0 -36 0 -36 0 -16 c 2,11,-1
 0 176 l 2,12,13
 0 196 0 196 14 210 c 128,-1,14
 28 224 28 224 48 224 c 2,15,-1
 72 224 l 1,16,-1
 72 296 l 2,17,18
 72 359 72 359 116.5 403.5 c 128,-1,19
 161 448 161 448 224 448 c 128,-1,20
 287 448 287 448 331.5 403.5 c 128,-1,21
 376 359 376 359 376 296 c 2,22,-1
 376 224 l 1,23,-1
 400 224 l 2,0,1
296 224 m 1,24,-1
 296 296 l 2,25,26
 296 326 296 326 275 347 c 128,-1,27
 254 368 254 368 224 368 c 128,-1,28
 194 368 194 368 173 347 c 128,-1,29
 152 326 152 326 152 296 c 2,30,-1
 152 224 l 1,31,-1
 296 224 l 1,24,-1
EndSplineSet
Validated: 1
EndChar

StartChar: flag
Encoding: 61476 61476 94
Width: 512
GlyphClass: 3
Flags: W
LayerCount: 2
Fore
SplineSet
350 349 m 0,0,1
 398 349 398 349 467 381 c 0,2,3
 482 388 482 388 497 379 c 128,-1,4
 512 370 512 370 512 352 c 2,5,-1
 512 109 l 2,6,7
 512 92 512 92 498 83 c 0,8,9
 439 42 439 42 376 42 c 0,10,11
 340 42 340 42 288 59.5 c 128,-1,12
 236 77 236 77 210 77 c 0,13,14
 148 77 148 77 96 54 c 1,15,-1
 96 -40 l 2,16,17
 96 -50 96 -50 89 -57 c 128,-1,18
 82 -64 82 -64 72 -64 c 2,19,-1
 56 -64 l 2,20,21
 46 -64 46 -64 39 -57 c 128,-1,22
 32 -50 32 -50 32 -40 c 2,23,-1
 32 346 l 1,24,25
 8 363 8 363 8 392 c 0,26,27
 8 416 8 416 25 432.5 c 128,-1,28
 42 449 42 449 66 448 c 0,29,30
 88 447 88 447 103.5 432 c 128,-1,31
 119 417 119 417 120 396 c 0,32,33
 120 394 120 394 120 392 c 0,34,35
 120 382 120 382 116 372 c 1,36,37
 149 384 149 384 184.5 384 c 128,-1,38
 220 384 220 384 272 366.5 c 128,-1,39
 324 349 324 349 350 349 c 0,0,1
EndSplineSet
Validated: 33
EndChar

StartChar: headphones
Encoding: 61477 61477 95
Width: 512
GlyphClass: 3
Flags: W
LayerCount: 2
Fore
SplineSet
256 416 m 128,-1,1
 362 416 362 416 437 341 c 128,-1,2
 512 266 512 266 512 160 c 2,3,-1
 512 112 l 2,4,5
 512 104 512 104 507 95.5 c 128,-1,6
 502 87 502 87 494 83 c 2,7,-1
 480 76 l 1,8,9
 478 31 478 31 445.5 -0.5 c 128,-1,10
 413 -32 413 -32 368 -32 c 2,11,-1
 344 -32 l 2,12,13
 334 -32 334 -32 327 -25 c 128,-1,14
 320 -18 320 -18 320 -8 c 2,15,-1
 320 168 l 2,16,17
 320 178 320 178 327 185 c 128,-1,18
 334 192 334 192 344 192 c 2,19,-1
 368 192 l 2,20,21
 415 192 415 192 448 158 c 1,22,-1
 448 160 l 2,23,24
 448 239 448 239 391.5 295.5 c 128,-1,25
 335 352 335 352 256 352 c 128,-1,26
 177 352 177 352 120.5 295.5 c 128,-1,27
 64 239 64 239 64 160 c 2,28,-1
 64 158 l 1,29,30
 97 192 97 192 144 192 c 2,31,-1
 168 192 l 2,32,33
 178 192 178 192 185 185 c 128,-1,34
 192 178 192 178 192 168 c 2,35,-1
 192 -8 l 2,36,37
 192 -18 192 -18 185 -25 c 128,-1,38
 178 -32 178 -32 168 -32 c 2,39,-1
 144 -32 l 2,40,41
 99 -32 99 -32 66.5 -0.5 c 128,-1,42
 34 31 34 31 32 76 c 1,43,-1
 18 83 l 2,44,45
 10 87 10 87 5 95.5 c 128,-1,46
 0 104 0 104 0 112 c 2,47,-1
 0 160 l 2,48,49
 0 266 0 266 75 341 c 128,-1,0
 150 416 150 416 256 416 c 128,-1,1
EndSplineSet
Validated: 1
EndChar

StartChar: volume-off
Encoding: 61478 61478 96
Width: 256
GlyphClass: 3
Flags: W
LayerCount: 2
Fore
SplineSet
215 377 m 2,0,1
 226 388 226 388 241 382 c 128,-1,2
 256 376 256 376 256 360 c 2,3,-1
 256 24 l 2,4,5
 256 8 256 8 241 2 c 128,-1,6
 226 -4 226 -4 215 7 c 2,7,-1
 126 96 l 1,8,-1
 24 96 l 2,9,10
 14 96 14 96 7 103 c 128,-1,11
 0 110 0 110 0 120 c 2,12,-1
 0 264 l 2,13,14
 0 274 0 274 7 281 c 128,-1,15
 14 288 14 288 24 288 c 2,16,-1
 126 288 l 1,17,-1
 215 377 l 2,0,1
EndSplineSet
Validated: 545
EndChar

StartChar: volume-down
Encoding: 61479 61479 97
Width: 384
GlyphClass: 3
Flags: W
LayerCount: 2
Fore
SplineSet
215 376 m 2,0,1
 226 387 226 387 241 381 c 128,-1,2
 256 375 256 375 256 359 c 2,3,-1
 256 23 l 2,4,5
 256 7 256 7 241 1 c 128,-1,6
 226 -5 226 -5 215 6 c 2,7,-1
 126 95 l 1,8,-1
 24 95 l 2,9,10
 14 95 14 95 7 102 c 128,-1,11
 0 109 0 109 0 119 c 2,12,-1
 0 263 l 2,13,14
 0 273 0 273 7 280 c 128,-1,15
 14 287 14 287 24 287 c 2,16,-1
 126 287 l 1,17,-1
 215 376 l 2,0,1
338 268 m 0,18,19
 359 256 359 256 371.5 235.5 c 128,-1,20
 384 215 384 215 384 191 c 128,-1,21
 384 167 384 167 371.5 146.5 c 128,-1,22
 359 126 359 126 338 114 c 0,23,24
 330 109 330 109 320 112 c 128,-1,25
 310 115 310 115 305.5 123.5 c 128,-1,26
 301 132 301 132 303.5 141.5 c 128,-1,27
 306 151 306 151 315 156 c 0,28,29
 336 168 336 168 336 191 c 128,-1,30
 336 214 336 214 315 226 c 0,31,32
 306 231 306 231 303.5 240.5 c 128,-1,33
 301 250 301 250 305.5 258.5 c 128,-1,34
 310 267 310 267 320 270 c 128,-1,35
 330 273 330 273 338 268 c 0,18,19
EndSplineSet
Validated: 545
EndChar

StartChar: volume-up
Encoding: 61480 61480 98
Width: 576
GlyphClass: 3
Flags: W
LayerCount: 2
Fore
SplineSet
215 377 m 2,0,1
 226 388 226 388 241 382 c 128,-1,2
 256 376 256 376 256 360 c 2,3,-1
 256 24 l 2,4,5
 256 8 256 8 241 2 c 128,-1,6
 226 -4 226 -4 215 7 c 2,7,-1
 126 96 l 1,8,-1
 24 96 l 2,9,10
 14 96 14 96 7 103 c 128,-1,11
 0 110 0 110 0 120 c 2,12,-1
 0 264 l 2,13,14
 0 274 0 274 7 281 c 128,-1,15
 14 288 14 288 24 288 c 2,16,-1
 126 288 l 1,17,-1
 215 377 l 2,0,1
448 428 m 0,18,19
 508 389 508 389 542 326 c 128,-1,20
 576 263 576 263 576 192 c 128,-1,21
 576 121 576 121 542 58 c 128,-1,22
 508 -5 508 -5 448 -44 c 0,23,24
 440 -50 440 -50 430 -47.5 c 128,-1,25
 420 -45 420 -45 414.5 -37 c 128,-1,26
 409 -29 409 -29 411 -19 c 128,-1,27
 413 -9 413 -9 422 -4 c 0,28,29
 455 18 455 18 478.5 48.5 c 128,-1,30
 502 79 502 79 515 116 c 128,-1,31
 528 153 528 153 528 192 c 0,32,33
 528 251 528 251 499.5 303 c 128,-1,34
 471 355 471 355 422 388 c 0,35,36
 413 393 413 393 411 403 c 128,-1,37
 409 413 409 413 414.5 421 c 128,-1,38
 420 429 420 429 430 431.5 c 128,-1,39
 440 434 440 434 448 428 c 0,18,19
480 192 m 128,-1,41
 480 144 480 144 457.5 102.5 c 128,-1,42
 435 61 435 61 394 36 c 0,43,44
 385 30 385 30 375.5 32.5 c 128,-1,45
 366 35 366 35 361 43 c 0,46,47
 356 52 356 52 358 61.5 c 128,-1,48
 360 71 360 71 369 77 c 0,49,50
 388 89 388 89 402.5 107 c 128,-1,51
 417 125 417 125 424.5 147 c 128,-1,52
 432 169 432 169 432 192 c 128,-1,53
 432 215 432 215 424.5 237 c 128,-1,54
 417 259 417 259 402.5 277 c 128,-1,55
 388 295 388 295 369 307 c 0,56,57
 360 313 360 313 358 322.5 c 128,-1,58
 356 332 356 332 361 340.5 c 128,-1,59
 366 349 366 349 376 351.5 c 128,-1,60
 386 354 386 354 394 348 c 0,61,62
 435 323 435 323 457.5 281.5 c 128,-1,40
 480 240 480 240 480 192 c 128,-1,41
338 269 m 0,63,64
 359 257 359 257 371.5 236.5 c 128,-1,65
 384 216 384 216 384 192 c 128,-1,66
 384 168 384 168 371.5 147.5 c 128,-1,67
 359 127 359 127 338 115 c 0,68,69
 330 110 330 110 320 113 c 128,-1,70
 310 116 310 116 305.5 124.5 c 128,-1,71
 301 133 301 133 303.5 142.5 c 128,-1,72
 306 152 306 152 315 157 c 0,73,74
 336 169 336 169 336 192 c 128,-1,75
 336 215 336 215 315 227 c 0,76,77
 306 232 306 232 303.5 241.5 c 128,-1,78
 301 251 301 251 305.5 259.5 c 128,-1,79
 310 268 310 268 320 271 c 128,-1,80
 330 274 330 274 338 269 c 0,63,64
EndSplineSet
Validated: 545
EndChar

StartChar: qrcode
Encoding: 61481 61481 99
Width: 448
GlyphClass: 3
Flags: W
LayerCount: 2
Fore
SplineSet
0 224 m 1,0,-1
 0 416 l 1,1,-1
 192 416 l 1,2,-1
 192 224 l 1,3,-1
 0 224 l 1,0,-1
64 352 m 1,4,-1
 64 288 l 1,5,-1
 128 288 l 1,6,-1
 128 352 l 1,7,-1
 64 352 l 1,4,-1
256 416 m 1,8,-1
 448 416 l 1,9,-1
 448 224 l 1,10,-1
 256 224 l 1,11,-1
 256 416 l 1,8,-1
384 288 m 1,12,-1
 384 352 l 1,13,-1
 320 352 l 1,14,-1
 320 288 l 1,15,-1
 384 288 l 1,12,-1
0 -32 m 1,16,-1
 0 160 l 1,17,-1
 192 160 l 1,18,-1
 192 -32 l 1,19,-1
 0 -32 l 1,16,-1
64 96 m 1,20,-1
 64 32 l 1,21,-1
 128 32 l 1,22,-1
 128 96 l 1,23,-1
 64 96 l 1,20,-1
416 160 m 1,24,-1
 448 160 l 1,25,-1
 448 32 l 1,26,-1
 352 32 l 1,27,-1
 352 64 l 1,28,-1
 320 64 l 1,29,-1
 320 -32 l 1,30,-1
 256 -32 l 1,31,-1
 256 160 l 1,32,-1
 352 160 l 1,33,-1
 352 128 l 1,34,-1
 416 128 l 1,35,-1
 416 160 l 1,24,-1
416 0 m 1,36,-1
 448 0 l 1,37,-1
 448 -32 l 1,38,-1
 416 -32 l 1,39,-1
 416 0 l 1,36,-1
352 0 m 1,40,-1
 384 0 l 1,41,-1
 384 -32 l 1,42,-1
 352 -32 l 1,43,-1
 352 0 l 1,40,-1
EndSplineSet
Validated: 1
EndChar

StartChar: barcode
Encoding: 61482 61482 100
Width: 512
GlyphClass: 3
Flags: W
LayerCount: 2
Fore
SplineSet
0 0 m 1,0,-1
 0 384 l 1,1,-1
 18 384 l 1,2,-1
 18 0 l 1,3,-1
 0 0 l 1,0,-1
27 0 m 1,4,-1
 27 384 l 1,5,-1
 36 384 l 1,6,-1
 36 0 l 1,7,-1
 27 0 l 1,4,-1
54 0 m 1,8,-1
 54 384 l 1,9,-1
 63 384 l 1,10,-1
 63 0 l 1,11,-1
 54 0 l 1,8,-1
99 0 m 1,12,-1
 99 384 l 1,13,-1
 108 384 l 1,14,-1
 108 0 l 1,15,-1
 99 0 l 1,12,-1
135 0 m 1,16,-1
 135 384 l 1,17,-1
 153 384 l 1,18,-1
 153 0 l 1,19,-1
 135 0 l 1,16,-1
180 0 m 1,20,-1
 180 384 l 1,21,-1
 189 384 l 1,22,-1
 189 0 l 1,23,-1
 180 0 l 1,20,-1
198 0 m 1,24,-1
 198 384 l 1,25,-1
 207 384 l 1,26,-1
 207 0 l 1,27,-1
 198 0 l 1,24,-1
216 0 m 1,28,-1
 216 384 l 1,29,-1
 225 384 l 1,30,-1
 225 0 l 1,31,-1
 216 0 l 1,28,-1
251 0 m 1,32,-1
 251 384 l 1,33,-1
 269 384 l 1,34,-1
 269 0 l 1,35,-1
 251 0 l 1,32,-1
296 0 m 1,36,-1
 296 384 l 1,37,-1
 314 384 l 1,38,-1
 314 0 l 1,39,-1
 296 0 l 1,36,-1
332 0 m 1,40,-1
 332 384 l 1,41,-1
 350 384 l 1,42,-1
 350 0 l 1,43,-1
 332 0 l 1,40,-1
368 0 m 1,44,-1
 368 384 l 1,45,-1
 386 384 l 1,46,-1
 386 0 l 1,47,-1
 368 0 l 1,44,-1
395 0 m 1,48,-1
 395 384 l 1,49,-1
 413 384 l 1,50,-1
 413 0 l 1,51,-1
 395 0 l 1,48,-1
440 0 m 1,52,-1
 440 384 l 1,53,-1
 467 384 l 1,54,-1
 467 0 l 1,55,-1
 440 0 l 1,52,-1
476 0 m 1,56,-1
 476 384 l 1,57,-1
 485 384 l 1,58,-1
 485 0 l 1,59,-1
 476 0 l 1,56,-1
494 0 m 1,60,-1
 494 384 l 1,61,-1
 512 384 l 1,62,-1
 512 0 l 1,63,-1
 494 0 l 1,60,-1
EndSplineSet
Validated: 1
EndChar

StartChar: tag
Encoding: 61483 61483 101
Width: 512
GlyphClass: 3
Flags: W
LayerCount: 2
Fore
SplineSet
0 196 m 2,0,-1
 0 400 l 2,1,2
 0 420 0 420 14 434 c 128,-1,3
 28 448 28 448 48 448 c 2,4,-1
 252 448 l 2,5,6
 272 448 272 448 286 434 c 2,7,-1
 498 222 l 2,8,9
 512 208 512 208 512 188 c 128,-1,10
 512 168 512 168 498 154 c 2,11,-1
 294 -50 l 2,12,13
 280 -64 280 -64 260 -64 c 128,-1,14
 240 -64 240 -64 226 -50 c 2,15,-1
 14 162 l 2,16,17
 0 176 0 176 0 196 c 2,0,-1
112 384 m 128,-1,19
 92 384 92 384 78 370 c 128,-1,20
 64 356 64 356 64 336 c 128,-1,21
 64 316 64 316 78 302 c 128,-1,22
 92 288 92 288 112 288 c 128,-1,23
 132 288 132 288 146 302 c 128,-1,24
 160 316 160 316 160 336 c 128,-1,25
 160 356 160 356 146 370 c 128,-1,18
 132 384 132 384 112 384 c 128,-1,19
EndSplineSet
Validated: 1
EndChar

StartChar: tags
Encoding: 61484 61484 102
Width: 640
GlyphClass: 3
Flags: W
LayerCount: 2
Fore
SplineSet
498 222 m 2,0,1
 512 208 512 208 512 188 c 128,-1,2
 512 168 512 168 498 154 c 2,3,-1
 294 -50 l 2,4,5
 280 -64 280 -64 260 -64 c 128,-1,6
 240 -64 240 -64 226 -50 c 2,7,-1
 14 162 l 2,8,9
 0 176 0 176 0 196 c 2,10,-1
 0 400 l 2,11,12
 0 420 0 420 14 434 c 128,-1,13
 28 448 28 448 48 448 c 2,14,-1
 252 448 l 2,15,16
 272 448 272 448 286 434 c 2,17,-1
 498 222 l 2,0,1
112 288 m 128,-1,19
 132 288 132 288 146 302 c 128,-1,20
 160 316 160 316 160 336 c 128,-1,21
 160 356 160 356 146 370 c 128,-1,22
 132 384 132 384 112 384 c 128,-1,23
 92 384 92 384 78 370 c 128,-1,24
 64 356 64 356 64 336 c 128,-1,25
 64 316 64 316 78 302 c 128,-1,18
 92 288 92 288 112 288 c 128,-1,19
626 154 m 2,26,-1
 422 -50 l 2,27,28
 408 -64 408 -64 388 -64 c 128,-1,29
 368 -64 368 -64 354 -50 c 1,30,-1
 528 124 l 2,31,32
 554 151 554 151 554 188 c 128,-1,33
 554 225 554 225 528 252 c 2,34,-1
 331 448 l 1,35,-1
 380 448 l 2,36,37
 400 448 400 448 414 434 c 2,38,-1
 626 222 l 2,39,40
 640 208 640 208 640 188 c 128,-1,41
 640 168 640 168 626 154 c 2,26,-1
EndSplineSet
Validated: 1
EndChar

StartChar: book
Encoding: 61485 61485 103
Width: 448
GlyphClass: 3
Flags: W
LayerCount: 2
Fore
SplineSet
448 88 m 2,0,1
 448 76 448 76 439 69 c 1,2,3
 436 58 436 58 436 32 c 128,-1,4
 436 6 436 6 439 -5 c 1,5,6
 448 -13 448 -13 448 -24 c 2,7,-1
 448 -40 l 2,8,9
 448 -50 448 -50 441 -57 c 128,-1,10
 434 -64 434 -64 424 -64 c 2,11,-1
 96 -64 l 2,12,13
 56 -64 56 -64 28 -36 c 128,-1,14
 0 -8 0 -8 0 32 c 2,15,-1
 0 352 l 2,16,17
 0 392 0 392 28 420 c 128,-1,18
 56 448 56 448 96 448 c 2,19,-1
 424 448 l 2,20,21
 434 448 434 448 441 441 c 128,-1,22
 448 434 448 434 448 424 c 2,23,-1
 448 88 l 2,0,1
128 314 m 2,24,-1
 128 294 l 2,25,26
 128 288 128 288 134 288 c 2,27,-1
 346 288 l 2,28,29
 352 288 352 288 352 294 c 2,30,-1
 352 314 l 2,31,32
 352 320 352 320 346 320 c 2,33,-1
 134 320 l 2,34,35
 128 320 128 320 128 314 c 2,24,-1
128 250 m 2,36,-1
 128 230 l 2,37,38
 128 224 128 224 134 224 c 2,39,-1
 346 224 l 2,40,41
 352 224 352 224 352 230 c 2,42,-1
 352 250 l 2,43,44
 352 256 352 256 346 256 c 2,45,-1
 134 256 l 2,46,47
 128 256 128 256 128 250 c 2,36,-1
381 0 m 1,48,49
 378 32 378 32 381 64 c 1,50,-1
 96 64 l 2,51,52
 83 64 83 64 73.5 54.5 c 128,-1,53
 64 45 64 45 64 32 c 128,-1,54
 64 19 64 19 73.5 9.5 c 128,-1,55
 83 0 83 0 96 0 c 2,56,-1
 381 0 l 1,48,49
EndSplineSet
Validated: 33
EndChar

StartChar: bookmark
Encoding: 61486 61486 104
Width: 384
GlyphClass: 3
Flags: W
LayerCount: 2
Fore
SplineSet
0 -64 m 1,0,-1
 0 400 l 2,1,2
 0 420 0 420 14 434 c 128,-1,3
 28 448 28 448 48 448 c 2,4,-1
 336 448 l 2,5,6
 356 448 356 448 370 434 c 128,-1,7
 384 420 384 420 384 400 c 2,8,-1
 384 -64 l 1,9,-1
 192 48 l 1,10,-1
 0 -64 l 1,0,-1
EndSplineSet
Validated: 1
EndChar

StartChar: print
Encoding: 61487 61487 105
Width: 512
GlyphClass: 3
Flags: W
LayerCount: 2
Fore
SplineSet
448 256 m 1,0,1
 475 256 475 256 493.5 237.5 c 128,-1,2
 512 219 512 219 512 192 c 2,3,-1
 512 80 l 2,4,5
 512 73 512 73 507.5 68.5 c 128,-1,6
 503 64 503 64 496 64 c 2,7,-1
 448 64 l 1,8,-1
 448 -32 l 2,9,10
 448 -45 448 -45 438.5 -54.5 c 128,-1,11
 429 -64 429 -64 416 -64 c 2,12,-1
 96 -64 l 2,13,14
 83 -64 83 -64 73.5 -54.5 c 128,-1,15
 64 -45 64 -45 64 -32 c 2,16,-1
 64 64 l 1,17,-1
 16 64 l 2,18,19
 9 64 9 64 4.5 68.5 c 128,-1,20
 0 73 0 73 0 80 c 2,21,-1
 0 192 l 2,22,23
 0 219 0 219 18.5 237.5 c 128,-1,24
 37 256 37 256 64 256 c 1,25,-1
 64 416 l 2,26,27
 64 429 64 429 73.5 438.5 c 128,-1,28
 83 448 83 448 96 448 c 2,29,-1
 371 448 l 2,30,31
 384 448 384 448 393 439 c 2,32,-1
 439 393 l 2,33,34
 448 384 448 384 448 371 c 2,35,-1
 448 256 l 1,0,1
384 0 m 1,36,-1
 384 96 l 1,37,-1
 128 96 l 1,38,-1
 128 0 l 1,39,-1
 384 0 l 1,36,-1
384 224 m 1,40,-1
 384 320 l 1,41,-1
 336 320 l 2,42,43
 329 320 329 320 324.5 324.5 c 128,-1,44
 320 329 320 329 320 336 c 2,45,-1
 320 384 l 1,46,-1
 128 384 l 1,47,-1
 128 224 l 1,48,-1
 384 224 l 1,40,-1
432 152 m 128,-1,50
 442 152 442 152 449 159 c 128,-1,51
 456 166 456 166 456 176 c 128,-1,52
 456 186 456 186 449 193 c 128,-1,53
 442 200 442 200 432 200 c 128,-1,54
 422 200 422 200 415 193 c 128,-1,55
 408 186 408 186 408 176 c 128,-1,56
 408 166 408 166 415 159 c 128,-1,49
 422 152 422 152 432 152 c 128,-1,50
EndSplineSet
Validated: 1
EndChar

StartChar: camera
Encoding: 61488 61488 106
Width: 512
GlyphClass: 3
Flags: W
LayerCount: 2
Fore
SplineSet
512 304 m 2,0,-1
 512 16 l 2,1,2
 512 -4 512 -4 498 -18 c 128,-1,3
 484 -32 484 -32 464 -32 c 2,4,-1
 48 -32 l 2,5,6
 28 -32 28 -32 14 -18 c 128,-1,7
 0 -4 0 -4 0 16 c 2,8,-1
 0 304 l 2,9,10
 0 324 0 324 14 338 c 128,-1,11
 28 352 28 352 48 352 c 2,12,-1
 136 352 l 1,13,-1
 148 385 l 2,14,15
 152 394 152 394 158.5 401 c 128,-1,16
 165 408 165 408 174 412 c 128,-1,17
 183 416 183 416 193 416 c 2,18,-1
 319 416 l 2,19,20
 334 416 334 416 346 407.5 c 128,-1,21
 358 399 358 399 364 385 c 2,22,-1
 376 352 l 1,23,-1
 464 352 l 2,24,25
 484 352 484 352 498 338 c 128,-1,26
 512 324 512 324 512 304 c 2,0,-1
376 160 m 128,-1,28
 376 210 376 210 341 245 c 128,-1,29
 306 280 306 280 256 280 c 128,-1,30
 206 280 206 280 171 245 c 128,-1,31
 136 210 136 210 136 160 c 128,-1,32
 136 110 136 110 171 75 c 128,-1,33
 206 40 206 40 256 40 c 128,-1,34
 306 40 306 40 341 75 c 128,-1,27
 376 110 376 110 376 160 c 128,-1,28
344 160 m 128,-1,36
 344 124 344 124 318 98 c 128,-1,37
 292 72 292 72 256 72 c 128,-1,38
 220 72 220 72 194 98 c 128,-1,39
 168 124 168 124 168 160 c 128,-1,40
 168 196 168 196 194 222 c 128,-1,41
 220 248 220 248 256 248 c 128,-1,42
 292 248 292 248 318 222 c 128,-1,35
 344 196 344 196 344 160 c 128,-1,36
EndSplineSet
Validated: 1
EndChar

StartChar: font
Encoding: 61489 61489 107
Width: 448
GlyphClass: 3
Flags: W
LayerCount: 2
Fore
SplineSet
432 32 m 2,0,1
 439 32 439 32 443.5 27.5 c 128,-1,2
 448 23 448 23 448 16 c 2,3,-1
 448 -16 l 2,4,5
 448 -23 448 -23 443.5 -27.5 c 128,-1,6
 439 -32 439 -32 432 -32 c 2,7,-1
 304 -32 l 2,8,9
 297 -32 297 -32 292.5 -27.5 c 128,-1,10
 288 -23 288 -23 288 -16 c 2,11,-1
 288 16 l 2,12,13
 288 23 288 23 292.5 27.5 c 128,-1,14
 297 32 297 32 304 32 c 2,15,-1
 324 32 l 1,16,-1
 300 96 l 1,17,-1
 148 96 l 1,18,-1
 124 32 l 1,19,-1
 144 32 l 2,20,21
 151 32 151 32 155.5 27.5 c 128,-1,22
 160 23 160 23 160 16 c 2,23,-1
 160 -16 l 2,24,25
 160 -23 160 -23 155.5 -27.5 c 128,-1,26
 151 -32 151 -32 144 -32 c 2,27,-1
 16 -32 l 2,28,29
 9 -32 9 -32 4.5 -27.5 c 128,-1,30
 0 -23 0 -23 0 -16 c 2,31,-1
 0 16 l 2,32,33
 0 23 0 23 4.5 27.5 c 128,-1,34
 9 32 9 32 16 32 c 2,35,-1
 39 32 l 1,36,-1
 170 394 l 2,37,38
 173 403 173 403 182 409.5 c 128,-1,39
 191 416 191 416 200 416 c 2,40,-1
 248 416 l 2,41,42
 257 416 257 416 266 409.5 c 128,-1,43
 275 403 275 403 278 394 c 2,44,-1
 409 32 l 1,45,-1
 432 32 l 2,0,1
177 176 m 1,46,-1
 271 176 l 1,47,-1
 224 305 l 1,48,-1
 177 176 l 1,46,-1
EndSplineSet
Validated: 1
EndChar

StartChar: bold
Encoding: 61490 61490 108
Width: 384
GlyphClass: 3
Flags: W
LayerCount: 2
Fore
SplineSet
333 210 m 1,0,1
 360 189 360 189 374 157.5 c 128,-1,2
 388 126 388 126 384 90 c 0,3,4
 379 38 379 38 338 3 c 128,-1,5
 297 -32 297 -32 243 -32 c 2,6,-1
 34 -32 l 2,7,8
 27 -32 27 -32 22.5 -27.5 c 128,-1,9
 18 -23 18 -23 18 -16 c 2,10,-1
 18 32 l 2,11,12
 18 39 18 39 22.5 43.5 c 128,-1,13
 27 48 27 48 34 48 c 2,14,-1
 66 48 l 1,15,-1
 66 336 l 1,16,-1
 34 336 l 2,17,18
 27 336 27 336 22.5 340.5 c 128,-1,19
 18 345 18 345 18 352 c 2,20,-1
 18 400 l 2,21,22
 18 407 18 407 22.5 411.5 c 128,-1,23
 27 416 27 416 34 416 c 2,24,-1
 233 416 l 2,25,26
 290 416 290 416 328 374 c 128,-1,27
 366 332 366 332 360 275 c 0,28,29
 357 239 357 239 333 210 c 1,0,1
146 336 m 1,30,-1
 146 240 l 1,31,-1
 233 240 l 2,32,33
 253 240 253 240 267 254 c 128,-1,34
 281 268 281 268 281 288 c 128,-1,35
 281 308 281 308 267 322 c 128,-1,36
 253 336 253 336 233 336 c 2,37,-1
 146 336 l 1,30,-1
233 48 m 2,38,39
 257 48 257 48 273 64.5 c 128,-1,40
 289 81 289 81 289 104 c 128,-1,41
 289 127 289 127 273 143.5 c 128,-1,42
 257 160 257 160 233 160 c 2,43,-1
 146 160 l 1,44,-1
 146 48 l 1,45,-1
 233 48 l 2,38,39
EndSplineSet
Validated: 33
EndChar

StartChar: italic
Encoding: 61491 61491 109
Width: 320
GlyphClass: 3
Flags: W
LayerCount: 2
Fore
SplineSet
320 400 m 2,0,-1
 320 368 l 2,1,2
 320 361 320 361 315.5 356.5 c 128,-1,3
 311 352 311 352 304 352 c 2,4,-1
 241 352 l 1,5,-1
 161 32 l 1,6,-1
 208 32 l 2,7,8
 215 32 215 32 219.5 27.5 c 128,-1,9
 224 23 224 23 224 16 c 2,10,-1
 224 -16 l 2,11,12
 224 -23 224 -23 219.5 -27.5 c 128,-1,13
 215 -32 215 -32 208 -32 c 2,14,-1
 16 -32 l 2,15,16
 9 -32 9 -32 4.5 -27.5 c 128,-1,17
 0 -23 0 -23 0 -16 c 2,18,-1
 0 16 l 2,19,20
 0 23 0 23 4.5 27.5 c 128,-1,21
 9 32 9 32 16 32 c 2,22,-1
 79 32 l 1,23,-1
 159 352 l 1,24,-1
 112 352 l 2,25,26
 105 352 105 352 100.5 356.5 c 128,-1,27
 96 361 96 361 96 368 c 2,28,-1
 96 400 l 2,29,30
 96 407 96 407 100.5 411.5 c 128,-1,31
 105 416 105 416 112 416 c 2,32,-1
 304 416 l 2,33,34
 311 416 311 416 315.5 411.5 c 128,-1,35
 320 407 320 407 320 400 c 2,0,-1
EndSplineSet
Validated: 1
EndChar

StartChar: text-height
Encoding: 61492 61492 110
Width: 576
GlyphClass: 3
Flags: W
LayerCount: 2
Fore
SplineSet
304 416 m 2,0,1
 311 416 311 416 315.5 411.5 c 128,-1,2
 320 407 320 407 320 400 c 2,3,-1
 320 304 l 2,4,5
 320 297 320 297 315.5 292.5 c 128,-1,6
 311 288 311 288 304 288 c 2,7,-1
 272 288 l 2,8,9
 265 288 265 288 260.5 292.5 c 128,-1,10
 256 297 256 297 256 304 c 2,11,-1
 256 336 l 1,12,-1
 200 336 l 1,13,-1
 200 32 l 1,14,-1
 240 32 l 2,15,16
 247 32 247 32 251.5 27.5 c 128,-1,17
 256 23 256 23 256 16 c 2,18,-1
 256 -16 l 2,19,20
 256 -23 256 -23 251.5 -27.5 c 128,-1,21
 247 -32 247 -32 240 -32 c 2,22,-1
 80 -32 l 2,23,24
 73 -32 73 -32 68.5 -27.5 c 128,-1,25
 64 -23 64 -23 64 -16 c 2,26,-1
 64 16 l 2,27,28
 64 23 64 23 68.5 27.5 c 128,-1,29
 73 32 73 32 80 32 c 2,30,-1
 120 32 l 1,31,-1
 120 336 l 1,32,-1
 64 336 l 1,33,-1
 64 304 l 2,34,35
 64 297 64 297 59.5 292.5 c 128,-1,36
 55 288 55 288 48 288 c 2,37,-1
 16 288 l 2,38,39
 9 288 9 288 4.5 292.5 c 128,-1,40
 0 297 0 297 0 304 c 2,41,-1
 0 400 l 2,42,43
 0 407 0 407 4.5 411.5 c 128,-1,44
 9 416 9 416 16 416 c 2,45,-1
 304 416 l 2,0,1
560 80 m 2,46,47
 571 80 571 80 575 70 c 128,-1,48
 579 60 579 60 571 53 c 2,49,-1
 491 -27 l 2,50,51
 487 -32 487 -32 480 -32 c 128,-1,52
 473 -32 473 -32 469 -27 c 2,53,-1
 389 53 l 2,54,55
 381 60 381 60 385 70 c 128,-1,56
 389 80 389 80 400 80 c 2,57,-1
 448 80 l 1,58,-1
 448 304 l 1,59,-1
 400 304 l 2,60,61
 389 304 389 304 385 314 c 128,-1,62
 381 324 381 324 389 331 c 2,63,-1
 469 411 l 2,64,65
 473 416 473 416 480 416 c 128,-1,66
 487 416 487 416 491 411 c 2,67,-1
 571 331 l 2,68,69
 579 324 579 324 575 314 c 128,-1,70
 571 304 571 304 560 304 c 2,71,-1
 512 304 l 1,72,-1
 512 80 l 1,73,-1
 560 80 l 2,46,47
EndSplineSet
Validated: 545
EndChar

StartChar: text-width
Encoding: 61493 61493 111
Width: 448
GlyphClass: 3
Flags: W
LayerCount: 2
Fore
SplineSet
432 416 m 2,0,1
 439 416 439 416 443.5 411.5 c 128,-1,2
 448 407 448 407 448 400 c 2,3,-1
 448 320 l 2,4,5
 448 313 448 313 443.5 308.5 c 128,-1,6
 439 304 439 304 432 304 c 2,7,-1
 400 304 l 2,8,9
 393 304 393 304 388.5 308.5 c 128,-1,10
 384 313 384 313 384 320 c 2,11,-1
 384 336 l 1,12,-1
 264 336 l 1,13,-1
 264 224 l 1,14,-1
 288 224 l 2,15,16
 295 224 295 224 299.5 219.5 c 128,-1,17
 304 215 304 215 304 208 c 2,18,-1
 304 176 l 2,19,20
 304 169 304 169 299.5 164.5 c 128,-1,21
 295 160 295 160 288 160 c 2,22,-1
 160 160 l 2,23,24
 153 160 153 160 148.5 164.5 c 128,-1,25
 144 169 144 169 144 176 c 2,26,-1
 144 208 l 2,27,28
 144 215 144 215 148.5 219.5 c 128,-1,29
 153 224 153 224 160 224 c 2,30,-1
 184 224 l 1,31,-1
 184 336 l 1,32,-1
 64 336 l 1,33,-1
 64 320 l 2,34,35
 64 313 64 313 59.5 308.5 c 128,-1,36
 55 304 55 304 48 304 c 2,37,-1
 16 304 l 2,38,39
 9 304 9 304 4.5 308.5 c 128,-1,40
 0 313 0 313 0 320 c 2,41,-1
 0 400 l 2,42,43
 0 407 0 407 4.5 411.5 c 128,-1,44
 9 416 9 416 16 416 c 2,45,-1
 432 416 l 2,0,1
363 155 m 2,46,-1
 443 75 l 2,47,48
 448 71 448 71 448 64 c 128,-1,49
 448 57 448 57 443 53 c 2,50,-1
 363 -27 l 2,51,52
 356 -35 356 -35 346 -31 c 128,-1,53
 336 -27 336 -27 336 -16 c 2,54,-1
 336 32 l 1,55,-1
 112 32 l 1,56,-1
 112 -16 l 2,57,58
 112 -27 112 -27 102 -31 c 128,-1,59
 92 -35 92 -35 85 -27 c 2,60,-1
 5 53 l 2,61,62
 0 57 0 57 0 64 c 128,-1,63
 0 71 0 71 5 75 c 2,64,-1
 85 155 l 2,65,66
 92 163 92 163 102 159 c 128,-1,67
 112 155 112 155 112 144 c 2,68,-1
 112 96 l 1,69,-1
 336 96 l 1,70,-1
 336 144 l 2,71,72
 336 155 336 155 346 159 c 128,-1,73
 356 163 356 163 363 155 c 2,46,-1
EndSplineSet
Validated: 545
EndChar

StartChar: align-left
Encoding: 61494 61494 112
Width: 448
GlyphClass: 3
Flags: W
LayerCount: 2
Fore
SplineSet
13 96 m 2,0,1
 8 96 8 96 4 100 c 128,-1,2
 0 104 0 104 0 109 c 2,3,-1
 0 147 l 2,4,5
 0 152 0 152 4 156 c 128,-1,6
 8 160 8 160 13 160 c 2,7,-1
 275 160 l 2,8,9
 280 160 280 160 284 156 c 128,-1,10
 288 152 288 152 288 147 c 2,11,-1
 288 109 l 2,12,13
 288 104 288 104 284 100 c 128,-1,14
 280 96 280 96 275 96 c 2,15,-1
 13 96 l 2,0,1
13 352 m 2,16,17
 8 352 8 352 4 356 c 128,-1,18
 0 360 0 360 0 365 c 2,19,-1
 0 403 l 2,20,21
 0 408 0 408 4 412 c 128,-1,22
 8 416 8 416 13 416 c 2,23,-1
 275 416 l 2,24,25
 280 416 280 416 284 412 c 128,-1,26
 288 408 288 408 288 403 c 2,27,-1
 288 365 l 2,28,29
 288 360 288 360 284 356 c 128,-1,30
 280 352 280 352 275 352 c 2,31,-1
 13 352 l 2,16,17
432 288 m 2,32,33
 439 288 439 288 443.5 283.5 c 128,-1,34
 448 279 448 279 448 272 c 2,35,-1
 448 240 l 2,36,37
 448 233 448 233 443.5 228.5 c 128,-1,38
 439 224 439 224 432 224 c 2,39,-1
 16 224 l 2,40,41
 9 224 9 224 4.5 228.5 c 128,-1,42
 0 233 0 233 0 240 c 2,43,-1
 0 272 l 2,44,45
 0 279 0 279 4.5 283.5 c 128,-1,46
 9 288 9 288 16 288 c 2,47,-1
 432 288 l 2,32,33
432 32 m 2,48,49
 439 32 439 32 443.5 27.5 c 128,-1,50
 448 23 448 23 448 16 c 2,51,-1
 448 -16 l 2,52,53
 448 -23 448 -23 443.5 -27.5 c 128,-1,54
 439 -32 439 -32 432 -32 c 2,55,-1
 16 -32 l 2,56,57
 9 -32 9 -32 4.5 -27.5 c 128,-1,58
 0 -23 0 -23 0 -16 c 2,59,-1
 0 16 l 2,60,61
 0 23 0 23 4.5 27.5 c 128,-1,62
 9 32 9 32 16 32 c 2,63,-1
 432 32 l 2,48,49
EndSplineSet
Validated: 513
EndChar

StartChar: align-center
Encoding: 61495 61495 113
Width: 448
GlyphClass: 3
Flags: W
LayerCount: 2
Fore
SplineSet
432 288 m 2,0,1
 439 288 439 288 443.5 283.5 c 128,-1,2
 448 279 448 279 448 272 c 2,3,-1
 448 240 l 2,4,5
 448 233 448 233 443.5 228.5 c 128,-1,6
 439 224 439 224 432 224 c 2,7,-1
 16 224 l 2,8,9
 9 224 9 224 4.5 228.5 c 128,-1,10
 0 233 0 233 0 240 c 2,11,-1
 0 272 l 2,12,13
 0 279 0 279 4.5 283.5 c 128,-1,14
 9 288 9 288 16 288 c 2,15,-1
 432 288 l 2,0,1
432 32 m 2,16,17
 439 32 439 32 443.5 27.5 c 128,-1,18
 448 23 448 23 448 16 c 2,19,-1
 448 -16 l 2,20,21
 448 -23 448 -23 443.5 -27.5 c 128,-1,22
 439 -32 439 -32 432 -32 c 2,23,-1
 16 -32 l 2,24,25
 9 -32 9 -32 4.5 -27.5 c 128,-1,26
 0 -23 0 -23 0 -16 c 2,27,-1
 0 16 l 2,28,29
 0 23 0 23 4.5 27.5 c 128,-1,30
 9 32 9 32 16 32 c 2,31,-1
 432 32 l 2,16,17
108 352 m 2,32,33
 103 352 103 352 99.5 355.5 c 128,-1,34
 96 359 96 359 96 364 c 2,35,-1
 96 404 l 2,36,37
 96 409 96 409 99.5 412.5 c 128,-1,38
 103 416 103 416 108 416 c 2,39,-1
 340 416 l 2,40,41
 345 416 345 416 348.5 412.5 c 128,-1,42
 352 409 352 409 352 404 c 2,43,-1
 352 364 l 2,44,45
 352 359 352 359 348.5 355.5 c 128,-1,46
 345 352 345 352 340 352 c 2,47,-1
 108 352 l 2,32,33
340 96 m 2,48,-1
 108 96 l 2,49,50
 103 96 103 96 99.5 99.5 c 128,-1,51
 96 103 96 103 96 108 c 2,52,-1
 96 148 l 2,53,54
 96 153 96 153 99.5 156.5 c 128,-1,55
 103 160 103 160 108 160 c 2,56,-1
 340 160 l 2,57,58
 345 160 345 160 348.5 156.5 c 128,-1,59
 352 153 352 153 352 148 c 2,60,-1
 352 108 l 2,61,62
 352 103 352 103 348.5 99.5 c 128,-1,63
 345 96 345 96 340 96 c 2,48,-1
EndSplineSet
Validated: 513
EndChar

StartChar: align-right
Encoding: 61496 61496 114
Width: 448
GlyphClass: 3
Flags: W
LayerCount: 2
Fore
SplineSet
16 224 m 2,0,1
 9 224 9 224 4.5 228.5 c 128,-1,2
 0 233 0 233 0 240 c 2,3,-1
 0 272 l 2,4,5
 0 279 0 279 4.5 283.5 c 128,-1,6
 9 288 9 288 16 288 c 2,7,-1
 432 288 l 2,8,9
 439 288 439 288 443.5 283.5 c 128,-1,10
 448 279 448 279 448 272 c 2,11,-1
 448 240 l 2,12,13
 448 233 448 233 443.5 228.5 c 128,-1,14
 439 224 439 224 432 224 c 2,15,-1
 16 224 l 2,0,1
432 32 m 2,16,17
 439 32 439 32 443.5 27.5 c 128,-1,18
 448 23 448 23 448 16 c 2,19,-1
 448 -16 l 2,20,21
 448 -23 448 -23 443.5 -27.5 c 128,-1,22
 439 -32 439 -32 432 -32 c 2,23,-1
 16 -32 l 2,24,25
 9 -32 9 -32 4.5 -27.5 c 128,-1,26
 0 -23 0 -23 0 -16 c 2,27,-1
 0 16 l 2,28,29
 0 23 0 23 4.5 27.5 c 128,-1,30
 9 32 9 32 16 32 c 2,31,-1
 432 32 l 2,16,17
435 416 m 2,32,33
 440 416 440 416 444 412 c 128,-1,34
 448 408 448 408 448 403 c 2,35,-1
 448 365 l 2,36,37
 448 360 448 360 444 356 c 128,-1,38
 440 352 440 352 435 352 c 2,39,-1
 173 352 l 2,40,41
 168 352 168 352 164 356 c 128,-1,42
 160 360 160 360 160 365 c 2,43,-1
 160 403 l 2,44,45
 160 408 160 408 164 412 c 128,-1,46
 168 416 168 416 173 416 c 2,47,-1
 435 416 l 2,32,33
435 160 m 2,48,49
 440 160 440 160 444 156 c 128,-1,50
 448 152 448 152 448 147 c 2,51,-1
 448 109 l 2,52,53
 448 104 448 104 444 100 c 128,-1,54
 440 96 440 96 435 96 c 2,55,-1
 173 96 l 2,56,57
 168 96 168 96 164 100 c 128,-1,58
 160 104 160 104 160 109 c 2,59,-1
 160 147 l 2,60,61
 160 152 160 152 164 156 c 128,-1,62
 168 160 168 160 173 160 c 2,63,-1
 435 160 l 2,48,49
EndSplineSet
Validated: 513
EndChar

StartChar: align-justify
Encoding: 61497 61497 115
Width: 448
GlyphClass: 3
Flags: W
LayerCount: 2
Fore
SplineSet
432 32 m 2,0,1
 439 32 439 32 443.5 27.5 c 128,-1,2
 448 23 448 23 448 16 c 2,3,-1
 448 -16 l 2,4,5
 448 -23 448 -23 443.5 -27.5 c 128,-1,6
 439 -32 439 -32 432 -32 c 2,7,-1
 16 -32 l 2,8,9
 9 -32 9 -32 4.5 -27.5 c 128,-1,10
 0 -23 0 -23 0 -16 c 2,11,-1
 0 16 l 2,12,13
 0 23 0 23 4.5 27.5 c 128,-1,14
 9 32 9 32 16 32 c 2,15,-1
 432 32 l 2,0,1
432 160 m 2,16,17
 439 160 439 160 443.5 155.5 c 128,-1,18
 448 151 448 151 448 144 c 2,19,-1
 448 112 l 2,20,21
 448 105 448 105 443.5 100.5 c 128,-1,22
 439 96 439 96 432 96 c 2,23,-1
 16 96 l 2,24,25
 9 96 9 96 4.5 100.5 c 128,-1,26
 0 105 0 105 0 112 c 2,27,-1
 0 144 l 2,28,29
 0 151 0 151 4.5 155.5 c 128,-1,30
 9 160 9 160 16 160 c 2,31,-1
 432 160 l 2,16,17
432 288 m 2,32,33
 439 288 439 288 443.5 283.5 c 128,-1,34
 448 279 448 279 448 272 c 2,35,-1
 448 240 l 2,36,37
 448 233 448 233 443.5 228.5 c 128,-1,38
 439 224 439 224 432 224 c 2,39,-1
 16 224 l 2,40,41
 9 224 9 224 4.5 228.5 c 128,-1,42
 0 233 0 233 0 240 c 2,43,-1
 0 272 l 2,44,45
 0 279 0 279 4.5 283.5 c 128,-1,46
 9 288 9 288 16 288 c 2,47,-1
 432 288 l 2,32,33
432 416 m 2,48,49
 439 416 439 416 443.5 411.5 c 128,-1,50
 448 407 448 407 448 400 c 2,51,-1
 448 368 l 2,52,53
 448 361 448 361 443.5 356.5 c 128,-1,54
 439 352 439 352 432 352 c 2,55,-1
 16 352 l 2,56,57
 9 352 9 352 4.5 356.5 c 128,-1,58
 0 361 0 361 0 368 c 2,59,-1
 0 400 l 2,60,61
 0 407 0 407 4.5 411.5 c 128,-1,62
 9 416 9 416 16 416 c 2,63,-1
 432 416 l 2,48,49
EndSplineSet
Validated: 513
EndChar

StartChar: list
Encoding: 61498 61498 116
Width: 512
GlyphClass: 3
Flags: W
LayerCount: 2
Fore
SplineSet
80 80 m 2,0,1
 87 80 87 80 91.5 75.5 c 128,-1,2
 96 71 96 71 96 64 c 2,3,-1
 96 0 l 2,4,5
 96 -7 96 -7 91.5 -11.5 c 128,-1,6
 87 -16 87 -16 80 -16 c 2,7,-1
 16 -16 l 2,8,9
 9 -16 9 -16 4.5 -11.5 c 128,-1,10
 0 -7 0 -7 0 0 c 2,11,-1
 0 64 l 2,12,13
 0 71 0 71 4.5 75.5 c 128,-1,14
 9 80 9 80 16 80 c 2,15,-1
 80 80 l 2,0,1
80 400 m 2,16,17
 87 400 87 400 91.5 395.5 c 128,-1,18
 96 391 96 391 96 384 c 2,19,-1
 96 320 l 2,20,21
 96 313 96 313 91.5 308.5 c 128,-1,22
 87 304 87 304 80 304 c 2,23,-1
 16 304 l 2,24,25
 9 304 9 304 4.5 308.5 c 128,-1,26
 0 313 0 313 0 320 c 2,27,-1
 0 384 l 2,28,29
 0 391 0 391 4.5 395.5 c 128,-1,30
 9 400 9 400 16 400 c 2,31,-1
 80 400 l 2,16,17
80 240 m 2,32,33
 87 240 87 240 91.5 235.5 c 128,-1,34
 96 231 96 231 96 224 c 2,35,-1
 96 160 l 2,36,37
 96 153 96 153 91.5 148.5 c 128,-1,38
 87 144 87 144 80 144 c 2,39,-1
 16 144 l 2,40,41
 9 144 9 144 4.5 148.5 c 128,-1,42
 0 153 0 153 0 160 c 2,43,-1
 0 224 l 2,44,45
 0 231 0 231 4.5 235.5 c 128,-1,46
 9 240 9 240 16 240 c 2,47,-1
 80 240 l 2,32,33
496 64 m 2,48,49
 503 64 503 64 507.5 59.5 c 128,-1,50
 512 55 512 55 512 48 c 2,51,-1
 512 16 l 2,52,53
 512 9 512 9 507.5 4.5 c 128,-1,54
 503 0 503 0 496 0 c 2,55,-1
 176 0 l 2,56,57
 169 0 169 0 164.5 4.5 c 128,-1,58
 160 9 160 9 160 16 c 2,59,-1
 160 48 l 2,60,61
 160 55 160 55 164.5 59.5 c 128,-1,62
 169 64 169 64 176 64 c 2,63,-1
 496 64 l 2,48,49
496 384 m 2,64,65
 503 384 503 384 507.5 379.5 c 128,-1,66
 512 375 512 375 512 368 c 2,67,-1
 512 336 l 2,68,69
 512 329 512 329 507.5 324.5 c 128,-1,70
 503 320 503 320 496 320 c 2,71,-1
 176 320 l 2,72,73
 169 320 169 320 164.5 324.5 c 128,-1,74
 160 329 160 329 160 336 c 2,75,-1
 160 368 l 2,76,77
 160 375 160 375 164.5 379.5 c 128,-1,78
 169 384 169 384 176 384 c 2,79,-1
 496 384 l 2,64,65
496 224 m 2,80,81
 503 224 503 224 507.5 219.5 c 128,-1,82
 512 215 512 215 512 208 c 2,83,-1
 512 176 l 2,84,85
 512 169 512 169 507.5 164.5 c 128,-1,86
 503 160 503 160 496 160 c 2,87,-1
 176 160 l 2,88,89
 169 160 169 160 164.5 164.5 c 128,-1,90
 160 169 160 169 160 176 c 2,91,-1
 160 208 l 2,92,93
 160 215 160 215 164.5 219.5 c 128,-1,94
 169 224 169 224 176 224 c 2,95,-1
 496 224 l 2,80,81
EndSplineSet
Validated: 1
EndChar

StartChar: outdent
Encoding: 61499 61499 117
Width: 448
GlyphClass: 3
Flags: W
LayerCount: 2
Fore
SplineSet
101 85 m 2,0,-1
 5 181 l 2,1,2
 0 185 0 185 0 192 c 128,-1,3
 0 199 0 199 5 203 c 2,4,-1
 101 299 l 2,5,6
 108 307 108 307 118 303 c 128,-1,7
 128 299 128 299 128 288 c 2,8,-1
 128 96 l 2,9,10
 128 85 128 85 118 81 c 128,-1,11
 108 77 108 77 101 85 c 2,0,-1
432 32 m 2,12,13
 439 32 439 32 443.5 27.5 c 128,-1,14
 448 23 448 23 448 16 c 2,15,-1
 448 -16 l 2,16,17
 448 -23 448 -23 443.5 -27.5 c 128,-1,18
 439 -32 439 -32 432 -32 c 2,19,-1
 16 -32 l 2,20,21
 9 -32 9 -32 4.5 -27.5 c 128,-1,22
 0 -23 0 -23 0 -16 c 2,23,-1
 0 16 l 2,24,25
 0 23 0 23 4.5 27.5 c 128,-1,26
 9 32 9 32 16 32 c 2,27,-1
 432 32 l 2,12,13
435 160 m 2,28,29
 440 160 440 160 444 156 c 128,-1,30
 448 152 448 152 448 147 c 2,31,-1
 448 109 l 2,32,33
 448 104 448 104 444 100 c 128,-1,34
 440 96 440 96 435 96 c 2,35,-1
 205 96 l 2,36,37
 200 96 200 96 196 100 c 128,-1,38
 192 104 192 104 192 109 c 2,39,-1
 192 147 l 2,40,41
 192 152 192 152 196 156 c 128,-1,42
 200 160 200 160 205 160 c 2,43,-1
 435 160 l 2,28,29
435 288 m 2,44,45
 440 288 440 288 444 284 c 128,-1,46
 448 280 448 280 448 275 c 2,47,-1
 448 237 l 2,48,49
 448 232 448 232 444 228 c 128,-1,50
 440 224 440 224 435 224 c 2,51,-1
 205 224 l 2,52,53
 200 224 200 224 196 228 c 128,-1,54
 192 232 192 232 192 237 c 2,55,-1
 192 275 l 2,56,57
 192 280 192 280 196 284 c 128,-1,58
 200 288 200 288 205 288 c 2,59,-1
 435 288 l 2,44,45
432 416 m 2,60,61
 439 416 439 416 443.5 411.5 c 128,-1,62
 448 407 448 407 448 400 c 2,63,-1
 448 368 l 2,64,65
 448 361 448 361 443.5 356.5 c 128,-1,66
 439 352 439 352 432 352 c 2,67,-1
 16 352 l 2,68,69
 9 352 9 352 4.5 356.5 c 128,-1,70
 0 361 0 361 0 368 c 2,71,-1
 0 400 l 2,72,73
 0 407 0 407 4.5 411.5 c 128,-1,74
 9 416 9 416 16 416 c 2,75,-1
 432 416 l 2,60,61
EndSplineSet
Validated: 33
EndChar

StartChar: indent
Encoding: 61500 61500 118
Width: 448
GlyphClass: 3
Flags: W
LayerCount: 2
Fore
SplineSet
27 85 m 2,0,1
 20 77 20 77 10 81 c 128,-1,2
 0 85 0 85 0 96 c 2,3,-1
 0 288 l 2,4,5
 0 299 0 299 10 303 c 128,-1,6
 20 307 20 307 27 299 c 2,7,-1
 123 203 l 2,8,9
 128 199 128 199 128 192 c 128,-1,10
 128 185 128 185 123 181 c 2,11,-1
 27 85 l 2,0,1
432 32 m 2,12,13
 439 32 439 32 443.5 27.5 c 128,-1,14
 448 23 448 23 448 16 c 2,15,-1
 448 -16 l 2,16,17
 448 -23 448 -23 443.5 -27.5 c 128,-1,18
 439 -32 439 -32 432 -32 c 2,19,-1
 16 -32 l 2,20,21
 9 -32 9 -32 4.5 -27.5 c 128,-1,22
 0 -23 0 -23 0 -16 c 2,23,-1
 0 16 l 2,24,25
 0 23 0 23 4.5 27.5 c 128,-1,26
 9 32 9 32 16 32 c 2,27,-1
 432 32 l 2,12,13
435 160 m 2,28,29
 440 160 440 160 444 156 c 128,-1,30
 448 152 448 152 448 147 c 2,31,-1
 448 109 l 2,32,33
 448 104 448 104 444 100 c 128,-1,34
 440 96 440 96 435 96 c 2,35,-1
 205 96 l 2,36,37
 200 96 200 96 196 100 c 128,-1,38
 192 104 192 104 192 109 c 2,39,-1
 192 147 l 2,40,41
 192 152 192 152 196 156 c 128,-1,42
 200 160 200 160 205 160 c 2,43,-1
 435 160 l 2,28,29
435 288 m 2,44,45
 440 288 440 288 444 284 c 128,-1,46
 448 280 448 280 448 275 c 2,47,-1
 448 237 l 2,48,49
 448 232 448 232 444 228 c 128,-1,50
 440 224 440 224 435 224 c 2,51,-1
 205 224 l 2,52,53
 200 224 200 224 196 228 c 128,-1,54
 192 232 192 232 192 237 c 2,55,-1
 192 275 l 2,56,57
 192 280 192 280 196 284 c 128,-1,58
 200 288 200 288 205 288 c 2,59,-1
 435 288 l 2,44,45
432 416 m 2,60,61
 439 416 439 416 443.5 411.5 c 128,-1,62
 448 407 448 407 448 400 c 2,63,-1
 448 368 l 2,64,65
 448 361 448 361 443.5 356.5 c 128,-1,66
 439 352 439 352 432 352 c 2,67,-1
 16 352 l 2,68,69
 9 352 9 352 4.5 356.5 c 128,-1,70
 0 361 0 361 0 368 c 2,71,-1
 0 400 l 2,72,73
 0 407 0 407 4.5 411.5 c 128,-1,74
 9 416 9 416 16 416 c 2,75,-1
 432 416 l 2,60,61
EndSplineSet
Validated: 33
EndChar

StartChar: video
Encoding: 61501 61501 119
Width: 576
GlyphClass: 3
Flags: W
LayerCount: 2
Fore
SplineSet
336 384 m 2,0,1
 356 384 356 384 370 370 c 128,-1,2
 384 356 384 356 384 336 c 2,3,-1
 384 48 l 2,4,5
 384 28 384 28 370 14 c 128,-1,6
 356 0 356 0 336 0 c 2,7,-1
 48 0 l 2,8,9
 28 0 28 0 14 14 c 128,-1,10
 0 28 0 28 0 48 c 2,11,-1
 0 336 l 2,12,13
 0 356 0 356 14 370 c 128,-1,14
 28 384 28 384 48 384 c 2,15,-1
 336 384 l 2,0,1
526 346 m 2,16,17
 542 357 542 357 559 348.5 c 128,-1,18
 576 340 576 340 576 320 c 2,19,-1
 576 64 l 2,20,21
 576 44 576 44 558.5 35.5 c 128,-1,22
 541 27 541 27 526 38 c 2,23,-1
 416 113 l 1,24,-1
 416 271 l 1,25,-1
 526 346 l 2,16,17
EndSplineSet
Validated: 33
EndChar

StartChar: image
Encoding: 61502 61502 120
Width: 512
GlyphClass: 3
Flags: W
LayerCount: 2
Fore
SplineSet
464 0 m 2,0,-1
 48 0 l 2,1,2
 28 0 28 0 14 14 c 128,-1,3
 0 28 0 28 0 48 c 2,4,-1
 0 336 l 2,5,6
 0 356 0 356 14 370 c 128,-1,7
 28 384 28 384 48 384 c 2,8,-1
 464 384 l 2,9,10
 484 384 484 384 498 370 c 128,-1,11
 512 356 512 356 512 336 c 2,12,-1
 512 48 l 2,13,14
 512 28 512 28 498 14 c 128,-1,15
 484 0 484 0 464 0 c 2,0,-1
112 328 m 128,-1,17
 89 328 89 328 72.5 311.5 c 128,-1,18
 56 295 56 295 56 272 c 128,-1,19
 56 249 56 249 72.5 232.5 c 128,-1,20
 89 216 89 216 112 216 c 128,-1,21
 135 216 135 216 151.5 232.5 c 128,-1,22
 168 249 168 249 168 272 c 128,-1,23
 168 295 168 295 151.5 311.5 c 128,-1,16
 135 328 135 328 112 328 c 128,-1,17
64 64 m 1,24,-1
 448 64 l 1,25,-1
 448 176 l 1,26,-1
 360 264 l 2,27,28
 352 272 352 272 344 264 c 2,29,-1
 208 128 l 1,30,-1
 152 184 l 2,31,32
 144 192 144 192 136 184 c 2,33,-1
 64 112 l 1,34,-1
 64 64 l 1,24,-1
EndSplineSet
Validated: 1
EndChar

StartChar: map-marker
Encoding: 61505 61505 121
Width: 384
GlyphClass: 3
Flags: W
LayerCount: 2
Fore
SplineSet
172 -54 m 0,0,1
 148 -19 148 -19 117.5 25 c 128,-1,2
 87 69 87 69 74 87 c 128,-1,3
 61 105 61 105 44 131.5 c 128,-1,4
 27 158 27 158 21.5 169 c 128,-1,5
 16 180 16 180 9.5 197 c 128,-1,6
 3 214 3 214 1.5 226.5 c 128,-1,7
 0 239 0 239 0 256 c 0,8,9
 0 336 0 336 56 392 c 128,-1,10
 112 448 112 448 192 448 c 128,-1,11
 272 448 272 448 328 392 c 128,-1,12
 384 336 384 336 384 256 c 0,13,14
 384 239 384 239 382.5 226.5 c 128,-1,15
 381 214 381 214 374.5 197 c 128,-1,16
 368 180 368 180 362.5 169 c 128,-1,17
 357 158 357 158 340 131.5 c 128,-1,18
 323 105 323 105 310 87 c 128,-1,19
 297 69 297 69 266.5 25 c 128,-1,20
 236 -19 236 -19 212 -54 c 0,21,22
 205 -64 205 -64 192 -64 c 128,-1,23
 179 -64 179 -64 172 -54 c 0,0,1
EndSplineSet
Validated: 513
EndChar

StartChar: adjust
Encoding: 61506 61506 122
Width: 512
GlyphClass: 3
Flags: W
LayerCount: 2
Fore
SplineSet
8 192 m 128,-1,1
 8 295 8 295 80.5 367.5 c 128,-1,2
 153 440 153 440 256 440 c 128,-1,3
 359 440 359 440 431.5 367.5 c 128,-1,4
 504 295 504 295 504 192 c 128,-1,5
 504 89 504 89 431.5 16.5 c 128,-1,6
 359 -56 359 -56 256 -56 c 128,-1,7
 153 -56 153 -56 80.5 16.5 c 128,-1,0
 8 89 8 89 8 192 c 128,-1,1
256 8 m 1,8,9
 332 8 332 8 386 62 c 128,-1,10
 440 116 440 116 440 192 c 128,-1,11
 440 268 440 268 386 322 c 128,-1,12
 332 376 332 376 256 376 c 1,13,-1
 256 8 l 1,8,9
EndSplineSet
Validated: 1
EndChar

StartChar: tint
Encoding: 61507 61507 123
Width: 352
GlyphClass: 3
Flags: W
LayerCount: 2
Fore
SplineSet
205 426 m 0,0,1
 221 374 221 374 248 326.5 c 128,-1,2
 275 279 275 279 297 252 c 128,-1,3
 319 225 319 225 335.5 188.5 c 128,-1,4
 352 152 352 152 352 114 c 0,5,6
 352 40 352 40 300.5 -12 c 128,-1,7
 249 -64 249 -64 176 -64 c 128,-1,8
 103 -64 103 -64 51.5 -12 c 128,-1,9
 0 40 0 40 0 114 c 0,10,11
 0 152 0 152 16.5 188 c 128,-1,12
 33 224 33 224 55.5 252 c 128,-1,13
 78 280 78 280 104.5 327 c 128,-1,14
 131 374 131 374 147 426 c 0,15,16
 154 448 154 448 176.5 448 c 128,-1,17
 199 448 199 448 205 426 c 0,0,1
176 0 m 0,18,19
 183 0 183 0 187.5 4.5 c 128,-1,20
 192 9 192 9 192 16 c 128,-1,21
 192 23 192 23 187.5 27.5 c 128,-1,22
 183 32 183 32 176 32 c 0,23,24
 143 32 143 32 119.5 55.5 c 128,-1,25
 96 79 96 79 96 112 c 0,26,27
 96 119 96 119 91.5 123.5 c 128,-1,28
 87 128 87 128 80 128 c 128,-1,29
 73 128 73 128 68.5 123.5 c 128,-1,30
 64 119 64 119 64 112 c 0,31,32
 64 66 64 66 97 33 c 128,-1,33
 130 0 130 0 176 0 c 0,18,19
EndSplineSet
Validated: 1
EndChar

StartChar: edit
Encoding: 61508 61508 124
Width: 576
GlyphClass: 3
Flags: W
LayerCount: 2
Fore
SplineSet
403 365 m 2,0,-1
 493 275 l 2,1,2
 500 268 500 268 493 261 c 2,3,-1
 274 42 l 1,4,-1
 182 32 l 2,5,6
 176 31 176 31 170.5 34 c 128,-1,7
 165 37 165 37 162 42.5 c 128,-1,8
 159 48 159 48 160 54 c 2,9,-1
 170 146 l 1,10,-1
 389 365 l 2,11,12
 396 372 396 372 403 365 c 2,0,-1
565 388 m 2,13,14
 576 376 576 376 576 360 c 128,-1,15
 576 344 576 344 565 332 c 2,16,-1
 529 297 l 2,17,18
 522 290 522 290 515 297 c 2,19,-1
 425 387 l 2,20,21
 418 394 418 394 425 401 c 2,22,-1
 461 436 l 2,23,24
 472 448 472 448 488 448 c 128,-1,25
 504 448 504 448 516 436 c 2,26,-1
 565 388 l 2,13,14
384 102 m 2,27,28
 384 107 384 107 388 110 c 2,29,-1
 428 150 l 2,30,31
 433 156 433 156 440.5 153 c 128,-1,32
 448 150 448 150 448 142 c 2,33,-1
 448 -16 l 2,34,35
 448 -36 448 -36 434 -50 c 128,-1,36
 420 -64 420 -64 400 -64 c 2,37,-1
 48 -64 l 2,38,39
 28 -64 28 -64 14 -50 c 128,-1,40
 0 -36 0 -36 0 -16 c 2,41,-1
 0 336 l 2,42,43
 0 356 0 356 14 370 c 128,-1,44
 28 384 28 384 48 384 c 2,45,-1
 334 384 l 2,46,47
 342 384 342 384 345 376.5 c 128,-1,48
 348 369 348 369 342 364 c 2,49,-1
 302 324 l 2,50,51
 299 320 299 320 294 320 c 2,52,-1
 64 320 l 1,53,-1
 64 0 l 1,54,-1
 384 0 l 1,55,-1
 384 102 l 2,27,28
EndSplineSet
Validated: 1
EndChar

StartChar: step-backward
Encoding: 61512 61512 125
Width: 448
GlyphClass: 3
Flags: W
LayerCount: 2
Fore
SplineSet
64 -20 m 2,0,-1
 64 404 l 2,1,2
 64 416 64 416 76 416 c 2,3,-1
 124 416 l 2,4,5
 136 416 136 416 136 404 c 2,6,-1
 136 228 l 1,7,-1
 332 409 l 2,8,9
 347 422 347 422 365.5 413 c 128,-1,10
 384 404 384 404 384 384 c 2,11,-1
 384 0 l 2,12,13
 384 -20 384 -20 365.5 -29 c 128,-1,14
 347 -38 347 -38 332 -25 c 2,15,-1
 136 155 l 1,16,-1
 136 -20 l 2,17,18
 136 -32 136 -32 124 -32 c 2,19,-1
 76 -32 l 2,20,21
 64 -32 64 -32 64 -20 c 2,0,-1
EndSplineSet
Validated: 545
EndChar

StartChar: fast-backward
Encoding: 61513 61513 126
Width: 512
GlyphClass: 3
Flags: W
LayerCount: 2
Fore
SplineSet
0 12 m 2,0,-1
 0 372 l 2,1,2
 0 384 0 384 12 384 c 2,3,-1
 52 384 l 2,4,5
 64 384 64 384 64 372 c 2,6,-1
 64 220 l 1,7,-1
 236 377 l 2,8,9
 251 390 251 390 269.5 381 c 128,-1,10
 288 372 288 372 288 352 c 2,11,-1
 288 220 l 1,12,-1
 460 377 l 2,13,14
 475 390 475 390 493.5 381 c 128,-1,15
 512 372 512 372 512 352 c 2,16,-1
 512 32 l 2,17,18
 512 12 512 12 493.5 3 c 128,-1,19
 475 -6 475 -6 460 7 c 2,20,-1
 288 163 l 1,21,-1
 288 32 l 2,22,23
 288 12 288 12 269.5 3 c 128,-1,24
 251 -6 251 -6 236 7 c 2,25,-1
 64 163 l 1,26,-1
 64 12 l 2,27,28
 64 0 64 0 52 0 c 2,29,-1
 12 0 l 2,30,31
 0 0 0 0 0 12 c 2,0,-1
EndSplineSet
Validated: 545
EndChar

StartChar: backward
Encoding: 61514 61514 127
Width: 512
GlyphClass: 3
Flags: W
LayerCount: 2
Fore
SplineSet
12 167 m 2,0,1
 0 177 0 177 0 192 c 128,-1,2
 0 207 0 207 12 217 c 2,3,-1
 204 377 l 2,4,5
 219 390 219 390 237.5 381 c 128,-1,6
 256 372 256 372 256 352 c 2,7,-1
 256 32 l 2,8,9
 256 12 256 12 237.5 3 c 128,-1,10
 219 -6 219 -6 204 7 c 2,11,-1
 12 167 l 2,0,1
268 167 m 2,12,13
 256 177 256 177 256 192 c 128,-1,14
 256 207 256 207 268 217 c 2,15,-1
 460 377 l 2,16,17
 475 390 475 390 493.5 381 c 128,-1,18
 512 372 512 372 512 352 c 2,19,-1
 512 32 l 2,20,21
 512 12 512 12 493.5 3 c 128,-1,22
 475 -6 475 -6 460 7 c 2,23,-1
 268 167 l 2,12,13
EndSplineSet
Validated: 37
EndChar

StartChar: play
Encoding: 61515 61515 128
Width: 448
GlyphClass: 3
Flags: W
LayerCount: 2
Fore
SplineSet
424 233 m 2,0,1
 448 219 448 219 448 192 c 128,-1,2
 448 165 448 165 424 151 c 2,3,-1
 72 -57 l 2,4,5
 49 -71 49 -71 24.5 -57.5 c 128,-1,6
 0 -44 0 -44 0 -16 c 2,7,-1
 0 400 l 2,8,9
 0 430 0 430 25.5 442.5 c 128,-1,10
 51 455 51 455 72 441 c 2,11,-1
 424 233 l 2,0,1
EndSplineSet
Validated: 33
EndChar

StartChar: pause
Encoding: 61516 61516 129
Width: 448
GlyphClass: 3
Flags: W
LayerCount: 2
Fore
SplineSet
144 -31 m 2,0,-1
 48 -31 l 2,1,2
 28 -31 28 -31 14 -17 c 128,-1,3
 0 -3 0 -3 0 17 c 2,4,-1
 0 369 l 2,5,6
 0 389 0 389 14 403 c 128,-1,7
 28 417 28 417 48 417 c 2,8,-1
 144 417 l 2,9,10
 164 417 164 417 178 403 c 128,-1,11
 192 389 192 389 192 369 c 2,12,-1
 192 17 l 2,13,14
 192 -3 192 -3 178 -17 c 128,-1,15
 164 -31 164 -31 144 -31 c 2,0,-1
448 17 m 2,16,17
 448 -3 448 -3 434 -17 c 128,-1,18
 420 -31 420 -31 400 -31 c 2,19,-1
 304 -31 l 2,20,21
 284 -31 284 -31 270 -17 c 128,-1,22
 256 -3 256 -3 256 17 c 2,23,-1
 256 369 l 2,24,25
 256 389 256 389 270 403 c 128,-1,26
 284 417 284 417 304 417 c 2,27,-1
 400 417 l 2,28,29
 420 417 420 417 434 403 c 128,-1,30
 448 389 448 389 448 369 c 2,31,-1
 448 17 l 2,16,17
EndSplineSet
Validated: 1
EndChar

StartChar: stop
Encoding: 61517 61517 130
Width: 448
GlyphClass: 3
Flags: W
LayerCount: 2
Fore
SplineSet
400 416 m 2,0,1
 420 416 420 416 434 402 c 128,-1,2
 448 388 448 388 448 368 c 2,3,-1
 448 16 l 2,4,5
 448 -4 448 -4 434 -18 c 128,-1,6
 420 -32 420 -32 400 -32 c 2,7,-1
 48 -32 l 2,8,9
 28 -32 28 -32 14 -18 c 128,-1,10
 0 -4 0 -4 0 16 c 2,11,-1
 0 368 l 2,12,13
 0 388 0 388 14 402 c 128,-1,14
 28 416 28 416 48 416 c 2,15,-1
 400 416 l 2,0,1
EndSplineSet
Validated: 1
EndChar

StartChar: forward
Encoding: 61518 61518 131
Width: 512
GlyphClass: 3
Flags: W
LayerCount: 2
Fore
SplineSet
500 217 m 2,0,1
 512 207 512 207 512 192 c 128,-1,2
 512 177 512 177 500 167 c 2,3,-1
 308 7 l 2,4,5
 293 -6 293 -6 274.5 3 c 128,-1,6
 256 12 256 12 256 32 c 2,7,-1
 256 352 l 2,8,9
 256 372 256 372 274.5 381 c 128,-1,10
 293 390 293 390 308 377 c 2,11,-1
 500 217 l 2,0,1
244 217 m 2,12,13
 256 207 256 207 256 192 c 128,-1,14
 256 177 256 177 244 167 c 2,15,-1
 52 7 l 2,16,17
 37 -6 37 -6 18.5 3 c 128,-1,18
 0 12 0 12 0 32 c 2,19,-1
 0 352 l 2,20,21
 0 372 0 372 18.5 381 c 128,-1,22
 37 390 37 390 52 377 c 2,23,-1
 244 217 l 2,12,13
EndSplineSet
Validated: 37
EndChar

StartChar: fast-forward
Encoding: 61520 61520 132
Width: 512
GlyphClass: 3
Flags: W
LayerCount: 2
Fore
SplineSet
512 372 m 2,0,-1
 512 12 l 2,1,2
 512 0 512 0 500 0 c 2,3,-1
 460 0 l 2,4,5
 448 0 448 0 448 12 c 2,6,-1
 448 164 l 1,7,-1
 276 7 l 2,8,9
 261 -6 261 -6 242.5 3 c 128,-1,10
 224 12 224 12 224 32 c 2,11,-1
 224 164 l 1,12,-1
 52 7 l 2,13,14
 37 -6 37 -6 18.5 3 c 128,-1,15
 0 12 0 12 0 32 c 2,16,-1
 0 352 l 2,17,18
 0 372 0 372 18.5 381 c 128,-1,19
 37 390 37 390 52 377 c 2,20,-1
 224 221 l 1,21,-1
 224 352 l 2,22,23
 224 372 224 372 242.5 381 c 128,-1,24
 261 390 261 390 276 377 c 2,25,-1
 448 221 l 1,26,-1
 448 372 l 2,27,28
 448 384 448 384 460 384 c 2,29,-1
 500 384 l 2,30,31
 512 384 512 384 512 372 c 2,0,-1
EndSplineSet
Validated: 545
EndChar

StartChar: step-forward
Encoding: 61521 61521 133
Width: 448
GlyphClass: 3
Flags: W
LayerCount: 2
Fore
SplineSet
384 404 m 2,0,-1
 384 -20 l 2,1,2
 384 -32 384 -32 372 -32 c 2,3,-1
 324 -32 l 2,4,5
 312 -32 312 -32 312 -20 c 2,6,-1
 312 156 l 1,7,-1
 116 -25 l 2,8,9
 101 -38 101 -38 82.5 -29 c 128,-1,10
 64 -20 64 -20 64 0 c 2,11,-1
 64 384 l 2,12,13
 64 404 64 404 82.5 413 c 128,-1,14
 101 422 101 422 116 409 c 2,15,-1
 312 229 l 1,16,-1
 312 404 l 2,17,18
 312 416 312 416 324 416 c 2,19,-1
 372 416 l 2,20,21
 384 416 384 416 384 404 c 2,0,-1
EndSplineSet
Validated: 545
EndChar

StartChar: eject
Encoding: 61522 61522 134
Width: 448
GlyphClass: 3
Flags: W
LayerCount: 2
Fore
SplineSet
448 64 m 2,0,-1
 448 0 l 2,1,2
 448 -13 448 -13 438.5 -22.5 c 128,-1,3
 429 -32 429 -32 416 -32 c 2,4,-1
 32 -32 l 2,5,6
 19 -32 19 -32 9.5 -22.5 c 128,-1,7
 0 -13 0 -13 0 0 c 2,8,-1
 0 64 l 2,9,10
 0 77 0 77 9.5 86.5 c 128,-1,11
 19 96 19 96 32 96 c 2,12,-1
 416 96 l 2,13,14
 429 96 429 96 438.5 86.5 c 128,-1,15
 448 77 448 77 448 64 c 2,0,-1
48 128 m 2,16,17
 17 128 17 128 4.5 156.5 c 128,-1,18
 -8 185 -8 185 13 208 c 2,19,-1
 189 400 l 2,20,21
 203 416 203 416 224 416 c 128,-1,22
 245 416 245 416 259 400 c 2,23,-1
 435 208 l 2,24,25
 456 185 456 185 443.5 156.5 c 128,-1,26
 431 128 431 128 400 128 c 2,27,-1
 48 128 l 2,16,17
EndSplineSet
Validated: 33
EndChar

StartChar: chevron-left
Encoding: 61523 61523 135
Width: 320
GlyphClass: 3
Flags: W
LayerCount: 2
Fore
SplineSet
35 209 m 2,0,-1
 229 403 l 2,1,2
 236 410 236 410 246 410 c 128,-1,3
 256 410 256 410 263 403 c 2,4,-1
 285 381 l 2,5,6
 292 374 292 374 292.5 364 c 128,-1,7
 293 354 293 354 286 347 c 2,8,-1
 131 192 l 1,9,-1
 286 37 l 2,10,11
 293 30 293 30 292.5 20 c 128,-1,12
 292 10 292 10 285 3 c 2,13,-1
 263 -19 l 2,14,15
 256 -26 256 -26 246 -26 c 128,-1,16
 236 -26 236 -26 229 -19 c 2,17,-1
 35 175 l 2,18,19
 27 182 27 182 27 192 c 128,-1,20
 27 202 27 202 35 209 c 2,0,-1
EndSplineSet
Validated: 545
EndChar

StartChar: chevron-right
Encoding: 61524 61524 136
Width: 320
GlyphClass: 3
Flags: W
LayerCount: 2
Fore
SplineSet
285 175 m 2,0,-1
 91 -19 l 2,1,2
 84 -26 84 -26 74 -26 c 128,-1,3
 64 -26 64 -26 57 -19 c 2,4,-1
 35 3 l 2,5,6
 28 10 28 10 27.5 20 c 128,-1,7
 27 30 27 30 34 37 c 2,8,-1
 189 192 l 1,9,-1
 34 347 l 2,10,11
 27 354 27 354 27.5 364 c 128,-1,12
 28 374 28 374 35 381 c 2,13,-1
 57 403 l 2,14,15
 64 410 64 410 74 410 c 128,-1,16
 84 410 84 410 91 403 c 2,17,-1
 285 209 l 2,18,19
 293 202 293 202 293 192 c 128,-1,20
 293 182 293 182 285 175 c 2,0,-1
EndSplineSet
Validated: 545
EndChar

StartChar: plus-circle
Encoding: 61525 61525 137
Width: 512
GlyphClass: 3
Flags: W
LayerCount: 2
Fore
SplineSet
256 440 m 128,-1,1
 359 440 359 440 431.5 367.5 c 128,-1,2
 504 295 504 295 504 192 c 128,-1,3
 504 89 504 89 431.5 16.5 c 128,-1,4
 359 -56 359 -56 256 -56 c 128,-1,5
 153 -56 153 -56 80.5 16.5 c 128,-1,6
 8 89 8 89 8 192 c 128,-1,7
 8 295 8 295 80.5 367.5 c 128,-1,0
 153 440 153 440 256 440 c 128,-1,1
400 164 m 2,8,-1
 400 220 l 2,9,10
 400 232 400 232 388 232 c 2,11,-1
 296 232 l 1,12,-1
 296 324 l 2,13,14
 296 336 296 336 284 336 c 2,15,-1
 228 336 l 2,16,17
 216 336 216 336 216 324 c 2,18,-1
 216 232 l 1,19,-1
 124 232 l 2,20,21
 112 232 112 232 112 220 c 2,22,-1
 112 164 l 2,23,24
 112 152 112 152 124 152 c 2,25,-1
 216 152 l 1,26,-1
 216 60 l 2,27,28
 216 48 216 48 228 48 c 2,29,-1
 284 48 l 2,30,31
 296 48 296 48 296 60 c 2,32,-1
 296 152 l 1,33,-1
 388 152 l 2,34,35
 400 152 400 152 400 164 c 2,8,-1
EndSplineSet
Validated: 513
EndChar

StartChar: minus-circle
Encoding: 61526 61526 138
Width: 512
GlyphClass: 3
Flags: W
LayerCount: 2
Fore
SplineSet
256 440 m 128,-1,1
 359 440 359 440 431.5 367.5 c 128,-1,2
 504 295 504 295 504 192 c 128,-1,3
 504 89 504 89 431.5 16.5 c 128,-1,4
 359 -56 359 -56 256 -56 c 128,-1,5
 153 -56 153 -56 80.5 16.5 c 128,-1,6
 8 89 8 89 8 192 c 128,-1,7
 8 295 8 295 80.5 367.5 c 128,-1,0
 153 440 153 440 256 440 c 128,-1,1
124 152 m 2,8,-1
 388 152 l 2,9,10
 400 152 400 152 400 164 c 2,11,-1
 400 220 l 2,12,13
 400 232 400 232 388 232 c 2,14,-1
 124 232 l 2,15,16
 112 232 112 232 112 220 c 2,17,-1
 112 164 l 2,18,19
 112 152 112 152 124 152 c 2,8,-1
EndSplineSet
Validated: 513
EndChar

StartChar: times-circle
Encoding: 61527 61527 139
Width: 512
GlyphClass: 3
Flags: W
LayerCount: 2
Fore
SplineSet
256 440 m 128,-1,1
 359 440 359 440 431.5 367.5 c 128,-1,2
 504 295 504 295 504 192 c 128,-1,3
 504 89 504 89 431.5 16.5 c 128,-1,4
 359 -56 359 -56 256 -56 c 128,-1,5
 153 -56 153 -56 80.5 16.5 c 128,-1,6
 8 89 8 89 8 192 c 128,-1,7
 8 295 8 295 80.5 367.5 c 128,-1,0
 153 440 153 440 256 440 c 128,-1,1
378 127 m 2,8,-1
 312 192 l 1,9,-1
 378 257 l 2,10,11
 386 266 386 266 378 274 c 2,12,-1
 338 314 l 2,13,14
 330 322 330 322 321 314 c 2,15,-1
 256 248 l 1,16,-1
 191 314 l 2,17,18
 182 322 182 322 174 314 c 2,19,-1
 134 274 l 2,20,21
 126 266 126 266 134 257 c 2,22,-1
 200 192 l 1,23,-1
 134 127 l 2,24,25
 126 118 126 118 134 110 c 2,26,-1
 174 70 l 2,27,28
 182 62 182 62 191 70 c 2,29,-1
 256 136 l 1,30,-1
 321 70 l 2,31,32
 330 62 330 62 338 70 c 2,33,-1
 378 110 l 2,34,35
 386 118 386 118 378 127 c 2,8,-1
EndSplineSet
Validated: 545
EndChar

StartChar: check-circle
Encoding: 61528 61528 140
Width: 512
GlyphClass: 3
Flags: W
LayerCount: 2
Fore
SplineSet
504 192 m 128,-1,1
 504 89 504 89 431.5 16.5 c 128,-1,2
 359 -56 359 -56 256 -56 c 128,-1,3
 153 -56 153 -56 80.5 16.5 c 128,-1,4
 8 89 8 89 8 192 c 128,-1,5
 8 295 8 295 80.5 367.5 c 128,-1,6
 153 440 153 440 256 440 c 128,-1,7
 359 440 359 440 431.5 367.5 c 128,-1,0
 504 295 504 295 504 192 c 128,-1,1
227 61 m 2,8,-1
 411 245 l 2,9,10
 423 256 423 256 411 267 c 2,11,-1
 389 290 l 2,12,13
 377 301 377 301 366 290 c 2,14,-1
 216 140 l 1,15,-1
 146 210 l 2,16,17
 135 221 135 221 123 210 c 2,18,-1
 101 187 l 2,19,20
 89 176 89 176 101 165 c 2,21,-1
 205 61 l 2,22,23
 216 49 216 49 227 61 c 2,8,-1
EndSplineSet
Validated: 545
EndChar

StartChar: question-circle
Encoding: 61529 61529 141
Width: 512
GlyphClass: 3
Flags: W
LayerCount: 2
Fore
SplineSet
504 192 m 128,-1,1
 504 89 504 89 431.5 16.5 c 128,-1,2
 359 -56 359 -56 256 -56 c 128,-1,3
 153 -56 153 -56 80.5 16.5 c 128,-1,4
 8 89 8 89 8 192 c 128,-1,5
 8 295 8 295 80.5 367.5 c 128,-1,6
 153 440 153 440 256 440 c 128,-1,7
 359 440 359 440 431.5 367.5 c 128,-1,0
 504 295 504 295 504 192 c 128,-1,1
263 358 m 0,8,9
 189 358 189 358 146 294 c 0,10,11
 140 285 140 285 149 278 c 2,12,-1
 184 252 l 2,13,14
 193 245 193 245 200 254 c 0,15,16
 211 267 211 267 217.5 273.5 c 128,-1,17
 224 280 224 280 234 285 c 128,-1,18
 244 290 244 290 257 290 c 0,19,20
 274 290 274 290 288.5 280.5 c 128,-1,21
 303 271 303 271 303 257 c 0,22,23
 303 246 303 246 295.5 239.5 c 128,-1,24
 288 233 288 233 271 223 c 0,25,26
 253 213 253 213 244.5 207 c 128,-1,27
 236 201 236 201 226 186 c 128,-1,28
 216 171 216 171 216 152 c 2,29,-1
 216 148 l 2,30,31
 216 136 216 136 228 136 c 2,32,-1
 284 136 l 2,33,34
 296 136 296 136 296 148 c 2,35,-1
 296 149 l 2,36,37
 296 158 296 158 309 167 c 128,-1,38
 322 176 322 176 337.5 184 c 128,-1,39
 353 192 353 192 366 211 c 128,-1,40
 379 230 379 230 379 256 c 0,41,42
 379 298 379 298 343 328 c 128,-1,43
 307 358 307 358 263 358 c 0,8,9
256 110 m 128,-1,45
 237 110 237 110 223.5 96.5 c 128,-1,46
 210 83 210 83 210 64 c 128,-1,47
 210 45 210 45 223.5 31.5 c 128,-1,48
 237 18 237 18 256 18 c 128,-1,49
 275 18 275 18 288.5 31.5 c 128,-1,50
 302 45 302 45 302 64 c 128,-1,51
 302 83 302 83 288.5 96.5 c 128,-1,44
 275 110 275 110 256 110 c 128,-1,45
EndSplineSet
Validated: 545
EndChar

StartChar: info-circle
Encoding: 61530 61530 142
Width: 512
GlyphClass: 3
Flags: W
LayerCount: 2
Fore
SplineSet
256 440 m 128,-1,1
 359 440 359 440 431.5 367.5 c 128,-1,2
 504 295 504 295 504 192 c 128,-1,3
 504 89 504 89 431.5 16.5 c 128,-1,4
 359 -56 359 -56 256 -56 c 128,-1,5
 153 -56 153 -56 80.5 16.5 c 128,-1,6
 8 89 8 89 8 192 c 128,-1,7
 8 295 8 295 80.5 367.5 c 128,-1,0
 153 440 153 440 256 440 c 128,-1,1
256 330 m 128,-1,9
 239 330 239 330 226.5 317.5 c 128,-1,10
 214 305 214 305 214 288 c 128,-1,11
 214 271 214 271 226.5 258.5 c 128,-1,12
 239 246 239 246 256 246 c 128,-1,13
 273 246 273 246 285.5 258.5 c 128,-1,14
 298 271 298 271 298 288 c 128,-1,15
 298 305 298 305 285.5 317.5 c 128,-1,8
 273 330 273 330 256 330 c 128,-1,9
312 76 m 2,16,-1
 312 100 l 2,17,18
 312 112 312 112 300 112 c 2,19,-1
 288 112 l 1,20,-1
 288 212 l 2,21,22
 288 224 288 224 276 224 c 2,23,-1
 212 224 l 2,24,25
 200 224 200 224 200 212 c 2,26,-1
 200 188 l 2,27,28
 200 176 200 176 212 176 c 2,29,-1
 224 176 l 1,30,-1
 224 112 l 1,31,-1
 212 112 l 2,32,33
 200 112 200 112 200 100 c 2,34,-1
 200 76 l 2,35,36
 200 64 200 64 212 64 c 2,37,-1
 300 64 l 2,38,39
 312 64 312 64 312 76 c 2,16,-1
EndSplineSet
Validated: 513
EndChar

StartChar: crosshairs
Encoding: 61531 61531 143
Width: 512
GlyphClass: 3
Flags: W
LayerCount: 2
Fore
SplineSet
500 224 m 2,0,1
 512 224 512 224 512 212 c 2,2,-1
 512 172 l 2,3,4
 512 160 512 160 500 160 c 2,5,-1
 470 160 l 1,6,7
 463 114 463 114 437.5 75 c 128,-1,8
 412 36 412 36 373 10.5 c 128,-1,9
 334 -15 334 -15 288 -22 c 1,10,-1
 288 -52 l 2,11,12
 288 -64 288 -64 276 -64 c 2,13,-1
 236 -64 l 2,14,15
 224 -64 224 -64 224 -52 c 2,16,-1
 224 -22 l 1,17,18
 154 -11 154 -11 103.5 39.5 c 128,-1,19
 53 90 53 90 42 160 c 1,20,-1
 12 160 l 2,21,22
 0 160 0 160 0 172 c 2,23,-1
 0 212 l 2,24,25
 0 224 0 224 12 224 c 2,26,-1
 42 224 l 1,27,28
 53 294 53 294 103.5 344.5 c 128,-1,29
 154 395 154 395 224 406 c 1,30,-1
 224 436 l 2,31,32
 224 448 224 448 236 448 c 2,33,-1
 276 448 l 2,34,35
 288 448 288 448 288 436 c 2,36,-1
 288 406 l 1,37,38
 358 395 358 395 408.5 344.5 c 128,-1,39
 459 294 459 294 470 224 c 1,40,-1
 500 224 l 2,0,1
288 43 m 1,41,42
 332 53 332 53 363.5 84.5 c 128,-1,43
 395 116 395 116 405 160 c 1,44,-1
 364 160 l 2,45,46
 352 160 352 160 352 172 c 2,47,-1
 352 212 l 2,48,49
 352 224 352 224 364 224 c 2,50,-1
 405 224 l 1,51,52
 395 268 395 268 363.5 299.5 c 128,-1,53
 332 331 332 331 288 341 c 1,54,-1
 288 300 l 2,55,56
 288 288 288 288 276 288 c 2,57,-1
 236 288 l 2,58,59
 224 288 224 288 224 300 c 2,60,-1
 224 341 l 1,61,62
 180 331 180 331 148.5 299.5 c 128,-1,63
 117 268 117 268 107 224 c 1,64,-1
 148 224 l 2,65,66
 160 224 160 224 160 212 c 2,67,-1
 160 172 l 2,68,69
 160 160 160 160 148 160 c 2,70,-1
 107 160 l 1,71,72
 117 116 117 116 148.5 84.5 c 128,-1,73
 180 53 180 53 224 43 c 1,74,-1
 224 84 l 2,75,76
 224 96 224 96 236 96 c 2,77,-1
 276 96 l 2,78,79
 288 96 288 96 288 84 c 2,80,-1
 288 43 l 1,41,42
288 192 m 128,-1,82
 288 179 288 179 278.5 169.5 c 128,-1,83
 269 160 269 160 256 160 c 128,-1,84
 243 160 243 160 233.5 169.5 c 128,-1,85
 224 179 224 179 224 192 c 128,-1,86
 224 205 224 205 233.5 214.5 c 128,-1,87
 243 224 243 224 256 224 c 128,-1,88
 269 224 269 224 278.5 214.5 c 128,-1,81
 288 205 288 205 288 192 c 128,-1,82
EndSplineSet
Validated: 1
EndChar

StartChar: ban
Encoding: 61534 61534 144
Width: 512
GlyphClass: 3
Flags: W
LayerCount: 2
Fore
SplineSet
256 440 m 128,-1,1
 359 440 359 440 431.5 367.5 c 128,-1,2
 504 295 504 295 504 192 c 128,-1,3
 504 89 504 89 431.5 16.5 c 128,-1,4
 359 -56 359 -56 256 -56 c 128,-1,5
 153 -56 153 -56 80.5 16.5 c 128,-1,6
 8 89 8 89 8 192 c 128,-1,7
 8 295 8 295 80.5 367.5 c 128,-1,0
 153 440 153 440 256 440 c 128,-1,1
386 322 m 128,-1,9
 338 370 338 370 270 375.5 c 128,-1,10
 202 381 202 381 150 343 c 1,11,-1
 407 86 l 1,12,13
 445 138 445 138 439.5 206 c 128,-1,8
 434 274 434 274 386 322 c 128,-1,9
126 62 m 128,-1,15
 174 14 174 14 242 8.5 c 128,-1,16
 310 3 310 3 362 41 c 1,17,-1
 105 298 l 1,18,19
 67 246 67 246 72.5 178 c 128,-1,14
 78 110 78 110 126 62 c 128,-1,15
EndSplineSet
Validated: 33
EndChar

StartChar: arrow-left
Encoding: 61536 61536 145
Width: 448
GlyphClass: 3
Flags: W
LayerCount: 2
Fore
SplineSet
258 3 m 2,0,-1
 235 -19 l 2,1,2
 228 -26 228 -26 218 -26 c 128,-1,3
 208 -26 208 -26 201 -19 c 2,4,-1
 7 175 l 2,5,6
 0 182 0 182 0 192 c 128,-1,7
 0 202 0 202 7 209 c 2,8,-1
 201 403 l 2,9,10
 208 410 208 410 218 410 c 128,-1,11
 228 410 228 410 235 403 c 2,12,-1
 258 381 l 2,13,14
 265 374 265 374 264.5 364 c 128,-1,15
 264 354 264 354 257 347 c 2,16,-1
 137 232 l 1,17,-1
 424 232 l 2,18,19
 434 232 434 232 441 225 c 128,-1,20
 448 218 448 218 448 208 c 2,21,-1
 448 176 l 2,22,23
 448 166 448 166 441 159 c 128,-1,24
 434 152 434 152 424 152 c 2,25,-1
 137 152 l 1,26,-1
 257 37 l 2,27,28
 264 30 264 30 264.5 20 c 128,-1,29
 265 10 265 10 258 3 c 2,0,-1
EndSplineSet
Validated: 545
EndChar

StartChar: arrow-right
Encoding: 61537 61537 146
Width: 448
GlyphClass: 3
Flags: W
LayerCount: 2
Fore
SplineSet
190 381 m 2,0,-1
 213 403 l 2,1,2
 220 410 220 410 230 410 c 128,-1,3
 240 410 240 410 247 403 c 2,4,-1
 441 209 l 2,5,6
 448 202 448 202 448 192 c 128,-1,7
 448 182 448 182 441 175 c 2,8,-1
 247 -19 l 2,9,10
 240 -26 240 -26 230 -26 c 128,-1,11
 220 -26 220 -26 213 -19 c 2,12,-1
 190 3 l 2,13,14
 183 10 183 10 183.5 20 c 128,-1,15
 184 30 184 30 191 37 c 2,16,-1
 311 152 l 1,17,-1
 24 152 l 2,18,19
 14 152 14 152 7 159 c 128,-1,20
 0 166 0 166 0 176 c 2,21,-1
 0 208 l 2,22,23
 0 218 0 218 7 225 c 128,-1,24
 14 232 14 232 24 232 c 2,25,-1
 311 232 l 1,26,-1
 191 347 l 2,27,28
 184 354 184 354 183.5 364 c 128,-1,29
 183 374 183 374 190 381 c 2,0,-1
EndSplineSet
Validated: 545
EndChar

StartChar: arrow-up
Encoding: 61538 61538 147
Width: 448
GlyphClass: 3
Flags: W
LayerCount: 2
Fore
SplineSet
35 158 m 2,0,-1
 13 181 l 2,1,2
 6 188 6 188 6 198 c 128,-1,3
 6 208 6 208 13 215 c 2,4,-1
 207 409 l 2,5,6
 214 416 214 416 224 416 c 128,-1,7
 234 416 234 416 241 409 c 2,8,-1
 435 215 l 2,9,10
 442 208 442 208 442 198 c 128,-1,11
 442 188 442 188 435 181 c 2,12,-1
 413 159 l 2,13,14
 406 151 406 151 396 151.5 c 128,-1,15
 386 152 386 152 379 159 c 2,16,-1
 264 279 l 1,17,-1
 264 -8 l 2,18,19
 264 -18 264 -18 257 -25 c 128,-1,20
 250 -32 250 -32 240 -32 c 2,21,-1
 208 -32 l 2,22,23
 198 -32 198 -32 191 -25 c 128,-1,24
 184 -18 184 -18 184 -8 c 2,25,-1
 184 279 l 1,26,-1
 69 159 l 2,27,28
 62 152 62 152 52 151.5 c 128,-1,29
 42 151 42 151 35 158 c 2,0,-1
EndSplineSet
Validated: 545
EndChar

StartChar: arrow-down
Encoding: 61539 61539 148
Width: 448
GlyphClass: 3
Flags: W
LayerCount: 2
Fore
SplineSet
413 226 m 2,0,-1
 435 203 l 2,1,2
 442 196 442 196 442 186 c 128,-1,3
 442 176 442 176 435 169 c 2,4,-1
 241 -25 l 2,5,6
 234 -32 234 -32 224 -32 c 128,-1,7
 214 -32 214 -32 207 -25 c 2,8,-1
 13 169 l 2,9,10
 6 176 6 176 6 186 c 128,-1,11
 6 196 6 196 13 203 c 2,12,-1
 35 226 l 2,13,14
 42 233 42 233 52 232.5 c 128,-1,15
 62 232 62 232 69 225 c 2,16,-1
 184 105 l 1,17,-1
 184 392 l 2,18,19
 184 402 184 402 191 409 c 128,-1,20
 198 416 198 416 208 416 c 2,21,-1
 240 416 l 2,22,23
 250 416 250 416 257 409 c 128,-1,24
 264 402 264 402 264 392 c 2,25,-1
 264 105 l 1,26,-1
 379 225 l 2,27,28
 386 232 386 232 396 232.5 c 128,-1,29
 406 233 406 233 413 226 c 2,0,-1
EndSplineSet
Validated: 545
EndChar

StartChar: share
Encoding: 61540 61540 149
Width: 512
GlyphClass: 3
Flags: W
LayerCount: 2
Fore
SplineSet
504 258 m 2,0,1
 512 251 512 251 512 240 c 128,-1,2
 512 229 512 229 504 222 c 2,3,-1
 328 70 l 2,4,5
 316 60 316 60 302 66.5 c 128,-1,6
 288 73 288 73 288 88 c 2,7,-1
 288 176 l 1,8,9
 239 175 239 175 205 169.5 c 128,-1,10
 171 164 171 164 146 151.5 c 128,-1,11
 121 139 121 139 109.5 118 c 128,-1,12
 98 97 98 97 98 65 c 128,-1,13
 98 33 98 33 111 -10 c 0,14,15
 115 -22 115 -22 104.5 -29 c 128,-1,16
 94 -36 94 -36 83 -28 c 0,17,18
 48 -3 48 -3 24 39.5 c 128,-1,19
 0 82 0 82 0 126 c 256,20,21
 0 170 0 170 15 203 c 128,-1,22
 30 236 30 236 55 256.5 c 128,-1,23
 80 277 80 277 118 289.5 c 128,-1,24
 156 302 156 302 196 306.5 c 128,-1,25
 236 311 236 311 288 312 c 1,26,-1
 288 392 l 2,27,28
 288 407 288 407 302 413.5 c 128,-1,29
 316 420 316 420 328 410 c 2,30,-1
 504 258 l 2,0,1
EndSplineSet
Validated: 33
EndChar

StartChar: expand
Encoding: 61541 61541 150
Width: 448
GlyphClass: 3
Flags: W
LayerCount: 2
Fore
SplineSet
0 268 m 2,0,-1
 0 392 l 2,1,2
 0 402 0 402 7 409 c 128,-1,3
 14 416 14 416 24 416 c 2,4,-1
 148 416 l 2,5,6
 160 416 160 416 160 404 c 2,7,-1
 160 364 l 2,8,9
 160 352 160 352 148 352 c 2,10,-1
 64 352 l 1,11,-1
 64 268 l 2,12,13
 64 256 64 256 52 256 c 2,14,-1
 12 256 l 2,15,16
 0 256 0 256 0 268 c 2,0,-1
288 404 m 2,17,18
 288 416 288 416 300 416 c 2,19,-1
 424 416 l 2,20,21
 434 416 434 416 441 409 c 128,-1,22
 448 402 448 402 448 392 c 2,23,-1
 448 268 l 2,24,25
 448 256 448 256 436 256 c 2,26,-1
 396 256 l 2,27,28
 384 256 384 256 384 268 c 2,29,-1
 384 352 l 1,30,-1
 300 352 l 2,31,32
 288 352 288 352 288 364 c 2,33,-1
 288 404 l 2,17,18
436 128 m 2,34,35
 448 128 448 128 448 116 c 2,36,-1
 448 -8 l 2,37,38
 448 -18 448 -18 441 -25 c 128,-1,39
 434 -32 434 -32 424 -32 c 2,40,-1
 300 -32 l 2,41,42
 288 -32 288 -32 288 -20 c 2,43,-1
 288 20 l 2,44,45
 288 32 288 32 300 32 c 2,46,-1
 384 32 l 1,47,-1
 384 116 l 2,48,49
 384 128 384 128 396 128 c 2,50,-1
 436 128 l 2,34,35
160 -20 m 2,51,52
 160 -32 160 -32 148 -32 c 2,53,-1
 24 -32 l 2,54,55
 14 -32 14 -32 7 -25 c 128,-1,56
 0 -18 0 -18 0 -8 c 2,57,-1
 0 116 l 2,58,59
 0 128 0 128 12 128 c 2,60,-1
 52 128 l 2,61,62
 64 128 64 128 64 116 c 2,63,-1
 64 32 l 1,64,-1
 148 32 l 2,65,66
 160 32 160 32 160 20 c 2,67,-1
 160 -20 l 2,51,52
EndSplineSet
Validated: 1
EndChar

StartChar: compress
Encoding: 61542 61542 151
Width: 448
GlyphClass: 3
Flags: W
LayerCount: 2
Fore
SplineSet
436 256 m 2,0,-1
 312 256 l 2,1,2
 302 256 302 256 295 263 c 128,-1,3
 288 270 288 270 288 280 c 2,4,-1
 288 404 l 2,5,6
 288 416 288 416 300 416 c 2,7,-1
 340 416 l 2,8,9
 352 416 352 416 352 404 c 2,10,-1
 352 320 l 1,11,-1
 436 320 l 2,12,13
 448 320 448 320 448 308 c 2,14,-1
 448 268 l 2,15,16
 448 256 448 256 436 256 c 2,0,-1
160 280 m 2,17,18
 160 270 160 270 153 263 c 128,-1,19
 146 256 146 256 136 256 c 2,20,-1
 12 256 l 2,21,22
 0 256 0 256 0 268 c 2,23,-1
 0 308 l 2,24,25
 0 320 0 320 12 320 c 2,26,-1
 96 320 l 1,27,-1
 96 404 l 2,28,29
 96 416 96 416 108 416 c 2,30,-1
 148 416 l 2,31,32
 160 416 160 416 160 404 c 2,33,-1
 160 280 l 2,17,18
160 -20 m 2,34,35
 160 -32 160 -32 148 -32 c 2,36,-1
 108 -32 l 2,37,38
 96 -32 96 -32 96 -20 c 2,39,-1
 96 64 l 1,40,-1
 12 64 l 2,41,42
 0 64 0 64 0 76 c 2,43,-1
 0 116 l 2,44,45
 0 128 0 128 12 128 c 2,46,-1
 136 128 l 2,47,48
 146 128 146 128 153 121 c 128,-1,49
 160 114 160 114 160 104 c 2,50,-1
 160 -20 l 2,34,35
352 -20 m 2,51,52
 352 -32 352 -32 340 -32 c 2,53,-1
 300 -32 l 2,54,55
 288 -32 288 -32 288 -20 c 2,56,-1
 288 104 l 2,57,58
 288 114 288 114 295 121 c 128,-1,59
 302 128 302 128 312 128 c 2,60,-1
 436 128 l 2,61,62
 448 128 448 128 448 116 c 2,63,-1
 448 76 l 2,64,65
 448 64 448 64 436 64 c 2,66,-1
 352 64 l 1,67,-1
 352 -20 l 2,51,52
EndSplineSet
Validated: 1
EndChar

StartChar: plus
Encoding: 61543 61543 152
Width: 448
GlyphClass: 3
Flags: W
LayerCount: 2
Fore
SplineSet
416 240 m 2,0,1
 429 240 429 240 438.5 230.5 c 128,-1,2
 448 221 448 221 448 208 c 2,3,-1
 448 176 l 2,4,5
 448 163 448 163 438.5 153.5 c 128,-1,6
 429 144 429 144 416 144 c 2,7,-1
 272 144 l 1,8,-1
 272 0 l 2,9,10
 272 -13 272 -13 262.5 -22.5 c 128,-1,11
 253 -32 253 -32 240 -32 c 2,12,-1
 208 -32 l 2,13,14
 195 -32 195 -32 185.5 -22.5 c 128,-1,15
 176 -13 176 -13 176 0 c 2,16,-1
 176 144 l 1,17,-1
 32 144 l 2,18,19
 19 144 19 144 9.5 153.5 c 128,-1,20
 0 163 0 163 0 176 c 2,21,-1
 0 208 l 2,22,23
 0 221 0 221 9.5 230.5 c 128,-1,24
 19 240 19 240 32 240 c 2,25,-1
 176 240 l 1,26,-1
 176 384 l 2,27,28
 176 397 176 397 185.5 406.5 c 128,-1,29
 195 416 195 416 208 416 c 2,30,-1
 240 416 l 2,31,32
 253 416 253 416 262.5 406.5 c 128,-1,33
 272 397 272 397 272 384 c 2,34,-1
 272 240 l 1,35,-1
 416 240 l 2,0,1
EndSplineSet
Validated: 1
EndChar

StartChar: minus
Encoding: 61544 61544 153
Width: 448
GlyphClass: 3
Flags: W
LayerCount: 2
Fore
SplineSet
416 240 m 2,0,1
 429 240 429 240 438.5 230.5 c 128,-1,2
 448 221 448 221 448 208 c 2,3,-1
 448 176 l 2,4,5
 448 163 448 163 438.5 153.5 c 128,-1,6
 429 144 429 144 416 144 c 2,7,-1
 32 144 l 2,8,9
 19 144 19 144 9.5 153.5 c 128,-1,10
 0 163 0 163 0 176 c 2,11,-1
 0 208 l 2,12,13
 0 221 0 221 9.5 230.5 c 128,-1,14
 19 240 19 240 32 240 c 2,15,-1
 416 240 l 2,0,1
EndSplineSet
Validated: 1
EndChar

StartChar: asterisk
Encoding: 61545 61545 154
Width: 512
GlyphClass: 3
Flags: W
LayerCount: 2
Fore
SplineSet
478 114 m 2,0,1
 487 109 487 109 489.5 99.5 c 128,-1,2
 492 90 492 90 487 81 c 2,3,-1
 468 47 l 2,4,5
 463 38 463 38 453 35.5 c 128,-1,6
 443 33 443 33 435 39 c 2,7,-1
 296 123 l 1,8,-1
 299 -39 l 2,9,10
 300 -50 300 -50 293 -57 c 128,-1,11
 286 -64 286 -64 275 -64 c 2,12,-1
 237 -64 l 2,13,14
 226 -64 226 -64 219 -57 c 128,-1,15
 212 -50 212 -50 213 -39 c 2,16,-1
 216 123 l 1,17,-1
 77 39 l 2,18,19
 69 33 69 33 59 35.5 c 128,-1,20
 49 38 49 38 44 47 c 2,21,-1
 25 81 l 2,22,23
 20 90 20 90 22.5 99.5 c 128,-1,24
 25 109 25 109 34 114 c 2,25,-1
 176 192 l 1,26,-1
 34 270 l 2,27,28
 25 275 25 275 22.5 284.5 c 128,-1,29
 20 294 20 294 25 303 c 2,30,-1
 44 337 l 2,31,32
 49 346 49 346 59 348.5 c 128,-1,33
 69 351 69 351 77 345 c 2,34,-1
 216 261 l 1,35,-1
 213 423 l 2,36,37
 212 430 212 430 215.5 435.5 c 128,-1,38
 219 441 219 441 224.5 444.5 c 128,-1,39
 230 448 230 448 237 448 c 2,40,-1
 275 448 l 2,41,42
 286 448 286 448 293 441 c 128,-1,43
 300 434 300 434 299 423 c 2,44,-1
 296 261 l 1,45,-1
 435 345 l 2,46,47
 443 351 443 351 453 348.5 c 128,-1,48
 463 346 463 346 468 337 c 2,49,-1
 487 303 l 2,50,51
 492 294 492 294 489.5 284.5 c 128,-1,52
 487 275 487 275 478 270 c 2,53,-1
 336 192 l 1,54,-1
 478 114 l 2,0,1
EndSplineSet
Validated: 33
EndChar

StartChar: exclamation-circle
Encoding: 61546 61546 155
Width: 512
GlyphClass: 3
Flags: W
LayerCount: 2
Fore
SplineSet
504 192 m 128,-1,1
 504 89 504 89 431.5 16.5 c 128,-1,2
 359 -56 359 -56 256 -56 c 128,-1,3
 153 -56 153 -56 80.5 16.5 c 128,-1,4
 8 89 8 89 8 192 c 128,-1,5
 8 295 8 295 80.5 367.5 c 128,-1,6
 153 440 153 440 256 440 c 128,-1,7
 359 440 359 440 431.5 367.5 c 128,-1,0
 504 295 504 295 504 192 c 128,-1,1
256 142 m 128,-1,9
 237 142 237 142 223.5 128.5 c 128,-1,10
 210 115 210 115 210 96 c 128,-1,11
 210 77 210 77 223.5 63.5 c 128,-1,12
 237 50 237 50 256 50 c 128,-1,13
 275 50 275 50 288.5 63.5 c 128,-1,14
 302 77 302 77 302 96 c 128,-1,15
 302 115 302 115 288.5 128.5 c 128,-1,8
 275 142 275 142 256 142 c 128,-1,9
212 307 m 2,16,-1
 220 171 l 2,17,18
 220 160 220 160 232 160 c 2,19,-1
 280 160 l 2,20,21
 292 160 292 160 292 171 c 2,22,-1
 300 307 l 2,23,24
 300 313 300 313 296.5 316.5 c 128,-1,25
 293 320 293 320 288 320 c 2,26,-1
 224 320 l 2,27,28
 219 320 219 320 215.5 316.5 c 128,-1,29
 212 313 212 313 212 307 c 2,16,-1
EndSplineSet
Validated: 513
EndChar

StartChar: gift
Encoding: 61547 61547 156
Width: 512
GlyphClass: 3
Flags: W
LayerCount: 2
Fore
SplineSet
32 0 m 2,0,-1
 32 128 l 1,1,-1
 224 128 l 1,2,-1
 224 -32 l 1,3,-1
 64 -32 l 2,4,5
 51 -32 51 -32 41.5 -22.5 c 128,-1,6
 32 -13 32 -13 32 0 c 2,0,-1
288 -32 m 1,7,-1
 288 128 l 1,8,-1
 480 128 l 1,9,-1
 480 0 l 2,10,11
 480 -13 480 -13 470.5 -22.5 c 128,-1,12
 461 -32 461 -32 448 -32 c 2,13,-1
 288 -32 l 1,7,-1
480 288 m 2,14,15
 493 288 493 288 502.5 278.5 c 128,-1,16
 512 269 512 269 512 256 c 2,17,-1
 512 176 l 2,18,19
 512 169 512 169 507.5 164.5 c 128,-1,20
 503 160 503 160 496 160 c 2,21,-1
 16 160 l 2,22,23
 9 160 9 160 4.5 164.5 c 128,-1,24
 0 169 0 169 0 176 c 2,25,-1
 0 256 l 2,26,27
 0 269 0 269 9.5 278.5 c 128,-1,28
 19 288 19 288 32 288 c 2,29,-1
 76 288 l 1,30,31
 66 307 66 307 66 328 c 0,32,33
 66 364 66 364 92 390 c 128,-1,34
 118 416 118 416 154 416 c 0,35,36
 184 416 184 416 207 400 c 128,-1,37
 230 384 230 384 257 348 c 1,38,39
 284 384 284 384 307 400 c 128,-1,40
 330 416 330 416 360 416 c 0,41,42
 396 416 396 416 422 390 c 128,-1,43
 448 364 448 364 448 328 c 0,44,45
 448 308 448 308 438 288 c 1,46,-1
 480 288 l 2,14,15
154 288 m 2,47,-1
 240 288 l 1,48,49
 205 341 205 341 188.5 354.5 c 128,-1,50
 172 368 172 368 154 368 c 0,51,52
 143 368 143 368 134 362.5 c 128,-1,53
 125 357 125 357 119.5 348 c 128,-1,54
 114 339 114 339 114 328 c 0,55,56
 114 311 114 311 125.5 299.5 c 128,-1,57
 137 288 137 288 154 288 c 2,47,-1
360 288 m 2,58,59
 377 288 377 288 388.5 299.5 c 128,-1,60
 400 311 400 311 400 328 c 128,-1,61
 400 345 400 345 388.5 356.5 c 128,-1,62
 377 368 377 368 360 368 c 0,63,64
 348 368 348 368 339.5 364.5 c 128,-1,65
 331 361 331 361 315 343 c 128,-1,66
 299 325 299 325 274 288 c 1,67,-1
 360 288 l 2,58,59
EndSplineSet
Validated: 1
EndChar

StartChar: leaf
Encoding: 61548 61548 157
Width: 576
GlyphClass: 3
Flags: W
LayerCount: 2
Fore
SplineSet
546 438 m 0,0,1
 576 372 576 372 576 294 c 0,2,3
 576 163 576 163 500.5 70.5 c 128,-1,4
 425 -22 425 -22 308 -31 c 0,5,6
 252 -37 252 -37 206.5 -14 c 128,-1,7
 161 9 161 9 134 46 c 1,8,9
 81 2 81 2 62 -44 c 0,10,11
 57 -56 57 -56 44.5 -61.5 c 128,-1,12
 32 -67 32 -67 20 -62 c 128,-1,13
 8 -57 8 -57 2.5 -44.5 c 128,-1,14
 -3 -32 -3 -32 2 -20 c 0,15,16
 11 1 11 1 27 24.5 c 128,-1,17
 43 48 43 48 75 79 c 128,-1,18
 107 110 107 110 147.5 134 c 128,-1,19
 188 158 188 158 250.5 175 c 128,-1,20
 313 192 313 192 384 192 c 0,21,22
 391 192 391 192 395.5 196.5 c 128,-1,23
 400 201 400 201 400 208 c 128,-1,24
 400 215 400 215 395.5 219.5 c 128,-1,25
 391 224 391 224 384 224 c 0,26,27
 215 224 215 224 98 140 c 1,28,29
 96 154 96 154 96 160 c 0,30,31
 96 240 96 240 152 296 c 128,-1,32
 208 352 208 352 288 352 c 2,33,-1
 368 352 l 2,34,35
 415 352 415 352 454.5 375.5 c 128,-1,36
 494 399 494 399 518 440 c 0,37,38
 523 448 523 448 532.5 448 c 128,-1,39
 542 448 542 448 546 438 c 0,0,1
EndSplineSet
Validated: 33
EndChar

StartChar: fire
Encoding: 61549 61549 158
Width: 384
GlyphClass: 3
Flags: W
LayerCount: 2
Fore
SplineSet
216 424 m 0,0,1
 216 396 216 396 233.5 371 c 128,-1,2
 251 346 251 346 275.5 324 c 128,-1,3
 300 302 300 302 324.5 277 c 128,-1,4
 349 252 349 252 366.5 213.5 c 128,-1,5
 384 175 384 175 384 128 c 0,6,7
 384 49 384 49 327.5 -7.5 c 128,-1,8
 271 -64 271 -64 192 -64 c 128,-1,9
 113 -64 113 -64 56.5 -7.5 c 128,-1,10
 0 49 0 49 0 128 c 0,11,12
 0 206 0 206 55 263 c 0,13,14
 66 275 66 275 81 269 c 128,-1,15
 96 263 96 263 96 246 c 2,16,-1
 96 161 l 2,17,18
 96 134 96 134 114.5 115 c 128,-1,19
 133 96 133 96 159 96 c 0,20,21
 186 96 186 96 205 114.5 c 128,-1,22
 224 133 224 133 224 160 c 0,23,24
 224 177 224 177 214.5 193 c 128,-1,25
 205 209 205 209 192 222 c 128,-1,26
 179 235 179 235 164.5 249 c 128,-1,27
 150 263 150 263 140.5 280 c 128,-1,28
 131 297 131 297 128 318 c 128,-1,29
 125 339 125 339 135.5 369.5 c 128,-1,30
 146 400 146 400 172 437 c 0,31,32
 182 452 182 452 199 447 c 128,-1,33
 216 442 216 442 216 424 c 0,0,1
EndSplineSet
Validated: 33
EndChar

StartChar: eye
Encoding: 61550 61550 159
Width: 576
GlyphClass: 3
Flags: W
LayerCount: 2
Fore
SplineSet
573 207 m 0,0,1
 576 200 576 200 576 192 c 128,-1,2
 576 184 576 184 573 177 c 0,3,4
 531 97 531 97 455 48.5 c 128,-1,5
 379 0 379 0 288 0 c 0,6,7
 228 0 228 0 172.5 22.5 c 128,-1,8
 117 45 117 45 74 84.5 c 128,-1,9
 31 124 31 124 3 177 c 0,10,11
 0 184 0 184 0 192 c 128,-1,12
 0 200 0 200 3 207 c 0,13,14
 45 287 45 287 121 335.5 c 128,-1,15
 197 384 197 384 288 384 c 128,-1,16
 379 384 379 384 455 335.5 c 128,-1,17
 531 287 531 287 573 207 c 0,0,1
288 48 m 256,18,19
 348 48 348 48 390 90 c 128,-1,20
 432 132 432 132 432 192 c 256,21,22
 432 252 432 252 390 294 c 128,-1,23
 348 336 348 336 288 336 c 128,-1,24
 228 336 228 336 186 294 c 128,-1,25
 144 252 144 252 144 192 c 128,-1,26
 144 132 144 132 186 90 c 128,-1,27
 228 48 228 48 288 48 c 256,18,19
288 288 m 0,28,29
 328 288 328 288 356 260 c 128,-1,30
 384 232 384 232 384 192.5 c 128,-1,31
 384 153 384 153 356 124.5 c 128,-1,32
 328 96 328 96 288.5 96 c 128,-1,33
 249 96 249 96 220.5 124.5 c 128,-1,34
 192 153 192 153 192 192 c 0,35,36
 192 205 192 205 196 217 c 1,37,38
 208 208 208 208 224 208 c 0,39,40
 244 208 244 208 258 222 c 128,-1,41
 272 236 272 236 272 256 c 0,42,43
 272 272 272 272 263 284 c 1,44,45
 275 288 275 288 288 288 c 0,28,29
EndSplineSet
Validated: 1
EndChar

StartChar: eye-slash
Encoding: 61552 61552 160
Width: 640
GlyphClass: 3
Flags: W
LayerCount: 2
Fore
SplineSet
320 48 m 0,0,1
 333 48 333 48 346 51 c 1,2,-1
 398 10 l 1,3,4
 357 0 357 0 320 0 c 0,5,6
 229 0 229 0 153 48.5 c 128,-1,7
 77 97 77 97 35 177 c 0,8,9
 32 184 32 184 32 192 c 128,-1,10
 32 200 32 200 35 207 c 0,11,12
 49 233 49 233 72 262 c 1,13,-1
 177 181 l 1,14,15
 180 144 180 144 199.5 113.5 c 128,-1,16
 219 83 219 83 251 65.5 c 128,-1,17
 283 48 283 48 320 48 c 0,0,1
634 -10 m 2,18,19
 640 -15 640 -15 640 -23 c 0,20,21
 640 -28 640 -28 637 -33 c 2,22,-1
 617 -58 l 2,23,24
 612 -64 612 -64 604 -64 c 0,25,26
 599 -64 599 -64 595 -61 c 2,27,-1
 6 394 l 2,28,29
 0 399 0 399 0 407 c 0,30,31
 0 412 0 412 3 417 c 2,32,-1
 23 442 l 2,33,34
 28 448 28 448 36 448 c 0,35,36
 41 448 41 448 45 445 c 2,37,-1
 173 346 l 1,38,39
 191 357 191 357 217.5 365.5 c 128,-1,40
 244 374 244 374 271.5 379 c 128,-1,41
 299 384 299 384 320 384 c 0,42,43
 411 384 411 384 487 335.5 c 128,-1,44
 563 287 563 287 605 207 c 0,45,46
 608 200 608 200 608 192 c 128,-1,47
 608 184 608 184 605 177 c 0,48,49
 592 153 592 153 568 123 c 128,-1,50
 544 93 544 93 523 75 c 1,51,-1
 634 -10 l 2,18,19
450 132 m 1,52,53
 464 161 464 161 464 192 c 0,54,55
 464 252 464 252 422 294 c 128,-1,56
 380 336 380 336 320 336 c 0,57,58
 299 336 299 336 272 326.5 c 128,-1,59
 245 317 245 317 229 303 c 1,60,-1
 302 246 l 1,61,62
 304 251 304 251 304 256 c 0,63,64
 304 272 304 272 295 284 c 1,65,66
 308 288 308 288 321 288 c 0,67,68
 360 288 360 288 388 260 c 128,-1,69
 416 232 416 232 416 193 c 2,70,71
 416 193 416 193 416 192 c 0,72,73
 416 177 416 177 411 162 c 1,74,-1
 450 132 l 1,52,53
EndSplineSet
Validated: 513
EndChar

StartChar: exclamation-triangle
Encoding: 61553 61553 161
Width: 576
GlyphClass: 3
Flags: W
LayerCount: 2
Fore
SplineSet
570 8 m 2,0,1
 583 -16 583 -16 569.5 -40 c 128,-1,2
 556 -64 556 -64 528 -64 c 2,3,-1
 48 -64 l 2,4,5
 20 -64 20 -64 6.5 -40 c 128,-1,6
 -7 -16 -7 -16 6 8 c 2,7,-1
 246 424 l 2,8,9
 260 448 260 448 288 448 c 128,-1,10
 316 448 316 448 330 424 c 2,11,-1
 570 8 l 2,0,1
288 94 m 128,-1,13
 269 94 269 94 255.5 80.5 c 128,-1,14
 242 67 242 67 242 48 c 128,-1,15
 242 29 242 29 255.5 15.5 c 128,-1,16
 269 2 269 2 288 2 c 128,-1,17
 307 2 307 2 320.5 15.5 c 128,-1,18
 334 29 334 29 334 48 c 128,-1,19
 334 67 334 67 320.5 80.5 c 128,-1,12
 307 94 307 94 288 94 c 128,-1,13
244 259 m 2,20,-1
 252 123 l 2,21,22
 252 112 252 112 264 112 c 2,23,-1
 312 112 l 2,24,25
 324 112 324 112 324 123 c 2,26,-1
 332 259 l 2,27,28
 332 265 332 265 328.5 268.5 c 128,-1,29
 325 272 325 272 320 272 c 2,30,-1
 256 272 l 2,31,32
 251 272 251 272 247.5 268.5 c 128,-1,33
 244 265 244 265 244 259 c 2,20,-1
EndSplineSet
Validated: 545
EndChar

StartChar: plane
Encoding: 61554 61554 162
Width: 576
GlyphClass: 3
Flags: W
LayerCount: 2
Fore
SplineSet
480 256 m 2,0,1
 510 256 510 256 543 236.5 c 128,-1,2
 576 217 576 217 576 192 c 128,-1,3
 576 167 576 167 543 147.5 c 128,-1,4
 510 128 510 128 480 128 c 2,5,-1
 366 128 l 1,6,-1
 261 -56 l 2,7,8
 256 -64 256 -64 247 -64 c 2,9,-1
 181 -64 l 2,10,11
 173 -64 173 -64 168.5 -57.5 c 128,-1,12
 164 -51 164 -51 166 -44 c 2,13,-1
 215 128 l 1,14,-1
 112 128 l 1,15,-1
 69 70 l 2,16,17
 64 64 64 64 56 64 c 2,18,-1
 16 64 l 2,19,20
 8 64 8 64 3.5 70 c 128,-1,21
 -1 76 -1 76 0 84 c 2,22,-1
 32 192 l 1,23,-1
 0 300 l 2,24,25
 -1 308 -1 308 3.5 314 c 128,-1,26
 8 320 8 320 16 320 c 2,27,-1
 56 320 l 2,28,29
 64 320 64 320 69 314 c 2,30,-1
 112 256 l 1,31,-1
 215 256 l 1,32,-1
 166 428 l 2,33,34
 165 431 165 431 165.5 435 c 128,-1,35
 166 439 166 439 168.5 442 c 128,-1,36
 171 445 171 445 174 446.5 c 128,-1,37
 177 448 177 448 181 448 c 2,38,-1
 247 448 l 2,39,40
 256 448 256 448 261 440 c 2,41,-1
 366 256 l 1,42,-1
 480 256 l 2,0,1
EndSplineSet
Validated: 1
EndChar

StartChar: calendar-alt
Encoding: 61555 61555 163
Width: 448
GlyphClass: 3
Flags: W
LayerCount: 2
Fore
SplineSet
0 -16 m 2,0,-1
 0 256 l 1,1,-1
 448 256 l 1,2,-1
 448 -16 l 2,3,4
 448 -36 448 -36 434 -50 c 128,-1,5
 420 -64 420 -64 400 -64 c 2,6,-1
 48 -64 l 2,7,8
 28 -64 28 -64 14 -50 c 128,-1,9
 0 -36 0 -36 0 -16 c 2,0,-1
320 180 m 2,10,-1
 320 140 l 2,11,12
 320 128 320 128 332 128 c 2,13,-1
 372 128 l 2,14,15
 384 128 384 128 384 140 c 2,16,-1
 384 180 l 2,17,18
 384 192 384 192 372 192 c 2,19,-1
 332 192 l 2,20,21
 320 192 320 192 320 180 c 2,10,-1
320 52 m 2,22,-1
 320 12 l 2,23,24
 320 0 320 0 332 0 c 2,25,-1
 372 0 l 2,26,27
 384 0 384 0 384 12 c 2,28,-1
 384 52 l 2,29,30
 384 64 384 64 372 64 c 2,31,-1
 332 64 l 2,32,33
 320 64 320 64 320 52 c 2,22,-1
192 180 m 2,34,-1
 192 140 l 2,35,36
 192 128 192 128 204 128 c 2,37,-1
 244 128 l 2,38,39
 256 128 256 128 256 140 c 2,40,-1
 256 180 l 2,41,42
 256 192 256 192 244 192 c 2,43,-1
 204 192 l 2,44,45
 192 192 192 192 192 180 c 2,34,-1
192 52 m 2,46,-1
 192 12 l 2,47,48
 192 0 192 0 204 0 c 2,49,-1
 244 0 l 2,50,51
 256 0 256 0 256 12 c 2,52,-1
 256 52 l 2,53,54
 256 64 256 64 244 64 c 2,55,-1
 204 64 l 2,56,57
 192 64 192 64 192 52 c 2,46,-1
64 180 m 2,58,-1
 64 140 l 2,59,60
 64 128 64 128 76 128 c 2,61,-1
 116 128 l 2,62,63
 128 128 128 128 128 140 c 2,64,-1
 128 180 l 2,65,66
 128 192 128 192 116 192 c 2,67,-1
 76 192 l 2,68,69
 64 192 64 192 64 180 c 2,58,-1
64 52 m 2,70,-1
 64 12 l 2,71,72
 64 0 64 0 76 0 c 2,73,-1
 116 0 l 2,74,75
 128 0 128 0 128 12 c 2,76,-1
 128 52 l 2,77,78
 128 64 128 64 116 64 c 2,79,-1
 76 64 l 2,80,81
 64 64 64 64 64 52 c 2,70,-1
400 384 m 2,82,83
 420 384 420 384 434 370 c 128,-1,84
 448 356 448 356 448 336 c 2,85,-1
 448 288 l 1,86,-1
 0 288 l 1,87,-1
 0 336 l 2,88,89
 0 356 0 356 14 370 c 128,-1,90
 28 384 28 384 48 384 c 2,91,-1
 96 384 l 1,92,-1
 96 432 l 2,93,94
 96 439 96 439 100.5 443.5 c 128,-1,95
 105 448 105 448 112 448 c 2,96,-1
 144 448 l 2,97,98
 151 448 151 448 155.5 443.5 c 128,-1,99
 160 439 160 439 160 432 c 2,100,-1
 160 384 l 1,101,-1
 288 384 l 1,102,-1
 288 432 l 2,103,104
 288 439 288 439 292.5 443.5 c 128,-1,105
 297 448 297 448 304 448 c 2,106,-1
 336 448 l 2,107,108
 343 448 343 448 347.5 443.5 c 128,-1,109
 352 439 352 439 352 432 c 2,110,-1
 352 384 l 1,111,-1
 400 384 l 2,82,83
EndSplineSet
Validated: 513
EndChar

StartChar: random
Encoding: 61556 61556 164
Width: 512
GlyphClass: 3
Flags: W
LayerCount: 2
Fore
SplineSet
505 89 m 2,0,1
 512 82 512 82 512 72 c 128,-1,2
 512 62 512 62 505 55 c 2,3,-1
 425 -25 l 2,4,5
 414 -36 414 -36 399 -30 c 128,-1,6
 384 -24 384 -24 384 -8 c 2,7,-1
 384 32 l 1,8,-1
 325 32 l 2,9,10
 320 32 320 32 316 36 c 2,11,-1
 246 111 l 1,12,-1
 299 169 l 1,13,-1
 352 112 l 1,14,-1
 384 112 l 1,15,-1
 384 152 l 2,16,17
 384 168 384 168 399 174 c 128,-1,18
 414 180 414 180 425 169 c 2,19,-1
 505 89 l 2,0,1
12 272 m 2,20,21
 0 272 0 272 0 284 c 2,22,-1
 0 340 l 2,23,24
 0 352 0 352 12 352 c 2,25,-1
 123 352 l 2,26,27
 128 352 128 352 132 348 c 2,28,-1
 202 273 l 1,29,-1
 149 215 l 1,30,-1
 96 272 l 1,31,-1
 12 272 l 2,20,21
384 272 m 1,32,-1
 352 272 l 1,33,-1
 132 36 l 2,34,35
 128 32 128 32 123 32 c 2,36,-1
 12 32 l 2,37,38
 0 32 0 32 0 44 c 2,39,-1
 0 100 l 2,40,41
 0 112 0 112 12 112 c 2,42,-1
 96 112 l 1,43,-1
 316 348 l 2,44,45
 320 352 320 352 325 352 c 2,46,-1
 384 352 l 1,47,-1
 384 392 l 2,48,49
 384 408 384 408 399 414 c 128,-1,50
 414 420 414 420 425 409 c 2,51,-1
 505 329 l 2,52,53
 512 322 512 322 512 312 c 128,-1,54
 512 302 512 302 505 295 c 2,55,-1
 425 215 l 2,56,57
 414 204 414 204 399 210 c 128,-1,58
 384 216 384 216 384 232 c 2,59,-1
 384 272 l 1,32,-1
EndSplineSet
Validated: 33
EndChar

StartChar: comment
Encoding: 61557 61557 165
Width: 512
GlyphClass: 3
Flags: W
LayerCount: 2
Fore
SplineSet
256 416 m 128,-1,1
 362 416 362 416 437 355 c 128,-1,2
 512 294 512 294 512 208 c 128,-1,3
 512 122 512 122 437 61 c 128,-1,4
 362 0 362 0 256 0 c 0,5,6
 200 0 200 0 149 19 c 1,7,8
 84 -32 84 -32 8 -32 c 0,9,10
 6 -32 6 -32 4 -30.5 c 128,-1,11
 2 -29 2 -29 1 -27 c 0,12,13
 -1 -22 -1 -22 2.5 -18.5 c 128,-1,14
 6 -15 6 -15 14.5 -4.5 c 128,-1,15
 23 6 23 6 37 30.5 c 128,-1,16
 51 55 51 55 57 77 c 1,17,18
 0 134 0 134 0 208 c 0,19,20
 0 294 0 294 75 355 c 128,-1,0
 150 416 150 416 256 416 c 128,-1,1
EndSplineSet
Validated: 1
EndChar

StartChar: magnet
Encoding: 61558 61558 166
Width: 512
GlyphClass: 3
Flags: W
LayerCount: 2
Fore
SplineSet
164 300 m 2,0,-1
 12 300 l 2,1,2
 7 300 7 300 3.5 303.5 c 128,-1,3
 0 307 0 307 0 312 c 2,4,-1
 0 392 l 2,5,6
 0 407 0 407 10.5 417.5 c 128,-1,7
 21 428 21 428 36 428 c 2,8,-1
 140 428 l 2,9,10
 155 428 155 428 165.5 417.5 c 128,-1,11
 176 407 176 407 176 392 c 2,12,-1
 176 312 l 2,13,14
 176 309 176 309 174.5 306 c 128,-1,15
 173 303 173 303 170 301.5 c 128,-1,16
 167 300 167 300 164 300 c 2,0,-1
512 312 m 2,17,18
 512 307 512 307 508.5 303.5 c 128,-1,19
 505 300 505 300 500 300 c 2,20,-1
 348 300 l 2,21,22
 336 300 336 300 336 312 c 2,23,-1
 336 392 l 2,24,25
 336 407 336 407 346.5 417.5 c 128,-1,26
 357 428 357 428 372 428 c 2,27,-1
 476 428 l 2,28,29
 491 428 491 428 501.5 417.5 c 128,-1,30
 512 407 512 407 512 392 c 2,31,-1
 512 312 l 2,17,18
348 268 m 2,32,-1
 500 268 l 2,33,34
 505 268 505 268 508.5 264.5 c 128,-1,35
 512 261 512 261 512 256 c 0,36,37
 511 212 511 212 512 203 c 0,38,39
 512 131 512 131 473 73 c 128,-1,40
 434 15 434 15 376 -14.5 c 128,-1,41
 318 -44 318 -44 256.5 -44 c 128,-1,42
 195 -44 195 -44 137 -14.5 c 128,-1,43
 79 15 79 15 39.5 73 c 128,-1,44
 0 131 0 131 0 202 c 0,45,46
 0 207 0 207 0 256 c 0,47,48
 0 261 0 261 3.5 264.5 c 128,-1,49
 7 268 7 268 12 268 c 2,50,-1
 164 268 l 2,51,52
 169 268 169 268 172.5 264.5 c 128,-1,53
 176 261 176 261 176 256 c 2,54,-1
 176 204 l 2,55,56
 176 159 176 159 201 133 c 128,-1,57
 226 107 226 107 256 107 c 128,-1,58
 286 107 286 107 311 133 c 128,-1,59
 336 159 336 159 336 204 c 2,60,-1
 336 256 l 2,61,62
 336 261 336 261 339.5 264.5 c 128,-1,63
 343 268 343 268 348 268 c 2,32,-1
EndSplineSet
Validated: 33
EndChar

StartChar: chevron-up
Encoding: 61559 61559 167
Width: 448
GlyphClass: 3
Flags: W
LayerCount: 2
Fore
SplineSet
241 317 m 2,0,-1
 435 123 l 2,1,2
 442 116 442 116 442 106 c 128,-1,3
 442 96 442 96 435 89 c 2,4,-1
 413 67 l 2,5,6
 406 60 406 60 396 59.5 c 128,-1,7
 386 59 386 59 379 66 c 2,8,-1
 224 221 l 1,9,-1
 69 66 l 2,10,11
 62 59 62 59 52 59.5 c 128,-1,12
 42 60 42 60 35 67 c 2,13,-1
 13 89 l 2,14,15
 6 96 6 96 6 106 c 128,-1,16
 6 116 6 116 13 123 c 2,17,-1
 207 317 l 2,18,19
 214 325 214 325 224 325 c 128,-1,20
 234 325 234 325 241 317 c 2,0,-1
EndSplineSet
Validated: 545
EndChar

StartChar: chevron-down
Encoding: 61560 61560 168
Width: 448
GlyphClass: 3
Flags: W
LayerCount: 2
Fore
SplineSet
207 67 m 2,0,-1
 13 261 l 2,1,2
 6 268 6 268 6 278 c 128,-1,3
 6 288 6 288 13 295 c 2,4,-1
 35 317 l 2,5,6
 42 324 42 324 52 324.5 c 128,-1,7
 62 325 62 325 69 318 c 2,8,-1
 224 163 l 1,9,-1
 379 318 l 2,10,11
 386 325 386 325 396 324.5 c 128,-1,12
 406 324 406 324 413 317 c 2,13,-1
 435 295 l 2,14,15
 442 288 442 288 442 278 c 128,-1,16
 442 268 442 268 435 261 c 2,17,-1
 241 67 l 2,18,19
 234 59 234 59 224 59 c 128,-1,20
 214 59 214 59 207 67 c 2,0,-1
EndSplineSet
Validated: 545
EndChar

StartChar: retweet
Encoding: 61561 61561 169
Width: 640
GlyphClass: 3
Flags: W
LayerCount: 2
Fore
SplineSet
630 104 m 2,0,-1
 529 4 l 2,1,2
 522 -3 522 -3 512 -3 c 128,-1,3
 502 -3 502 -3 495 4 c 2,4,-1
 394 104 l 2,5,6
 387 111 387 111 387 121 c 128,-1,7
 387 131 387 131 394 138 c 2,8,-1
 405 149 l 2,9,10
 412 156 412 156 422.5 156 c 128,-1,11
 433 156 433 156 440 149 c 2,12,-1
 480 106 l 1,13,-1
 480 288 l 1,14,-1
 292 288 l 2,15,16
 283 288 283 288 275 295 c 2,17,-1
 259 311 l 2,18,19
 248 322 248 322 254 337 c 128,-1,20
 260 352 260 352 276 352 c 2,21,-1
 520 352 l 2,22,23
 530 352 530 352 537 345 c 128,-1,24
 544 338 544 338 544 328 c 2,25,-1
 544 106 l 1,26,-1
 584 149 l 2,27,28
 591 156 591 156 601.5 156 c 128,-1,29
 612 156 612 156 619 149 c 2,30,-1
 630 138 l 2,31,32
 637 131 637 131 637 121 c 128,-1,33
 637 111 637 111 630 104 c 2,0,-1
365 89 m 2,34,-1
 381 73 l 2,35,36
 392 62 392 62 386 47 c 128,-1,37
 380 32 380 32 364 32 c 2,38,-1
 120 32 l 2,39,40
 110 32 110 32 103 39 c 128,-1,41
 96 46 96 46 96 56 c 2,42,-1
 96 278 l 1,43,-1
 56 235 l 2,44,45
 49 228 49 228 38.5 228 c 128,-1,46
 28 228 28 228 21 235 c 2,47,-1
 10 246 l 2,48,49
 3 253 3 253 3 263 c 128,-1,50
 3 273 3 273 10 280 c 2,51,-1
 111 380 l 2,52,53
 118 387 118 387 128 387 c 128,-1,54
 138 387 138 387 145 380 c 2,55,-1
 246 280 l 2,56,57
 253 273 253 273 253 263 c 128,-1,58
 253 253 253 253 246 246 c 2,59,-1
 235 235 l 2,60,61
 228 228 228 228 217.5 228 c 128,-1,62
 207 228 207 228 200 235 c 2,63,-1
 160 278 l 1,64,-1
 160 96 l 1,65,-1
 348 96 l 2,66,67
 357 96 357 96 365 89 c 2,34,-1
EndSplineSet
Validated: 33
EndChar

StartChar: shopping-cart
Encoding: 61562 61562 170
Width: 576
GlyphClass: 3
Flags: W
LayerCount: 2
Fore
SplineSet
528 147 m 2,0,1
 524 128 524 128 505 128 c 2,2,-1
 212 128 l 1,3,-1
 218 96 l 1,4,-1
 487 96 l 2,5,6
 498 96 498 96 505 87 c 128,-1,7
 512 78 512 78 510 67 c 2,8,-1
 504 42 l 1,9,10
 536 27 536 27 536 -8 c 0,11,12
 536 -31 536 -31 519.5 -47.5 c 128,-1,13
 503 -64 503 -64 480 -64 c 128,-1,14
 457 -64 457 -64 440.5 -47.5 c 128,-1,15
 424 -31 424 -31 424 -8 c 0,16,17
 424 16 424 16 441 32 c 1,18,-1
 231 32 l 1,19,20
 248 16 248 16 248 -8 c 0,21,22
 248 -31 248 -31 231.5 -47.5 c 128,-1,23
 215 -64 215 -64 192 -64 c 128,-1,24
 169 -64 169 -64 152.5 -47.5 c 128,-1,25
 136 -31 136 -31 136 -8 c 0,26,27
 136 24 136 24 164 41 c 1,28,-1
 94 384 l 1,29,-1
 24 384 l 2,30,31
 14 384 14 384 7 391 c 128,-1,32
 0 398 0 398 0 408 c 2,33,-1
 0 424 l 2,34,35
 0 434 0 434 7 441 c 128,-1,36
 14 448 14 448 24 448 c 2,37,-1
 127 448 l 2,38,39
 135 448 135 448 141.5 442.5 c 128,-1,40
 148 437 148 437 150 429 c 2,41,-1
 159 384 l 1,42,-1
 552 384 l 2,43,44
 564 384 564 384 571 375 c 128,-1,45
 578 366 578 366 575 355 c 2,46,-1
 528 147 l 2,0,1
EndSplineSet
Validated: 545
EndChar

StartChar: folder
Encoding: 61563 61563 171
Width: 512
GlyphClass: 3
Flags: W
LayerCount: 2
Fore
SplineSet
464 320 m 2,0,1
 484 320 484 320 498 306 c 128,-1,2
 512 292 512 292 512 272 c 2,3,-1
 512 48 l 2,4,5
 512 28 512 28 498 14 c 128,-1,6
 484 0 484 0 464 0 c 2,7,-1
 48 0 l 2,8,9
 28 0 28 0 14 14 c 128,-1,10
 0 28 0 28 0 48 c 2,11,-1
 0 336 l 2,12,13
 0 356 0 356 14 370 c 128,-1,14
 28 384 28 384 48 384 c 2,15,-1
 208 384 l 1,16,-1
 272 320 l 1,17,-1
 464 320 l 2,0,1
EndSplineSet
Validated: 1
EndChar

StartChar: folder-open
Encoding: 61564 61564 172
Width: 576
GlyphClass: 3
Flags: W
LayerCount: 2
Fore
SplineSet
573 156 m 2,0,-1
 500 32 l 2,1,2
 493 19 493 19 476.5 9.5 c 128,-1,3
 460 0 460 0 445 0 c 2,4,-1
 45 0 l 2,5,6
 31 0 31 0 24 12 c 128,-1,7
 17 24 17 24 24 36 c 2,8,-1
 97 160 l 2,9,10
 104 173 104 173 120.5 182.5 c 128,-1,11
 137 192 137 192 152 192 c 2,12,-1
 552 192 l 2,13,14
 566 192 566 192 573 180 c 128,-1,15
 580 168 580 168 573 156 c 2,0,-1
152 224 m 2,16,17
 135 224 135 224 119 218 c 128,-1,18
 103 212 103 212 90.5 201.5 c 128,-1,19
 78 191 78 191 69 176 c 2,20,-1
 0 58 l 1,21,-1
 0 336 l 2,22,23
 0 356 0 356 14 370 c 128,-1,24
 28 384 28 384 48 384 c 2,25,-1
 208 384 l 1,26,-1
 272 320 l 1,27,-1
 432 320 l 2,28,29
 452 320 452 320 466 306 c 128,-1,30
 480 292 480 292 480 272 c 2,31,-1
 480 224 l 1,32,-1
 152 224 l 2,16,17
EndSplineSet
Validated: 545
EndChar

StartChar: chart-bar
Encoding: 61568 61568 173
Width: 512
GlyphClass: 3
Flags: W
LayerCount: 2
Fore
SplineSet
333 128 m 2,0,1
 328 128 328 128 324 132 c 128,-1,2
 320 136 320 136 320 141 c 2,3,-1
 320 275 l 2,4,5
 320 280 320 280 324 284 c 128,-1,6
 328 288 328 288 333 288 c 2,7,-1
 371 288 l 2,8,9
 376 288 376 288 380 284 c 128,-1,10
 384 280 384 280 384 275 c 2,11,-1
 384 141 l 2,12,13
 384 136 384 136 380 132 c 128,-1,14
 376 128 376 128 371 128 c 2,15,-1
 333 128 l 2,0,1
429 128 m 2,16,17
 424 128 424 128 420 132 c 128,-1,18
 416 136 416 136 416 141 c 2,19,-1
 416 371 l 2,20,21
 416 376 416 376 420 380 c 128,-1,22
 424 384 424 384 429 384 c 2,23,-1
 467 384 l 2,24,25
 472 384 472 384 476 380 c 128,-1,26
 480 376 480 376 480 371 c 2,27,-1
 480 141 l 2,28,29
 480 136 480 136 476 132 c 128,-1,30
 472 128 472 128 467 128 c 2,31,-1
 429 128 l 2,16,17
141 128 m 2,32,33
 136 128 136 128 132 132 c 128,-1,34
 128 136 128 136 128 141 c 2,35,-1
 128 211 l 2,36,37
 128 216 128 216 132 220 c 128,-1,38
 136 224 136 224 141 224 c 2,39,-1
 179 224 l 2,40,41
 184 224 184 224 188 220 c 128,-1,42
 192 216 192 216 192 211 c 2,43,-1
 192 141 l 2,44,45
 192 136 192 136 188 132 c 128,-1,46
 184 128 184 128 179 128 c 2,47,-1
 141 128 l 2,32,33
237 128 m 2,48,49
 232 128 232 128 228 132 c 128,-1,50
 224 136 224 136 224 141 c 2,51,-1
 224 339 l 2,52,53
 224 344 224 344 228 348 c 128,-1,54
 232 352 232 352 237 352 c 2,55,-1
 275 352 l 2,56,57
 280 352 280 352 284 348 c 128,-1,58
 288 344 288 344 288 339 c 2,59,-1
 288 141 l 2,60,61
 288 136 288 136 284 132 c 128,-1,62
 280 128 280 128 275 128 c 2,63,-1
 237 128 l 2,48,49
496 64 m 2,64,65
 503 64 503 64 507.5 59.5 c 128,-1,66
 512 55 512 55 512 48 c 2,67,-1
 512 16 l 2,68,69
 512 9 512 9 507.5 4.5 c 128,-1,70
 503 0 503 0 496 0 c 2,71,-1
 32 0 l 2,72,73
 19 0 19 0 9.5 9.5 c 128,-1,74
 0 19 0 19 0 32 c 2,75,-1
 0 368 l 2,76,77
 0 375 0 375 4.5 379.5 c 128,-1,78
 9 384 9 384 16 384 c 2,79,-1
 48 384 l 2,80,81
 55 384 55 384 59.5 379.5 c 128,-1,82
 64 375 64 375 64 368 c 2,83,-1
 64 64 l 1,84,-1
 496 64 l 2,64,65
EndSplineSet
Validated: 513
EndChar

StartChar: twitter-square
Encoding: 61569 61569 174
Width: 448
GlyphClass: 3
Flags: W
LayerCount: 2
Fore
SplineSet
400 416 m 2,0,1
 420 416 420 416 434 402 c 128,-1,2
 448 388 448 388 448 368 c 2,3,-1
 448 16 l 2,4,5
 448 -4 448 -4 434 -18 c 128,-1,6
 420 -32 420 -32 400 -32 c 2,7,-1
 48 -32 l 2,8,9
 28 -32 28 -32 14 -18 c 128,-1,10
 0 -4 0 -4 0 16 c 2,11,-1
 0 368 l 2,12,13
 0 388 0 388 14 402 c 128,-1,14
 28 416 28 416 48 416 c 2,15,-1
 400 416 l 2,0,1
351 257 m 0,16,17
 370 271 370 271 384 291 c 1,18,19
 365 283 365 283 346 281 c 1,20,21
 367 294 367 294 375 317 c 1,22,23
 355 305 355 305 333 301 c 1,24,25
 314 322 314 322 286 322 c 0,26,27
 255 322 255 322 235 298 c 128,-1,28
 215 274 215 274 222 241 c 1,29,30
 139 246 139 246 86 310 c 1,31,32
 77 295 77 295 77 277 c 0,33,34
 77 267 77 267 81 256.5 c 128,-1,35
 85 246 85 246 92 237 c 128,-1,36
 99 228 99 228 107 222 c 1,37,38
 91 223 91 223 77 231 c 1,39,-1
 77 230 l 2,40,41
 77 206 77 206 92 188 c 128,-1,42
 107 170 107 170 130 165 c 1,43,44
 116 162 116 162 100 164 c 1,45,46
 106 144 106 144 123 131.5 c 128,-1,47
 140 119 140 119 161 119 c 1,48,49
 125 91 125 91 80 91 c 0,50,51
 71 91 71 91 64 92 c 1,52,53
 110 62 110 62 165 62 c 0,54,55
 222 62 222 62 266 91 c 128,-1,56
 310 120 310 120 330.5 162 c 128,-1,57
 351 204 351 204 351 249 c 0,58,59
 351 254 351 254 351 257 c 0,16,17
EndSplineSet
Validated: 545
Ligature2: "'liga' Standard Ligatures in Latin lookup 0 per glyph data 27" t w i t t e r hyphen s q u a r e
Ligature2: "'liga' Standard Ligatures in Latin lookup 0 per glyph data 27" T w i t t e r hyphen S q u a r e
Ligature2: "'liga' Standard Ligatures in Latin lookup 0 per glyph data 27" T w i t t e r hyphen s q u a r e
Ligature2: "'liga' Standard Ligatures in Latin lookup 0 per glyph data 27" T W I T T E R hyphen S Q U A R E
EndChar

StartChar: facebook-square
Encoding: 61570 61570 175
Width: 448
GlyphClass: 3
Flags: W
LayerCount: 2
Fore
SplineSet
400 416 m 2,0,1
 420 416 420 416 434 402 c 128,-1,2
 448 388 448 388 448 368 c 2,3,-1
 448 16 l 2,4,5
 448 -4 448 -4 434 -18 c 128,-1,6
 420 -32 420 -32 400 -32 c 2,7,-1
 263 -32 l 1,8,-1
 263 120 l 1,9,-1
 321 120 l 1,10,-1
 332 192 l 1,11,-1
 263 192 l 1,12,-1
 263 239 l 2,13,14
 263 277 263 277 303 277 c 2,15,-1
 334 277 l 1,16,-1
 334 338 l 1,17,18
 306 343 306 343 279 343 c 0,19,20
 250 343 250 343 229.5 332 c 128,-1,21
 209 321 209 321 197 299 c 128,-1,22
 185 277 185 277 185 247 c 2,23,-1
 185 192 l 1,24,-1
 122 192 l 1,25,-1
 122 120 l 1,26,-1
 185 120 l 1,27,-1
 185 -32 l 1,28,-1
 48 -32 l 2,29,30
 28 -32 28 -32 14 -18 c 128,-1,31
 0 -4 0 -4 0 16 c 2,32,-1
 0 368 l 2,33,34
 0 388 0 388 14 402 c 128,-1,35
 28 416 28 416 48 416 c 2,36,-1
 400 416 l 2,0,1
EndSplineSet
Validated: 513
Ligature2: "'liga' Standard Ligatures in Latin lookup 0 per glyph data 24" f a c e b o o k hyphen s q u a r e
Ligature2: "'liga' Standard Ligatures in Latin lookup 0 per glyph data 24" F a c e b o o k hyphen S q u a r e
Ligature2: "'liga' Standard Ligatures in Latin lookup 0 per glyph data 24" F a c e b o o k hyphen s q u a r e
Ligature2: "'liga' Standard Ligatures in Latin lookup 0 per glyph data 24" F A C E B O O K hyphen S Q U A R E
EndChar

StartChar: camera-retro
Encoding: 61571 61571 176
Width: 512
GlyphClass: 3
Flags: W
LayerCount: 2
Fore
SplineSet
48 416 m 2,0,-1
 464 416 l 2,1,2
 484 416 484 416 498 402 c 128,-1,3
 512 388 512 388 512 368 c 2,4,-1
 512 16 l 2,5,6
 512 -4 512 -4 498 -18 c 128,-1,7
 484 -32 484 -32 464 -32 c 2,8,-1
 48 -32 l 2,9,10
 28 -32 28 -32 14 -18 c 128,-1,11
 0 -4 0 -4 0 16 c 2,12,-1
 0 368 l 2,13,14
 0 388 0 388 14 402 c 128,-1,15
 28 416 28 416 48 416 c 2,0,-1
48 384 m 2,16,17
 41 384 41 384 36.5 379.5 c 128,-1,18
 32 375 32 375 32 368 c 2,19,-1
 32 358 l 2,20,21
 32 352 32 352 38 352 c 2,22,-1
 154 352 l 2,23,24
 160 352 160 352 160 358 c 2,25,-1
 160 378 l 2,26,27
 160 384 160 384 154 384 c 2,28,-1
 48 384 l 2,16,17
474 288 m 2,29,30
 480 288 480 288 480 294 c 2,31,-1
 480 368 l 2,32,33
 480 375 480 375 475.5 379.5 c 128,-1,34
 471 384 471 384 464 384 c 2,35,-1
 211 384 l 2,36,37
 208 384 208 384 206 381 c 2,38,-1
 176 336 l 1,39,-1
 38 336 l 2,40,41
 32 336 32 336 32 330 c 2,42,-1
 32 294 l 2,43,44
 32 288 32 288 38 288 c 2,45,-1
 474 288 l 2,29,30
256 24 m 128,-1,47
 306 24 306 24 341 59 c 128,-1,48
 376 94 376 94 376 144 c 128,-1,49
 376 194 376 194 341 229 c 128,-1,50
 306 264 306 264 256 264 c 128,-1,51
 206 264 206 264 171 229 c 128,-1,52
 136 194 136 194 136 144 c 128,-1,53
 136 94 136 94 171 59 c 128,-1,46
 206 24 206 24 256 24 c 128,-1,47
256 232 m 128,-1,55
 292 232 292 232 318 206 c 128,-1,56
 344 180 344 180 344 144 c 128,-1,57
 344 108 344 108 318 82 c 128,-1,58
 292 56 292 56 256 56 c 128,-1,59
 220 56 220 56 194 82 c 128,-1,60
 168 108 168 108 168 144 c 128,-1,61
 168 180 168 180 194 206 c 128,-1,54
 220 232 220 232 256 232 c 128,-1,55
208 128 m 128,-1,63
 215 128 215 128 219.5 132.5 c 128,-1,64
 224 137 224 137 224 144 c 0,65,66
 224 157 224 157 233.5 166.5 c 128,-1,67
 243 176 243 176 256 176 c 0,68,69
 263 176 263 176 267.5 180.5 c 128,-1,70
 272 185 272 185 272 192 c 128,-1,71
 272 199 272 199 267.5 203.5 c 128,-1,72
 263 208 263 208 256 208 c 0,73,74
 230 208 230 208 211 189 c 128,-1,75
 192 170 192 170 192 144 c 0,76,77
 192 137 192 137 196.5 132.5 c 128,-1,62
 201 128 201 128 208 128 c 128,-1,63
EndSplineSet
Validated: 513
EndChar

StartChar: key
Encoding: 61572 61572 177
Width: 512
GlyphClass: 3
Flags: W
LayerCount: 2
Fore
SplineSet
512 272 m 256,0,1
 512 199 512 199 460.5 147.5 c 128,-1,2
 409 96 409 96 336 96 c 0,3,4
 319 96 319 96 303 99 c 1,5,-1
 279 72 l 2,6,7
 272 64 272 64 261 64 c 2,8,-1
 224 64 l 1,9,-1
 224 24 l 2,10,11
 224 14 224 14 217 7 c 128,-1,12
 210 0 210 0 200 0 c 2,13,-1
 160 0 l 1,14,-1
 160 -40 l 2,15,16
 160 -50 160 -50 153 -57 c 128,-1,17
 146 -64 146 -64 136 -64 c 2,18,-1
 24 -64 l 2,19,20
 14 -64 14 -64 7 -57 c 128,-1,21
 0 -50 0 -50 0 -40 c 2,22,-1
 0 38 l 2,23,24
 0 48 0 48 7 55 c 2,25,-1
 169 217 l 1,26,27
 160 244 160 244 160 272 c 0,28,29
 160 320 160 320 183.5 360.5 c 128,-1,30
 207 401 207 401 247.5 424.5 c 128,-1,31
 288 448 288 448 336 448 c 0,32,33
 409 448 409 448 460.5 396.5 c 128,-1,34
 512 345 512 345 512 272 c 256,0,1
336 320 m 128,-1,36
 336 300 336 300 350 286 c 128,-1,37
 364 272 364 272 384 272 c 128,-1,38
 404 272 404 272 418 286 c 128,-1,39
 432 300 432 300 432 320 c 128,-1,40
 432 340 432 340 418 354 c 128,-1,41
 404 368 404 368 384 368 c 128,-1,42
 364 368 364 368 350 354 c 128,-1,35
 336 340 336 340 336 320 c 128,-1,36
EndSplineSet
Validated: 1
EndChar

StartChar: cogs
Encoding: 61573 61573 178
Width: 640
GlyphClass: 3
Flags: W
LayerCount: 2
Fore
SplineSet
512 257 m 1,0,-1
 504 243 l 2,1,2
 499 234 499 234 489 237 c 0,3,4
 471 244 471 244 457 256 c 0,5,6
 449 263 449 263 454 272 c 2,7,-1
 462 286 l 1,8,9
 452 298 452 298 446 313 c 1,10,-1
 430 313 l 2,11,12
 419 313 419 313 418 324 c 0,13,14
 414 342 414 342 418 361 c 0,15,16
 419 371 419 371 430 371 c 2,17,-1
 446 371 l 1,18,19
 452 386 452 386 462 398 c 1,20,-1
 454 413 l 2,21,22
 449 422 449 422 457 428 c 0,23,24
 471 440 471 440 489 447 c 0,25,26
 499 451 499 451 504 442 c 2,27,-1
 512 427 l 1,28,29
 528 430 528 430 544 427 c 1,30,-1
 552 442 l 2,31,32
 557 451 557 451 567 447 c 0,33,34
 585 441 585 441 599 428 c 0,35,36
 607 422 607 422 602 413 c 2,37,-1
 594 398 l 1,38,39
 604 386 604 386 610 371 c 1,40,-1
 626 371 l 2,41,42
 637 371 637 371 638 361 c 0,43,44
 642 342 642 342 638 324 c 0,45,46
 637 313 637 313 626 313 c 2,47,-1
 610 313 l 1,48,49
 604 298 604 298 594 286 c 1,50,-1
 602 272 l 2,51,52
 607 262 607 262 599 256 c 0,53,54
 585 244 585 244 567 237 c 0,55,56
 557 234 557 234 552 243 c 2,57,-1
 544 257 l 1,58,59
 528 254 528 254 512 257 c 1,0,-1
502 316 m 1,60,61
 520 302 520 302 539 308 c 128,-1,62
 558 314 558 314 562.5 331.5 c 128,-1,63
 567 349 567 349 554 369 c 1,64,65
 536 383 536 383 517 377 c 128,-1,66
 498 371 498 371 493.5 353.5 c 128,-1,67
 489 336 489 336 502 316 c 1,60,61
386 162 m 1,68,-1
 420 145 l 2,69,70
 437 135 437 135 430 116 c 0,71,72
 421 90 421 90 388 50 c 0,73,74
 375 35 375 35 358 45 c 2,75,-1
 328 62 l 1,76,77
 304 41 304 41 274 30 c 1,78,-1
 274 -4 l 2,79,80
 274 -12 274 -12 268 -19 c 128,-1,81
 262 -26 262 -26 254 -27 c 0,82,83
 216 -34 216 -34 178 -27 c 0,84,85
 169 -26 169 -26 163.5 -19 c 128,-1,86
 158 -12 158 -12 158 -4 c 2,87,-1
 158 30 l 1,88,89
 127 41 127 41 103 62 c 1,90,-1
 74 45 l 2,91,92
 57 35 57 35 44 50 c 0,93,94
 12 89 12 89 2 116 c 0,95,96
 -5 135 -5 135 12 145 c 2,97,-1
 45 162 l 1,98,99
 39 194 39 194 45 225 c 1,100,-1
 12 242 l 2,101,102
 -6 252 -6 252 2 271 c 0,103,104
 12 298 12 298 44 337 c 0,105,106
 56 352 56 352 74 342 c 2,107,-1
 103 326 l 1,108,109
 128 347 128 347 158 357 c 1,110,-1
 158 391 l 2,111,112
 158 400 158 400 163.5 406.5 c 128,-1,113
 169 413 169 413 178 414 c 0,114,115
 216 421 216 421 254 414 c 0,116,117
 258 414 258 414 261.5 411.5 c 128,-1,118
 265 409 265 409 268 406 c 128,-1,119
 271 403 271 403 272.5 399 c 128,-1,120
 274 395 274 395 274 391 c 2,121,-1
 274 357 l 1,122,123
 304 346 304 346 328 326 c 1,124,-1
 358 342 l 2,125,126
 375 353 375 353 388 337 c 0,127,128
 420 299 420 299 430 271 c 0,129,130
 437 252 437 252 420 242 c 2,131,-1
 386 225 l 1,132,133
 392 194 392 194 386 162 c 1,68,-1
269 141 m 1,134,135
 286 163 286 163 288 187 c 128,-1,136
 290 211 290 211 279 228.5 c 128,-1,137
 268 246 268 246 250.5 257 c 128,-1,138
 233 268 233 268 209 265.5 c 128,-1,139
 185 263 185 263 163 246 c 1,140,141
 146 224 146 224 144 200 c 128,-1,142
 142 176 142 176 153 158.5 c 128,-1,143
 164 141 164 141 181.5 130 c 128,-1,144
 199 119 199 119 223 121.5 c 128,-1,145
 247 124 247 124 269 141 c 1,134,135
512 -42 m 1,146,-1
 504 -56 l 2,147,148
 499 -65 499 -65 489 -62 c 0,149,150
 471 -55 471 -55 457 -43 c 0,151,152
 449 -36 449 -36 454 -27 c 2,153,-1
 462 -13 l 1,154,155
 452 -1 452 -1 446 14 c 1,156,-1
 430 14 l 2,157,158
 419 14 419 14 418 25 c 0,159,160
 414 43 414 43 418 62 c 0,161,162
 419 72 419 72 430 72 c 2,163,-1
 446 72 l 1,164,165
 452 87 452 87 462 100 c 1,166,-1
 454 114 l 2,167,168
 449 123 449 123 457 130 c 0,169,170
 471 142 471 142 489 148 c 0,171,172
 499 152 499 152 504 143 c 2,173,-1
 512 128 l 1,174,175
 528 131 528 131 544 128 c 1,176,-1
 552 143 l 2,177,178
 557 152 557 152 567 148 c 0,179,180
 585 142 585 142 599 130 c 0,181,182
 607 123 607 123 602 114 c 2,183,-1
 594 100 l 1,184,185
 604 87 604 87 610 72 c 1,186,-1
 626 72 l 2,187,188
 637 72 637 72 638 62 c 0,189,190
 642 43 642 43 638 25 c 0,191,192
 637 14 637 14 626 14 c 2,193,-1
 610 14 l 1,194,195
 604 -1 604 -1 594 -13 c 1,196,-1
 602 -27 l 2,197,198
 607 -36 607 -36 599 -43 c 0,199,200
 585 -55 585 -55 567 -62 c 0,201,202
 557 -65 557 -65 552 -56 c 2,203,-1
 544 -42 l 1,204,205
 528 -45 528 -45 512 -42 c 1,146,-1
502 17 m 1,206,207
 520 3 520 3 539 9 c 128,-1,208
 558 15 558 15 562.5 32.5 c 128,-1,209
 567 50 567 50 554 70 c 1,210,211
 536 84 536 84 517 78 c 128,-1,212
 498 72 498 72 493.5 54.5 c 128,-1,213
 489 37 489 37 502 17 c 1,206,207
EndSplineSet
Validated: 33
EndChar

StartChar: comments
Encoding: 61574 61574 179
Width: 576
GlyphClass: 3
Flags: W
LayerCount: 2
Fore
SplineSet
416 256 m 128,-1,1
 416 190 416 190 355 143 c 128,-1,2
 294 96 294 96 208 96 c 0,3,4
 148 96 148 96 97 121 c 1,5,6
 54 96 54 96 8 96 c 0,7,8
 6 96 6 96 4 97.5 c 128,-1,9
 2 99 2 99 1 101 c 0,10,11
 -1 106 -1 106 2 110 c 0,12,13
 23 130 23 130 38 164 c 1,14,15
 0 205 0 205 0 256 c 0,16,17
 0 322 0 322 61 369 c 128,-1,18
 122 416 122 416 208 416 c 128,-1,19
 294 416 294 416 355 369 c 128,-1,0
 416 322 416 322 416 256 c 128,-1,1
538 36 m 1,20,21
 553 2 553 2 574 -18 c 0,22,23
 577 -22 577 -22 575 -27 c 128,-1,24
 573 -32 573 -32 568 -32 c 0,25,26
 522 -32 522 -32 479 -7 c 1,27,28
 428 -32 428 -32 368 -32 c 0,29,30
 304 -32 304 -32 252 -5 c 128,-1,31
 200 22 200 22 176 66 c 1,32,33
 194 64 194 64 208 64 c 0,34,35
 307 64 307 64 377.5 120.5 c 128,-1,36
 448 177 448 177 448 256 c 0,37,38
 448 267 448 267 447 276 c 1,39,40
 504 258 504 258 540 217.5 c 128,-1,41
 576 177 576 177 576 128 c 0,42,43
 576 77 576 77 538 36 c 1,20,21
EndSplineSet
Validated: 1
EndChar

StartChar: star-half
Encoding: 61577 61577 180
Width: 576
GlyphClass: 3
Flags: W
LayerCount: 2
Fore
SplineSet
288 448 m 1,0,-1
 288 8 l 1,1,-1
 157 -60 l 2,2,3
 140 -69 140 -69 124 -57.5 c 128,-1,4
 108 -46 108 -46 111 -26 c 2,5,-1
 136 119 l 1,6,-1
 30 222 l 2,7,8
 16 236 16 236 22 255 c 128,-1,9
 28 274 28 274 48 277 c 2,10,-1
 194 298 l 1,11,-1
 259 430 l 2,12,13
 268 448 268 448 288 448 c 1,0,-1
EndSplineSet
Validated: 545
EndChar

StartChar: linkedin
Encoding: 61580 61580 181
Width: 448
GlyphClass: 3
Flags: W
LayerCount: 2
Fore
SplineSet
416 416 m 2,0,1
 429 416 429 416 438.5 406.5 c 128,-1,2
 448 397 448 397 448 384 c 2,3,-1
 448 0 l 2,4,5
 448 -13 448 -13 438.5 -22.5 c 128,-1,6
 429 -32 429 -32 416 -32 c 2,7,-1
 32 -32 l 2,8,9
 19 -32 19 -32 9.5 -22.5 c 128,-1,10
 0 -13 0 -13 0 0 c 2,11,-1
 0 384 l 2,12,13
 0 397 0 397 9.5 406.5 c 128,-1,14
 19 416 19 416 32 416 c 2,15,-1
 416 416 l 2,0,1
135 32 m 1,16,-1
 136 32 l 1,17,-1
 136 246 l 1,18,-1
 69 246 l 1,19,-1
 69 32 l 1,20,-1
 135 32 l 1,16,-1
102 275 m 128,-1,22
 118 275 118 275 129.5 286.5 c 128,-1,23
 141 298 141 298 141 313.5 c 128,-1,24
 141 329 141 329 129.5 340.5 c 128,-1,25
 118 352 118 352 102 352 c 128,-1,26
 86 352 86 352 75 340.5 c 128,-1,27
 64 329 64 329 64 313.5 c 128,-1,28
 64 298 64 298 75 286.5 c 128,-1,21
 86 275 86 275 102 275 c 128,-1,22
384 32 m 1,29,-1
 384 149 l 2,30,31
 384 173 384 173 381 190 c 128,-1,32
 378 207 378 207 370 221.5 c 128,-1,33
 362 236 362 236 345.5 243.5 c 128,-1,34
 329 251 329 251 305 251 c 0,35,36
 282 251 282 251 265.5 241 c 128,-1,37
 249 231 249 231 242 217 c 1,38,-1
 241 217 l 1,39,-1
 241 246 l 1,40,-1
 177 246 l 1,41,-1
 177 32 l 1,42,-1
 244 32 l 1,43,-1
 244 138 l 2,44,45
 244 163 244 163 252 178 c 128,-1,46
 260 193 260 193 283 193 c 0,47,48
 295 193 295 193 303 188 c 128,-1,49
 311 183 311 183 313.5 173 c 128,-1,50
 316 163 316 163 317 155.5 c 128,-1,51
 318 148 318 148 318 136 c 2,52,-1
 318 32 l 1,53,-1
 384 32 l 1,29,-1
EndSplineSet
Validated: 1
Ligature2: "'liga' Standard Ligatures in Latin lookup 0 per glyph data 44" l i n k e d i n
Ligature2: "'liga' Standard Ligatures in Latin lookup 0 per glyph data 44" L I N K E D I N
Ligature2: "'liga' Standard Ligatures in Latin lookup 0 per glyph data 44" L i n k e d i n
EndChar

StartChar: thumbtack
Encoding: 61581 61581 182
Width: 384
GlyphClass: 3
Flags: W
LayerCount: 2
Fore
SplineSet
298 234 m 1,0,1
 323 222 323 222 342 206 c 128,-1,2
 361 190 361 190 372.5 167.5 c 128,-1,3
 384 145 384 145 384 120 c 0,4,5
 384 110 384 110 377 103 c 128,-1,6
 370 96 370 96 360 96 c 2,7,-1
 224 96 l 1,8,-1
 224 -8 l 2,9,10
 224 -10 224 -10 223 -12 c 2,11,-1
 199 -60 l 2,12,13
 197 -64 197 -64 192 -64 c 128,-1,14
 187 -64 187 -64 185 -60 c 2,15,-1
 161 -12 l 2,16,17
 160 -10 160 -10 160 -8 c 2,18,-1
 160 96 l 1,19,-1
 24 96 l 2,20,21
 14 96 14 96 7 103 c 128,-1,22
 0 110 0 110 0 120 c 0,23,24
 0 156 0 156 24 186 c 128,-1,25
 48 216 48 216 86 234 c 1,26,-1
 98 352 l 1,27,-1
 56 352 l 2,28,29
 46 352 46 352 39 359 c 128,-1,30
 32 366 32 366 32 376 c 2,31,-1
 32 424 l 2,32,33
 32 434 32 434 39 441 c 128,-1,34
 46 448 46 448 56 448 c 2,35,-1
 328 448 l 2,36,37
 338 448 338 448 345 441 c 128,-1,38
 352 434 352 434 352 424 c 2,39,-1
 352 376 l 2,40,41
 352 366 352 366 345 359 c 128,-1,42
 338 352 338 352 328 352 c 2,43,-1
 286 352 l 1,44,-1
 298 234 l 1,0,1
EndSplineSet
Validated: 1
EndChar

StartChar: trophy
Encoding: 61585 61585 183
Width: 576
GlyphClass: 3
Flags: W
LayerCount: 2
Fore
SplineSet
552 384 m 2,0,1
 562 384 562 384 569 377 c 128,-1,2
 576 370 576 370 576 360 c 2,3,-1
 576 304 l 2,4,5
 576 248 576 248 514 203 c 0,6,7
 466 169 466 169 404 162 c 1,8,9
 373 110 373 110 336 88 c 1,10,-1
 336 16 l 1,11,-1
 384 16 l 2,12,13
 411 16 411 16 429.5 1 c 128,-1,14
 448 -14 448 -14 448 -40 c 2,15,-1
 448 -52 l 2,16,17
 448 -64 448 -64 436 -64 c 2,18,-1
 140 -64 l 2,19,20
 128 -64 128 -64 128 -52 c 2,21,-1
 128 -40 l 2,22,23
 128 -14 128 -14 146.5 1 c 128,-1,24
 165 16 165 16 192 16 c 2,25,-1
 240 16 l 1,26,-1
 240 88 l 1,27,28
 236 90 236 90 229 95 c 128,-1,29
 222 100 222 100 204 119 c 128,-1,30
 186 138 186 138 172 162 c 1,31,32
 110 169 110 169 62 203 c 0,33,34
 0 248 0 248 0 304 c 2,35,-1
 0 360 l 2,36,37
 0 370 0 370 7 377 c 128,-1,38
 14 384 14 384 24 384 c 2,39,-1
 128 384 l 1,40,-1
 128 424 l 2,41,42
 128 434 128 434 135 441 c 128,-1,43
 142 448 142 448 152 448 c 2,44,-1
 424 448 l 2,45,46
 434 448 434 448 441 441 c 128,-1,47
 448 434 448 434 448 424 c 2,48,-1
 448 384 l 1,49,-1
 552 384 l 2,0,1
99 255 m 0,50,51
 118 242 118 242 141 234 c 1,52,53
 130 275 130 275 128 320 c 1,54,-1
 64 320 l 1,55,-1
 64 304 l 2,56,57
 64 281 64 281 99 255 c 0,50,51
512 304 m 2,58,-1
 512 320 l 1,59,-1
 448 320 l 1,60,61
 446 275 446 275 435 234 c 1,62,63
 458 242 458 242 477 255 c 0,64,65
 512 281 512 281 512 304 c 2,58,-1
EndSplineSet
Validated: 1
EndChar

StartChar: github-square
Encoding: 61586 61586 184
Width: 448
GlyphClass: 3
Flags: W
LayerCount: 2
Fore
SplineSet
400 416 m 2,0,1
 420 416 420 416 434 402 c 128,-1,2
 448 388 448 388 448 368 c 2,3,-1
 448 16 l 2,4,5
 448 -4 448 -4 434 -18 c 128,-1,6
 420 -32 420 -32 400 -32 c 2,7,-1
 48 -32 l 2,8,9
 28 -32 28 -32 14 -18 c 128,-1,10
 0 -4 0 -4 0 16 c 2,11,-1
 0 368 l 2,12,13
 0 388 0 388 14 402 c 128,-1,14
 28 416 28 416 48 416 c 2,15,-1
 400 416 l 2,0,1
277 32 m 0,16,17
 327 49 327 49 357.5 92.5 c 128,-1,18
 388 136 388 136 388 191 c 0,19,20
 388 259 388 259 339.5 305.5 c 128,-1,21
 291 352 291 352 222 352 c 256,22,23
 153 352 153 352 106.5 305.5 c 128,-1,24
 60 259 60 259 60 191 c 0,25,26
 60 136 60 136 91 92.5 c 128,-1,27
 122 49 122 49 172 32 c 0,28,29
 184 30 184 30 184 40 c 0,30,31
 184 41 184 41 183.5 57 c 128,-1,32
 183 73 183 73 183 81 c 1,33,34
 181 80 181 80 178 79.5 c 128,-1,35
 175 79 175 79 166.5 79 c 128,-1,36
 158 79 158 79 151 80.5 c 128,-1,37
 144 82 144 82 137 87 c 128,-1,38
 130 92 130 92 127 101 c 0,39,40
 120 120 120 120 109 125 c 1,41,42
 109 125 109 125 102 132 c 0,43,44
 102 135 102 135 110 135 c 0,45,46
 126 134 126 134 135 118 c 0,47,48
 152 89 152 89 184 104 c 1,49,50
 186 119 186 119 194 126 c 1,51,52
 176 128 176 128 166 130.5 c 128,-1,53
 156 133 156 133 143.5 140 c 128,-1,54
 131 147 131 147 125.5 162 c 128,-1,55
 120 177 120 177 120 199 c 256,56,57
 120 221 120 221 136 238 c 1,58,59
 127 258 127 258 137 283 c 1,60,61
 143 285 143 285 154.5 280.5 c 128,-1,62
 166 276 166 276 175 271 c 2,63,-1
 183 266 l 1,64,65
 203 271 203 271 224.5 271 c 128,-1,66
 246 271 246 271 266 266 c 0,67,68
 270 268 270 268 275.5 271.5 c 128,-1,69
 281 275 281 275 293.5 280 c 128,-1,70
 306 285 306 285 312 283 c 1,71,72
 322 259 322 259 314 238 c 1,73,74
 331 220 331 220 331 199 c 0,75,76
 331 177 331 177 325 162 c 128,-1,77
 319 147 319 147 306 140 c 128,-1,78
 293 133 293 133 283 130.5 c 128,-1,79
 273 128 273 128 255 126 c 1,80,81
 266 117 266 117 266 96 c 0,82,83
 266 82 266 82 266 61.5 c 128,-1,84
 266 41 266 41 266 40 c 0,85,86
 266 30 266 30 277 32 c 0,16,17
179.5 93.5 m 128,-1,88
 176 93 176 93 175.5 95.5 c 128,-1,89
 175 98 175 98 178 98 c 0,90,91
 182 99 182 99 182.5 96.5 c 128,-1,87
 183 94 183 94 179.5 93.5 c 128,-1,88
170 94 m 0,92,93
 170 97 170 97 166 97 c 256,94,95
 162 97 162 97 162 94 c 0,96,97
 162 92 162 92 166 92 c 256,98,99
 170 92 170 92 170 94 c 0,92,93
156 95.5 m 128,-1,101
 155 93 155 93 152 94 c 0,102,103
 148 95 148 95 149 97.5 c 128,-1,104
 150 100 150 100 153 99 c 0,105,100
 157 98 157 98 156 95.5 c 128,-1,101
144 101 m 0,106,107
 145 102 145 102 142.5 105 c 128,-1,108
 140 108 140 108 138 106 c 0,109,110
 137 104 137 104 139 101 c 0,111,112
 142 99 142 99 144 101 c 0,106,107
135 110 m 256,113,114
 137 111 137 111 135 114 c 256,115,116
 133 117 133 117 131 115 c 0,117,118
 129 114 129 114 131 111.5 c 128,-1,119
 133 109 133 109 135 110 c 256,113,114
128.5 119.5 m 128,-1,121
 130 121 130 121 128 123 c 256,122,123
 126 125 126 125 124.5 123.5 c 128,-1,124
 123 122 123 122 125 120 c 256,125,120
 127 118 127 118 128.5 119.5 c 128,-1,121
121 127 m 0,126,127
 122 128 122 128 120 130 c 0,128,129
 118 130 118 130 117 129 c 256,130,131
 116 128 116 128 119 127 c 0,132,133
 121 125 121 125 121 127 c 0,126,127
EndSplineSet
Validated: 545
Ligature2: "'liga' Standard Ligatures in Latin lookup 0 per glyph data 30" g i t h u b hyphen s q u a r e
Ligature2: "'liga' Standard Ligatures in Latin lookup 0 per glyph data 30" G i t h u b hyphen S q u a r e
Ligature2: "'liga' Standard Ligatures in Latin lookup 0 per glyph data 30" G i t h u b hyphen s q u a r e
Ligature2: "'liga' Standard Ligatures in Latin lookup 0 per glyph data 30" G I T H U B hyphen S Q U A R E
EndChar

StartChar: upload
Encoding: 61587 61587 185
Width: 512
GlyphClass: 3
Flags: W
LayerCount: 2
Fore
SplineSet
296 64 m 2,0,-1
 216 64 l 2,1,2
 206 64 206 64 199 71 c 128,-1,3
 192 78 192 78 192 88 c 2,4,-1
 192 256 l 1,5,-1
 104 256 l 2,6,7
 91 256 91 256 86 268.5 c 128,-1,8
 81 281 81 281 90 290 c 2,9,-1
 242 442 l 2,10,11
 248 448 248 448 256 448 c 128,-1,12
 264 448 264 448 270 442 c 2,13,-1
 422 290 l 2,14,15
 431 281 431 281 426 268.5 c 128,-1,16
 421 256 421 256 408 256 c 2,17,-1
 320 256 l 1,18,-1
 320 88 l 2,19,20
 320 78 320 78 313 71 c 128,-1,21
 306 64 306 64 296 64 c 2,0,-1
512 72 m 2,22,-1
 512 -40 l 2,23,24
 512 -50 512 -50 505 -57 c 128,-1,25
 498 -64 498 -64 488 -64 c 2,26,-1
 24 -64 l 2,27,28
 14 -64 14 -64 7 -57 c 128,-1,29
 0 -50 0 -50 0 -40 c 2,30,-1
 0 72 l 2,31,32
 0 82 0 82 7 89 c 128,-1,33
 14 96 14 96 24 96 c 2,34,-1
 160 96 l 1,35,-1
 160 88 l 2,36,37
 160 65 160 65 176.5 48.5 c 128,-1,38
 193 32 193 32 216 32 c 2,39,-1
 296 32 l 2,40,41
 319 32 319 32 335.5 48.5 c 128,-1,42
 352 65 352 65 352 88 c 2,43,-1
 352 96 l 1,44,-1
 488 96 l 2,45,46
 498 96 498 96 505 89 c 128,-1,47
 512 82 512 82 512 72 c 2,22,-1
388 -16 m 128,-1,49
 388 -8 388 -8 382 -2 c 128,-1,50
 376 4 376 4 368 4 c 128,-1,51
 360 4 360 4 354 -2 c 128,-1,52
 348 -8 348 -8 348 -16 c 128,-1,53
 348 -24 348 -24 354 -30 c 128,-1,54
 360 -36 360 -36 368 -36 c 128,-1,55
 376 -36 376 -36 382 -30 c 128,-1,48
 388 -24 388 -24 388 -16 c 128,-1,49
452 -16 m 128,-1,57
 452 -8 452 -8 446 -2 c 128,-1,58
 440 4 440 4 432 4 c 128,-1,59
 424 4 424 4 418 -2 c 128,-1,60
 412 -8 412 -8 412 -16 c 128,-1,61
 412 -24 412 -24 418 -30 c 128,-1,62
 424 -36 424 -36 432 -36 c 128,-1,63
 440 -36 440 -36 446 -30 c 128,-1,56
 452 -24 452 -24 452 -16 c 128,-1,57
EndSplineSet
Validated: 33
EndChar

StartChar: lemon
Encoding: 61588 61588 186
Width: 512
GlyphClass: 3
Flags: W
LayerCount: 2
Fore
SplineSet
489 425 m 128,-1,1
 506 408 506 408 510.5 386.5 c 128,-1,2
 515 365 515 365 506 350 c 0,3,4
 498 337 498 337 497 315.5 c 128,-1,5
 496 294 496 294 499.5 271.5 c 128,-1,6
 503 249 503 249 502 219.5 c 128,-1,7
 501 190 501 190 496 161 c 128,-1,8
 491 132 491 132 471.5 97 c 128,-1,9
 452 62 452 62 419 29 c 128,-1,10
 386 -4 386 -4 351 -23.5 c 128,-1,11
 316 -43 316 -43 287 -48 c 128,-1,12
 258 -53 258 -53 228.5 -54 c 128,-1,13
 199 -55 199 -55 176.5 -51.5 c 128,-1,14
 154 -48 154 -48 132.5 -49 c 128,-1,15
 111 -50 111 -50 98 -58 c 0,16,17
 83 -67 83 -67 61.5 -62.5 c 128,-1,18
 40 -58 40 -58 23 -41 c 128,-1,19
 6 -24 6 -24 1.5 -2.5 c 128,-1,20
 -3 19 -3 19 6 34 c 0,21,22
 14 47 14 47 15 68.5 c 128,-1,23
 16 90 16 90 12.5 112.5 c 128,-1,24
 9 135 9 135 10 164.5 c 128,-1,25
 11 194 11 194 16 223 c 128,-1,26
 21 252 21 252 40.5 287 c 128,-1,27
 60 322 60 322 93 355 c 128,-1,28
 126 388 126 388 161 407.5 c 128,-1,29
 196 427 196 427 225 432 c 128,-1,30
 254 437 254 437 283.5 438 c 128,-1,31
 313 439 313 439 335.5 435.5 c 128,-1,32
 358 432 358 432 379.5 433 c 128,-1,33
 401 434 401 434 414 442 c 0,34,35
 429 451 429 451 450.5 446.5 c 128,-1,0
 472 442 472 442 489 425 c 128,-1,1
244 352 m 0,36,37
 250 354 250 354 253.5 359.5 c 128,-1,38
 257 365 257 365 255.5 371.5 c 128,-1,39
 254 378 254 378 248.5 381.5 c 128,-1,40
 243 385 243 385 236 384 c 0,41,42
 184 370 184 370 131 317 c 128,-1,43
 78 264 78 264 64 212 c 0,44,45
 64 209 64 209 64.5 205.5 c 128,-1,46
 65 202 65 202 66.5 199.5 c 128,-1,47
 68 197 68 197 70.5 195 c 128,-1,48
 73 193 73 193 76 192 c 0,49,50
 78 192 78 192 80 192 c 0,51,52
 92 192 92 192 96 204 c 0,53,54
 106 248 106 248 153 295 c 128,-1,55
 200 342 200 342 244 352 c 0,36,37
EndSplineSet
Validated: 33
EndChar

StartChar: phone
Encoding: 61589 61589 187
Width: 512
GlyphClass: 3
Flags: W
LayerCount: 2
Fore
SplineSet
493 423 m 2,0,1
 512 419 512 419 512 400 c 0,2,3
 512 208 512 208 376 72 c 128,-1,4
 240 -64 240 -64 48 -64 c 0,5,6
 29 -64 29 -64 25 -45 c 2,7,-1
 1 59 l 2,8,9
 -4 78 -4 78 15 86 c 2,10,-1
 127 134 l 2,11,12
 143 141 143 141 155 127 c 2,13,-1
 204 67 l 1,14,15
 263 94 263 94 308.5 140 c 128,-1,16
 354 186 354 186 381 244 c 1,17,-1
 321 294 l 2,18,19
 307 305 307 305 314 322 c 2,20,-1
 362 434 l 2,21,22
 370 452 370 452 389 447 c 2,23,-1
 493 423 l 2,0,1
EndSplineSet
Validated: 33
EndChar

StartChar: phone-square
Encoding: 61592 61592 188
Width: 448
GlyphClass: 3
Flags: W
LayerCount: 2
Fore
SplineSet
400 416 m 2,0,1
 420 416 420 416 434 402 c 128,-1,2
 448 388 448 388 448 368 c 2,3,-1
 448 16 l 2,4,5
 448 -4 448 -4 434 -18 c 128,-1,6
 420 -32 420 -32 400 -32 c 2,7,-1
 48 -32 l 2,8,9
 28 -32 28 -32 14 -18 c 128,-1,10
 0 -4 0 -4 0 16 c 2,11,-1
 0 368 l 2,12,13
 0 388 0 388 14 402 c 128,-1,14
 28 416 28 416 48 416 c 2,15,-1
 400 416 l 2,0,1
94 32 m 0,16,17
 214 32 214 32 299 117 c 128,-1,18
 384 202 384 202 384 322 c 0,19,20
 384 334 384 334 372 337 c 2,21,-1
 307 352 l 2,22,23
 306 352 306 352 304 352 c 0,24,25
 294 352 294 352 290 343 c 2,26,-1
 260 273 l 2,27,28
 259 270 259 270 259 267 c 0,29,30
 259 260 259 260 265 255 c 2,31,-1
 302 224 l 1,32,33
 267 149 267 149 192 114 c 1,34,-1
 161 151 l 2,35,36
 156 157 156 157 149 157 c 0,37,38
 146 157 146 157 143 156 c 2,39,-1
 73 126 l 2,40,41
 64 122 64 122 64 112 c 0,42,43
 64 110 64 110 64 109 c 2,44,-1
 79 44 l 2,45,46
 82 32 82 32 94 32 c 0,16,17
EndSplineSet
Validated: 513
EndChar

StartChar: twitter
Encoding: 61593 61593 189
Width: 512
GlyphClass: 3
Flags: W
LayerCount: 2
Fore
SplineSet
459 296 m 0,0,1
 460 292 460 292 460 283 c 0,2,3
 460 230 460 230 440 177.5 c 128,-1,4
 420 125 420 125 383.5 81.5 c 128,-1,5
 347 38 347 38 289 11 c 128,-1,6
 231 -16 231 -16 161 -16 c 0,7,8
 73 -16 73 -16 0 31 c 1,9,10
 11 30 11 30 25 30 c 0,11,12
 98 30 98 30 156 75 c 1,13,14
 121 75 121 75 94.5 95.5 c 128,-1,15
 68 116 68 116 58 147 c 1,16,17
 68 146 68 146 77 146 c 0,18,19
 91 146 91 146 105 149 c 1,20,21
 81 154 81 154 62 169 c 128,-1,22
 43 184 43 184 32 205.5 c 128,-1,23
 21 227 21 227 21 252 c 2,24,-1
 21 254 l 1,25,26
 43 241 43 241 68 240 c 1,27,28
 21 272 21 272 21 328 c 0,29,30
 21 356 21 356 36 381 c 1,31,32
 75 332 75 332 131.5 303 c 128,-1,33
 188 274 188 274 252 271 c 1,34,35
 250 283 250 283 250 295 c 0,36,37
 250 338 250 338 280.5 369 c 128,-1,38
 311 400 311 400 354 400 c 0,39,40
 400 400 400 400 431 367 c 1,41,42
 467 374 467 374 498 392 c 1,43,44
 486 355 486 355 452 334 c 1,45,46
 482 338 482 338 512 351 c 1,47,48
 490 319 490 319 459 296 c 0,0,1
EndSplineSet
Validated: 1
Ligature2: "'liga' Standard Ligatures in Latin lookup 0 per glyph data 48" t w i t t e r
Ligature2: "'liga' Standard Ligatures in Latin lookup 0 per glyph data 48" T W I T T E R
Ligature2: "'liga' Standard Ligatures in Latin lookup 0 per glyph data 48" T w i t t e r
EndChar

StartChar: facebook
Encoding: 61594 61594 190
Width: 512
GlyphClass: 3
Flags: W
LayerCount: 2
Fore
SplineSet
504 192 m 0,0,1
 504 100 504 100 444 30.5 c 128,-1,2
 384 -39 384 -39 295 -53 c 1,3,-1
 295 120 l 1,4,-1
 353 120 l 1,5,-1
 364 192 l 1,6,-1
 295 192 l 1,7,-1
 295 239 l 2,8,9
 295 277 295 277 335 277 c 2,10,-1
 366 277 l 1,11,-1
 366 338 l 1,12,13
 338 343 338 343 311 343 c 0,14,15
 282 343 282 343 261.5 332 c 128,-1,16
 241 321 241 321 229 299 c 128,-1,17
 217 277 217 277 217 247 c 2,18,-1
 217 192 l 1,19,-1
 154 192 l 1,20,-1
 154 120 l 1,21,-1
 217 120 l 1,22,-1
 217 -53 l 1,23,24
 128 -39 128 -39 68 30.5 c 128,-1,25
 8 100 8 100 8 192 c 0,26,27
 8 295 8 295 80.5 367.5 c 128,-1,28
 153 440 153 440 256 440 c 128,-1,29
 359 440 359 440 431.5 367.5 c 128,-1,30
 504 295 504 295 504 192 c 0,0,1
EndSplineSet
Validated: 1
Ligature2: "'liga' Standard Ligatures in Latin lookup 0 per glyph data 43" f a c e b o o k
Ligature2: "'liga' Standard Ligatures in Latin lookup 0 per glyph data 43" F A C E B O O K
Ligature2: "'liga' Standard Ligatures in Latin lookup 0 per glyph data 43" F a c e b o o k
EndChar

StartChar: github
Encoding: 61595 61595 191
Width: 496
GlyphClass: 3
Flags: W
LayerCount: 2
Fore
SplineSet
166 51 m 256,0,1
 166 47 166 47 161 47 c 0,2,3
 155 46 155 46 155 51 c 0,4,5
 155 54 155 54 160 54 c 0,6,7
 166 55 166 55 166 51 c 256,0,1
134.5 55 m 128,-1,9
 136 59 136 59 141 57 c 0,10,11
 146 56 146 56 145 52 c 256,12,13
 144 48 144 48 139 50 c 0,14,8
 133 51 133 51 134.5 55 c 128,-1,9
179 57 m 0,15,16
 184 57 184 57 184.5 54 c 128,-1,17
 185 51 185 51 180 49 c 0,18,19
 175 48 175 48 174.5 52 c 128,-1,20
 174 56 174 56 179 57 c 0,15,16
245 440 m 0,21,22
 313 440 313 440 371 408 c 128,-1,23
 429 376 429 376 462.5 320 c 128,-1,24
 496 264 496 264 496 196 c 0,25,26
 496 113 496 113 449.5 47.5 c 128,-1,27
 403 -18 403 -18 328 -43 c 0,28,29
 320 -45 320 -45 315.5 -41 c 128,-1,30
 311 -37 311 -37 311 -31 c 0,31,32
 311 -30 311 -30 311 1.5 c 128,-1,33
 311 33 311 33 311 53 c 0,34,35
 311 85 311 85 294 99 c 1,36,37
 316 102 316 102 328 104 c 128,-1,38
 340 106 340 106 358 113 c 128,-1,39
 376 120 376 120 385.5 131 c 128,-1,40
 395 142 395 142 402 162 c 128,-1,41
 409 182 409 182 409 210 c 0,42,43
 409 229 409 229 403 241 c 128,-1,44
 397 253 397 253 383 268 c 1,45,46
 395 299 395 299 381 336 c 1,47,48
 371 339 371 339 354 332.5 c 128,-1,49
 337 326 337 326 324 318 c 2,50,-1
 312 309 l 1,51,52
 281 318 281 318 248.5 318 c 128,-1,53
 216 318 216 318 186 309 c 1,54,55
 181 313 181 313 172 318.5 c 128,-1,56
 163 324 163 324 144.5 331.5 c 128,-1,57
 126 339 126 339 117 336 c 1,58,59
 102 299 102 299 114 268 c 1,60,61
 91 243 91 243 91 210 c 0,62,63
 91 182 91 182 98 162 c 128,-1,64
 105 142 105 142 114 131 c 128,-1,65
 123 120 123 120 140 113 c 128,-1,66
 157 106 157 106 169.5 103.5 c 128,-1,67
 182 101 182 101 203 99 c 1,68,69
 190 87 190 87 187 65 c 1,70,71
 177 61 177 61 166.5 59 c 128,-1,72
 156 57 156 57 140 63 c 128,-1,73
 124 69 124 69 114 86 c 0,74,75
 108 97 108 97 98.5 103.5 c 128,-1,76
 89 110 89 110 82 111 c 2,77,-1
 76 112 l 2,78,79
 54 112 54 112 74 97 c 0,80,81
 81 93 81 93 88 84 c 128,-1,82
 95 75 95 75 98 68 c 2,83,-1
 102 60 l 2,84,85
 106 48 106 48 116 40 c 128,-1,86
 126 32 126 32 138 30 c 128,-1,87
 150 28 150 28 161 28 c 128,-1,88
 172 28 172 28 179 29 c 2,89,-1
 186 30 l 1,90,91
 186 18 186 18 186.5 -6 c 128,-1,92
 187 -30 187 -30 187 -31 c 0,93,94
 187 -37 187 -37 182.5 -41 c 128,-1,95
 178 -45 178 -45 170 -43 c 0,96,97
 94 -18 94 -18 47 47.5 c 128,-1,98
 0 113 0 113 0 196 c 0,99,100
 0 300 0 300 70.5 370 c 128,-1,101
 141 440 141 440 245 440 c 0,21,22
97 95 m 256,102,103
 99 97 99 97 102 94 c 256,104,105
 105 91 105 91 103 89 c 256,106,107
 101 87 101 87 98 90 c 256,108,109
 95 93 95 93 97 95 c 256,102,103
86 103 m 0,110,111
 88 105 88 105 91 104 c 0,112,113
 94 102 94 102 93 100 c 0,114,115
 92 97 92 97 89 99 c 0,116,117
 85 101 85 101 86 103 c 0,110,111
119 68 m 0,118,119
 121 71 121 71 125 67 c 256,120,121
 129 63 129 63 127 60 c 0,122,123
 124 57 124 57 120 61 c 256,124,125
 116 65 116 65 119 68 c 0,118,119
107 82 m 0,126,127
 110 85 110 85 113 80 c 0,128,129
 116 76 116 76 113 74 c 256,130,131
 110 72 110 72 107.5 76.5 c 128,-1,132
 105 81 105 81 107 82 c 0,126,127
EndSplineSet
Validated: 33
Ligature2: "'liga' Standard Ligatures in Latin lookup 0 per glyph data 49" g i t h u b
Ligature2: "'liga' Standard Ligatures in Latin lookup 0 per glyph data 49" G i t h u b
Ligature2: "'liga' Standard Ligatures in Latin lookup 0 per glyph data 49" G I T H U B
EndChar

StartChar: unlock
Encoding: 61596 61596 192
Width: 448
GlyphClass: 3
Flags: W
LayerCount: 2
Fore
SplineSet
400 192 m 2,0,1
 420 192 420 192 434 178 c 128,-1,2
 448 164 448 164 448 144 c 2,3,-1
 448 -16 l 2,4,5
 448 -36 448 -36 434 -50 c 128,-1,6
 420 -64 420 -64 400 -64 c 2,7,-1
 48 -64 l 2,8,9
 28 -64 28 -64 14 -50 c 128,-1,10
 0 -36 0 -36 0 -16 c 2,11,-1
 0 144 l 2,12,13
 0 164 0 164 14 178 c 128,-1,14
 28 192 28 192 48 192 c 2,15,-1
 72 192 l 1,16,-1
 72 294 l 2,17,18
 72 358 72 358 116.5 403 c 128,-1,19
 161 448 161 448 223.5 448 c 128,-1,20
 286 448 286 448 331 403.5 c 128,-1,21
 376 359 376 359 376 296 c 2,22,-1
 376 280 l 2,23,24
 376 270 376 270 369 263 c 128,-1,25
 362 256 362 256 352 256 c 2,26,-1
 320 256 l 2,27,28
 310 256 310 256 303 263 c 128,-1,29
 296 270 296 270 296 280 c 2,30,-1
 296 296 l 2,31,32
 296 326 296 326 274.5 347 c 128,-1,33
 253 368 253 368 223 368 c 0,34,35
 194 368 194 368 173 346.5 c 128,-1,36
 152 325 152 325 152 295 c 2,37,-1
 152 192 l 1,38,-1
 400 192 l 2,0,1
EndSplineSet
Validated: 1
EndChar

StartChar: credit-card
Encoding: 61597 61597 193
Width: 576
GlyphClass: 3
Flags: W
LayerCount: 2
Fore
SplineSet
0 16 m 2,0,-1
 0 192 l 1,1,-1
 576 192 l 1,2,-1
 576 16 l 2,3,4
 576 -4 576 -4 562 -18 c 128,-1,5
 548 -32 548 -32 528 -32 c 2,6,-1
 48 -32 l 2,7,8
 28 -32 28 -32 14 -18 c 128,-1,9
 0 -4 0 -4 0 16 c 2,0,-1
192 84 m 2,10,-1
 192 44 l 2,11,12
 192 32 192 32 204 32 c 2,13,-1
 340 32 l 2,14,15
 352 32 352 32 352 44 c 2,16,-1
 352 84 l 2,17,18
 352 96 352 96 340 96 c 2,19,-1
 204 96 l 2,20,21
 192 96 192 96 192 84 c 2,10,-1
64 84 m 2,22,-1
 64 44 l 2,23,24
 64 32 64 32 76 32 c 2,25,-1
 148 32 l 2,26,27
 160 32 160 32 160 44 c 2,28,-1
 160 84 l 2,29,30
 160 96 160 96 148 96 c 2,31,-1
 76 96 l 2,32,33
 64 96 64 96 64 84 c 2,22,-1
576 368 m 2,34,-1
 576 320 l 1,35,-1
 0 320 l 1,36,-1
 0 368 l 2,37,38
 0 388 0 388 14 402 c 128,-1,39
 28 416 28 416 48 416 c 2,40,-1
 528 416 l 2,41,42
 548 416 548 416 562 402 c 128,-1,43
 576 388 576 388 576 368 c 2,34,-1
EndSplineSet
Validated: 513
EndChar

StartChar: rss
Encoding: 61598 61598 194
Width: 448
GlyphClass: 3
Flags: W
LayerCount: 2
Fore
SplineSet
128 32.5 m 128,-1,1
 128 6 128 6 109.5 -13 c 128,-1,2
 91 -32 91 -32 64.5 -32 c 128,-1,3
 38 -32 38 -32 19 -13 c 128,-1,4
 0 6 0 6 0 32.5 c 128,-1,5
 0 59 0 59 19 77.5 c 128,-1,6
 38 96 38 96 64.5 96 c 128,-1,7
 91 96 91 96 109.5 77.5 c 128,-1,0
 128 59 128 59 128 32.5 c 128,-1,1
304 -15 m 0,8,9
 304 -22 304 -22 299.5 -27 c 128,-1,10
 295 -32 295 -32 288 -32 c 2,11,-1
 240 -32 l 2,12,13
 233 -32 233 -32 228.5 -27.5 c 128,-1,14
 224 -23 224 -23 224 -17 c 0,15,16
 218 67 218 67 158.5 126.5 c 128,-1,17
 99 186 99 186 15 192 c 0,18,19
 9 192 9 192 4.5 196.5 c 128,-1,20
 0 201 0 201 0 208 c 2,21,-1
 0 256 l 2,22,23
 0 263 0 263 5 267.5 c 128,-1,24
 10 272 10 272 17 272 c 0,25,26
 133 265 133 265 215 183 c 128,-1,27
 297 101 297 101 304 -15 c 0,8,9
448 -15 m 0,28,29
 448 -22 448 -22 443.5 -27 c 128,-1,30
 439 -32 439 -32 432 -32 c 2,31,-1
 384 -32 l 2,32,33
 377 -32 377 -32 372.5 -27.5 c 128,-1,34
 368 -23 368 -23 368 -17 c 0,35,36
 362 127 362 127 260.5 228.5 c 128,-1,37
 159 330 159 330 15 336 c 0,38,39
 9 336 9 336 4.5 340.5 c 128,-1,40
 0 345 0 345 0 352 c 2,41,-1
 0 400 l 2,42,43
 0 407 0 407 5 411.5 c 128,-1,44
 10 416 10 416 17 416 c 0,45,46
 103 413 103 413 181.5 377.5 c 128,-1,47
 260 342 260 342 317.5 285 c 128,-1,48
 375 228 375 228 410 149.5 c 128,-1,49
 445 71 445 71 448 -15 c 0,28,29
EndSplineSet
Validated: 1
EndChar

StartChar: hdd
Encoding: 61600 61600 195
Width: 576
GlyphClass: 3
Flags: W
LayerCount: 2
Fore
SplineSet
576 144 m 2,0,-1
 576 48 l 2,1,2
 576 28 576 28 562 14 c 128,-1,3
 548 0 548 0 528 0 c 2,4,-1
 48 0 l 2,5,6
 28 0 28 0 14 14 c 128,-1,7
 0 28 0 28 0 48 c 2,8,-1
 0 144 l 2,9,10
 0 164 0 164 14 178 c 128,-1,11
 28 192 28 192 48 192 c 2,12,-1
 528 192 l 2,13,14
 548 192 548 192 562 178 c 128,-1,15
 576 164 576 164 576 144 c 2,0,-1
528 224 m 2,16,-1
 48 224 l 2,17,18
 32 224 32 224 17 218 c 1,19,-1
 114 363 l 2,20,21
 118 368 118 368 124.5 373 c 128,-1,22
 131 378 131 378 139 381 c 128,-1,23
 147 384 147 384 154 384 c 2,24,-1
 422 384 l 2,25,26
 433 384 433 384 444.5 377.5 c 128,-1,27
 456 371 456 371 462 363 c 2,28,-1
 559 218 l 1,29,30
 544 224 544 224 528 224 c 2,16,-1
480 128 m 128,-1,32
 467 128 467 128 457.5 118.5 c 128,-1,33
 448 109 448 109 448 96 c 128,-1,34
 448 83 448 83 457.5 73.5 c 128,-1,35
 467 64 467 64 480 64 c 128,-1,36
 493 64 493 64 502.5 73.5 c 128,-1,37
 512 83 512 83 512 96 c 128,-1,38
 512 109 512 109 502.5 118.5 c 128,-1,31
 493 128 493 128 480 128 c 128,-1,32
384 128 m 128,-1,40
 371 128 371 128 361.5 118.5 c 128,-1,41
 352 109 352 109 352 96 c 128,-1,42
 352 83 352 83 361.5 73.5 c 128,-1,43
 371 64 371 64 384 64 c 128,-1,44
 397 64 397 64 406.5 73.5 c 128,-1,45
 416 83 416 83 416 96 c 128,-1,46
 416 109 416 109 406.5 118.5 c 128,-1,39
 397 128 397 128 384 128 c 128,-1,40
EndSplineSet
Validated: 1
EndChar

